<?xml version="1.0" standalone="no"?>
<!DOCTYPE svg PUBLIC "-//W3C//DTD SVG 1.1//EN" "http://www.w3.org/Graphics/SVG/1.1/DTD/svg11.dtd" >
<svg>
<metadata>
Created by FontForge 20090914 at Tue Oct 16 09:01:06 2012
 By www-data
Copyright (c) 2011, Sorkin Type Co (www.sorkintype.com), with Reserved Font Name Wellfleet
</metadata>
<defs>
<font id="Wellfleet-Regular" horiz-adv-x="1366" >
  <font-face 
    font-family="Wellfleet"
    font-weight="400"
    font-stretch="normal"
    units-per-em="2048"
    panose-1="2 4 5 3 5 6 0 6 7 4"
    ascent="1638"
    descent="-410"
    x-height="1118"
    cap-height="1525"
    bbox="-74 -540.001 2141 2020"
    underline-thickness="102"
    underline-position="-103"
    unicode-range="U+0001-U+FB02"
  />
<missing-glyph horiz-adv-x="1877" 
d="M1585 1856c66.667 0 100.001 -39.333 100.001 -118l-4 -1534c0 -33.333 -7.5 -56 -22.5 -68s-35.833 -18.667 -62.5 -20l-840 23l-479 -14c-30 1.33301 -50.333 10 -61 26s-16 38.667 -16 68l-8 1534c0 32.667 11.667 59.167 35 79.5s52.666 30.5 87.999 30.5zM1240 1378
c-4 4 -8.49805 5.99805 -13.498 5.99805s-9.83301 -2.33301 -14.5 -7l-277 -314l-277 304c-4.66699 4.66699 -8.83398 7 -12.501 7s-7.83398 -3 -12.501 -9l-112 -127c-5.33301 -6.66699 -8 -11.834 -8 -15.501s2 -7.5 6 -11.5l295 -274l-294 -282
c-3.33301 -3.33301 -5 -7 -5 -11s2.33301 -8.33301 7 -13l112 -122c5.33301 -5.33301 11.333 -8 18 -8s12 2.66699 16 8l266 308l280 -295c7.33301 -7.33301 13.333 -11 18 -11s9 2.66699 13 8l116 132c4 5.33301 6 10.333 6 15s-1.66699 8.33398 -5 11.001l-305 265
l298 276c6.66699 6.66699 10 12.334 10 17.001s-2.33301 9.33398 -7 14.001z" />
    <glyph glyph-name=".notdef" horiz-adv-x="1877" 
d="M1585 1856c66.667 0 100.001 -39.333 100.001 -118l-4 -1534c0 -33.333 -7.5 -56 -22.5 -68s-35.833 -18.667 -62.5 -20l-840 23l-479 -14c-30 1.33301 -50.333 10 -61 26s-16 38.667 -16 68l-8 1534c0 32.667 11.667 59.167 35 79.5s52.666 30.5 87.999 30.5zM1240 1378
c-4 4 -8.49805 5.99805 -13.498 5.99805s-9.83301 -2.33301 -14.5 -7l-277 -314l-277 304c-4.66699 4.66699 -8.83398 7 -12.501 7s-7.83398 -3 -12.501 -9l-112 -127c-5.33301 -6.66699 -8 -11.834 -8 -15.501s2 -7.5 6 -11.5l295 -274l-294 -282
c-3.33301 -3.33301 -5 -7 -5 -11s2.33301 -8.33301 7 -13l112 -122c5.33301 -5.33301 11.333 -8 18 -8s12 2.66699 16 8l266 308l280 -295c7.33301 -7.33301 13.333 -11 18 -11s9 2.66699 13 8l116 132c4 5.33301 6 10.333 6 15s-1.66699 8.33398 -5 11.001l-305 265
l298 276c6.66699 6.66699 10 12.334 10 17.001s-2.33301 9.33398 -7 14.001z" />
    <glyph glyph-name="uni0001" horiz-adv-x="0" 
 />
    <glyph glyph-name="uni0002" horiz-adv-x="0" 
 />
    <glyph glyph-name="uni0003" horiz-adv-x="0" 
 />
    <glyph glyph-name="uni0004" horiz-adv-x="0" 
 />
    <glyph glyph-name="uni0005" horiz-adv-x="0" 
 />
    <glyph glyph-name="uni0006" horiz-adv-x="0" 
 />
    <glyph glyph-name="uni0007" horiz-adv-x="0" 
 />
    <glyph glyph-name="uni0008" horiz-adv-x="0" 
 />
    <glyph glyph-name="uni0009" unicode="&#x9;" horiz-adv-x="0" 
 />
    <glyph glyph-name="uni0010" horiz-adv-x="0" 
 />
    <glyph glyph-name="uni0011" horiz-adv-x="0" 
 />
    <glyph glyph-name="uni0012" horiz-adv-x="0" 
 />
    <glyph glyph-name="uni0013" horiz-adv-x="0" 
 />
    <glyph glyph-name="uni0014" horiz-adv-x="0" 
 />
    <glyph glyph-name="uni0015" horiz-adv-x="0" 
 />
    <glyph glyph-name="uni0016" horiz-adv-x="0" 
 />
    <glyph glyph-name="uni0017" horiz-adv-x="0" 
 />
    <glyph glyph-name="uni0018" horiz-adv-x="0" 
 />
    <glyph glyph-name="uni0019" horiz-adv-x="0" 
 />
    <glyph glyph-name="space" unicode=" " horiz-adv-x="590" 
 />
    <glyph glyph-name="exclam" unicode="!" horiz-adv-x="512" 
d="M117 1539c1.33301 13.333 9.33301 21.332 24 23.999l218 -8c14 -1.33301 21 -10 21 -26l-43 -1079c-0.666992 -13.333 -6.66699 -20 -18 -20c-10 0 -21 0.666992 -33 2l-103 11c-16 2.66699 -24.667 12.334 -26 29.001zM408.5 134.999
c3.66699 -20 5.5 -38.668 5.5 -56.001s-5.83301 -33.166 -17.5 -47.499s-27.167 -26.166 -46.5 -35.499c-40 -19.333 -78.667 -29 -116 -29s-63 5.83301 -77 17.5s-25.333 26.167 -34 43.5c-16.667 33.333 -25 66.166 -25 98.499s7.33301 55.833 22 70.5
s32.667 26.334 54 35.001c36.667 14 73.167 21 109.5 21s61.333 -5.83301 75 -17.5s24.5 -26.334 32.5 -44.001s13.833 -36.5 17.5 -56.5z" />
    <glyph glyph-name="quotedbl" unicode="&#x22;" horiz-adv-x="1024" 
d="M172 1729c1.33301 10.667 7.66699 16.001 19 16.001l201 -8c8 -0.666992 13.167 -2.66699 15.5 -6s3.83301 -9.33301 4.5 -18l-46 -513c0 -9.33301 -8 -14 -24 -14l-111 10c-12.667 1.33301 -19 6.66602 -19 15.999zM612.001 1729
c1.33301 10.667 7.66699 16.001 19 16.001l201 -8c8 -0.666992 13.167 -2.66699 15.5 -6s3.83301 -9.33301 4.5 -18l-46 -513c0 -9.33301 -8 -14 -24 -14l-111 10c-12.667 1.33301 -19 6.66602 -19 15.999z" />
    <glyph glyph-name="numbersign" unicode="#" horiz-adv-x="1194" 
d="M1092 1038c10 -1.33301 15 -8 15 -20l-9 -156c-1.33301 -9.33301 -6 -14 -14 -14l-198 10l-25 -155l-13 -94l194 8c10 0 15 -5.66699 15 -17l-16 -154c-1.33301 -12.667 -7.33301 -19 -18 -19l-198 6l-42 -326c-2 -11.333 -10.333 -17 -25 -17h-148
c-12.667 0 -19 6.66699 -19 20l54 328l-117 4l-67 -1l-45 -339c-2 -11.333 -10.333 -17 -25 -17l-141 5c-12.667 0 -19 6.66699 -19 20l53 329l-180 -2c-11.333 0 -17 6.33301 -17 19l15 141c2 15.333 10.333 23.333 25 24l185 -10l17 103l19 150l-180 -6
c-10 0 -15 6.33301 -15 19l9 141c0.666992 16 7 24 19 24l189 -6l40 308c1.33301 13.333 9 20 23 20l148 -8c8 -0.666992 13.167 -2.66699 15.5 -6s3.83301 -9.33301 4.5 -18l-50 -301l50 -1l131 2l38 297c1.33301 13.333 9 20 23 20l148 2
c8 -0.666992 13.167 -2.66699 15.5 -6s3.83301 -9.33301 4.5 -18l-47 -292zM483 603l78 -4l112 4l17 103l20 160l-126 7l-60 -2l-26 -159z" />
    <glyph glyph-name="dollar" unicode="$" horiz-adv-x="1364" 
d="M647 -197c-16 0 -23.998 4.66895 -23.998 14.002l2 189c-66 4.66699 -131.333 15 -196 31l11 -81c0 -12 -7.66699 -18 -23 -18l-172 -5c-25.333 1.33301 -39.333 14.333 -42 39l-28 377c0 13.333 8 20.666 24 21.999l196 18c11.333 0 18.333 -7.66699 21 -23l-1 -161
c76 -12.667 146.667 -20.334 212 -23.001l6 495c-162.667 59.333 -275.667 119.666 -339 180.999c-68.667 68 -103 160 -103 276c0 110.667 38 201.334 114 272.001c75.333 70 180.333 110.333 315 121l-3 153c0 14.667 6.66699 22.667 20 24l131 8
c11.333 0 17.666 -5.33301 18.999 -16l-3 -171c66 -6 131.333 -18.667 196 -38c85.333 26 138.666 39 159.999 39s32.666 -9 33.999 -27l-20 -395c-1.33301 -15.333 -6.66602 -23 -15.999 -23l-168 6c-9.33301 0.666992 -15 3 -17 7s-3.33301 10.333 -4 19l-8 209
c-64.667 13.333 -118 21.666 -160 24.999l-8 -464c174 -68.667 293.667 -139.667 359 -213c58 -64.667 87 -150 87 -256c0 -178 -78.333 -300 -235 -366c-55.333 -22.667 -122 -37 -200 -43l3 -176c0 -9.33301 -6.33301 -14.666 -19 -15.999zM945.002 508.002
c-37.333 44 -94.333 82.667 -171 116l7 -437c69.333 10 119.5 31.833 150.5 65.5s46.5 78 46.5 133s-11 95.833 -33 122.5zM624.002 1343c-125.333 -18.667 -188 -77.999 -188 -177.999c0 -54.667 14.333 -97.667 43 -129c27.333 -30.667 78.333 -62.334 153 -95.001z" />
    <glyph glyph-name="percent" unicode="%" horiz-adv-x="1376" 
d="M1247 1407c5.33301 -4 8 -8.5 8 -13.5s-1.66699 -10.167 -5 -15.5l-473 -640l-488 -700c-4 -5.33301 -8.66699 -8 -14 -8s-10.666 1.66699 -15.999 5l-90 64c-5.33301 3.33301 -8 7.5 -8 12.5s2.33301 11.167 7 18.5l498 691l460 652c4 6 8.16699 9 12.5 9
s9.16602 -1.66699 14.499 -5zM631.5 1330.5c11.667 -35.667 17.501 -75.334 17.501 -119.001s-6.5 -84 -19.5 -121s-32.167 -68.5 -57.5 -94.5c-53.333 -56 -127.333 -84 -222 -84c-90.667 0 -161.334 29 -212.001 87c-47.333 54 -71 123 -71 207
c0 135.333 53.667 226.333 161 273c37.333 16 81.166 24 131.499 24s93.5 -7.16699 129.5 -21.5s65.833 -34.166 89.5 -59.499s41.334 -55.833 53.001 -91.5zM419.501 1348.5c-15.667 8.33301 -35.5 12.502 -59.5 12.502s-44.667 -4.66699 -62 -14s-31 -21.666 -41 -36.999
c-18 -26.667 -27 -55.5 -27 -86.5s2.33301 -55.333 7 -73s12.334 -33.834 23.001 -48.501c22.667 -32.667 55 -49 97 -49c63.333 0 105 33.333 125 100c5.33301 19.333 8 39.166 8 59.499s-2.5 39.333 -7.5 57s-12.833 33.167 -23.5 46.5s-23.834 24.166 -39.501 32.499z
M1291.5 413.502c11.667 -35.667 17.501 -75.334 17.501 -119.001s-6.5 -84 -19.5 -121s-32.167 -68.833 -57.5 -95.5c-53.333 -55.333 -127.333 -83 -222 -83c-90.667 0 -161.334 29 -212.001 87c-47.333 54 -71 123 -71 207c0 135.333 53.667 226.333 161 273
c37.333 16 81.166 24 131.499 24s93.5 -7.16699 129.5 -21.5s65.833 -34.166 89.5 -59.499s41.334 -55.833 53.001 -91.5zM1079.5 431.502c-15.667 8.33301 -35.5 12.5029 -59.5 12.5029s-44.667 -4.66699 -62 -14s-31 -21.333 -41 -36c-18 -27.333 -27 -56.5 -27 -87.5
s2.33301 -55.333 7 -73s12.334 -33.834 23.001 -48.501c22.667 -32.667 55 -49 97 -49c63.333 0 105 33.333 125 100c5.33301 19.333 8 39.166 8 59.499s-2.5 39.333 -7.5 57s-12.833 33.167 -23.5 46.5s-23.834 24.166 -39.501 32.499z" />
    <glyph glyph-name="ampersand" unicode="&#x26;" horiz-adv-x="1355" 
d="M959 183c-132 -138 -287 -207 -465 -207c-116 0 -212.333 29.333 -289 88c-84.667 65.333 -127 156 -127 272c0 140.667 64.667 258.667 194 354c40.667 30.667 86.667 60.667 138 90c-62.667 74 -104.667 132 -126 174c-36 72 -54 140.667 -54 206
s10.667 121.333 32 168s51 86 89 118c76.667 63.333 177.667 95 303 95c118.667 0 214.667 -28.333 288 -85c80.667 -61.333 121 -149 121 -263c0 -91.333 -27.667 -169 -83 -233c-51.333 -59.333 -141.333 -122 -270 -188l224 -244l259 -271l68 100c4.66699 6 9.5 9 14.5 9
s10.167 -2 15.5 -6l143 -131c4.66699 -4.66699 7 -9 7 -13s-1.66699 -7.66699 -5 -11l-314 -332c-4 -4 -7.83301 -6 -11.5 -6s-8.16699 2.66699 -13.5 8l-121 107c-8 6.66699 -12 12 -12 16s1.66699 7.66699 5 11l85 84zM509 664
c-129.333 -88.667 -194.001 -184 -194.001 -286c0 -65.333 22.333 -116 67 -152c40.667 -32.667 91.334 -49 152.001 -49c116.667 0 217.667 42.667 303 128l-172 183zM475.999 1250c-11.333 -23.333 -17 -48.665 -17 -75.998s1.83301 -50.333 5.5 -69
s10.834 -38.334 21.501 -59.001c20.667 -38.667 62.667 -93.667 126 -165c126.667 69.333 202 139.666 226 210.999c8.66699 24 13 49.5 13 76.5s-4 52 -12 75s-19.667 42.833 -35 59.5c-33.333 35.333 -80 53 -140 53c-92.667 0 -155.334 -35.333 -188.001 -106z" />
    <glyph glyph-name="quotesingle" unicode="'" horiz-adv-x="512" 
d="M136 1729c1.33301 10.667 7.66699 16.001 19 16.001l201 -8c8 -0.666992 13.167 -2.66699 15.5 -6s3.83301 -9.33301 4.5 -18l-46 -513c0 -9.33301 -8 -14 -24 -14l-111 10c-12.667 1.33301 -19 6.66602 -19 15.999z" />
    <glyph glyph-name="parenleft" unicode="(" horiz-adv-x="683" 
d="M433.5 49c21 -31.333 45.667 -47.001 74 -47.001s50.5 1.33301 66.5 4c11.333 0 17.333 -8 18 -24l-9 -151c-1.33301 -11.333 -9 -17.666 -23 -18.999c-34.667 -3.33301 -61.667 -5 -81 -5c-124 0 -211 77.667 -261 233c-43.333 135.333 -65 353 -65 653
c0 314 25.667 544 77 690c58.667 164 158.334 246 299.001 246c47.333 0 72.5 -1.83301 75.5 -5.5s4.83301 -9.16699 5.5 -16.5l10 -156c0 -12.667 -4.66699 -19 -14 -19c-8 1.33301 -21.333 2 -40 2c-46 0 -82.833 -13.833 -110.5 -41.5s-48.834 -70.5 -63.501 -128.5
c-24 -94.667 -36 -276.667 -36 -546c0 -251.333 7.66699 -417.833 23 -499.5s33.5 -138.167 54.5 -169.5z" />
    <glyph glyph-name="parenright" unicode=")" horiz-adv-x="683" 
d="M249 1387c-20.667 31.333 -45.167 47.001 -73.5 47.001s-50.5 -1.33301 -66.5 -4c-11.333 0 -17.333 8 -18 24l9 151c1.33301 11.333 9 17.666 23 18.999c34.667 3.33301 61.667 5 81 5c124 0 210.667 -77.667 260 -233c44 -135.333 66 -353 66 -653
c0 -314 -26 -544 -78 -690c-58 -164 -157.333 -246 -298 -246c-47.333 0 -72.5 1.83301 -75.5 5.5s-4.83301 9.16699 -5.5 16.5l-10 156c0 12.667 4.66699 19 14 19c8 -1.33301 21.333 -2 40 -2c46 0 82.833 13.833 110.5 41.5s48.834 70.5 63.501 128.5
c24 94.667 36 276.667 36 546c0 252.667 -7.83301 419.5 -23.5 500.5s-33.834 137.167 -54.501 168.5z" />
    <glyph glyph-name="asterisk" unicode="*" horiz-adv-x="1021" 
d="M970 1196c0 -17.333 -6.99609 -26.001 -20.9961 -26.001l-339 24l147 -283c3.33301 -8 5 -14.833 5 -20.5s-4.66699 -10.5 -14 -14.5l-145 -67c-2.66699 -1.33301 -6.33398 -2 -11.001 -2c-10 0 -16.333 5.66699 -19 17l-86 318l-231 -235
c-6 -6.66699 -11.833 -10 -17.5 -10s-10.834 3.33301 -15.501 10l-97 124c-4.66699 6.66699 -7 13 -7 19s3 10.667 9 14l277 179l-299 153c-8.66699 4 -13 9.33301 -13 16s2 12.667 6 18l92 128c5.33301 7.33301 11.166 11 17.499 11s12.166 -2.33301 17.499 -7l247 -206
l52 334c2 12 12 18 30 18l138 -54c10.667 -4 16 -10.667 16 -20c0 -2 -0.666992 -5.66699 -2 -11l-108 -296l305 55c11.333 0 18.833 -1.16699 22.5 -3.5s6.5 -8.16602 8.5 -17.499z" />
    <glyph glyph-name="plus" unicode="+" horiz-adv-x="1194" 
d="M165 663c1.33301 12.667 6.66797 18.999 16.001 18.999l322 4l-8 338c0 13.333 6.33301 20.333 19 21l161 -8c13.333 -1.33301 20 -9.33301 20 -24l-10 -325l326 4c12 -1.33301 18 -7.66602 18 -18.999l-3 -161c0 -8 -1.83301 -13.167 -5.5 -15.5
s-9.83398 -3.83301 -18.501 -4.5l-319 10l6 -364c0 -9.33301 -8 -14.666 -24 -15.999l-151 7c-12.667 1.33301 -19 6.66602 -19 15.999l8 356l-314 -13c-8 0 -12.667 8 -14 24z" />
    <glyph glyph-name="comma" unicode="," horiz-adv-x="502" 
d="M127 -281c38 84.667 57.001 146.501 57.001 185.501s-4.33301 67.667 -13 86s-18.667 34.166 -30 47.499c-24.667 29.333 -37 52.833 -37 70.5s6 34.5 18 50.5s26.667 31 44 45c41.333 31.333 77 47 107 47s53.333 -6.5 70 -19.5s29.667 -29.5 39 -49.5
c17.333 -36 26 -75.667 26 -119s-4.33301 -82 -13 -116s-20.334 -66.333 -35.001 -97c-26.667 -58.667 -62 -113 -106 -163z" />
    <glyph glyph-name="hyphen" unicode="-" horiz-adv-x="1194" 
d="M1000 772c10.667 -1.33301 16.001 -7.66699 16.001 -19l-18 -151c-1.33301 -8 -3.5 -13.167 -6.5 -15.5s-8.83301 -3.83301 -17.5 -4.5l-783 -4c-9.33301 0 -14 8 -14 24l10 141c1.33301 12.667 6.66602 19 15.999 19z" />
    <glyph glyph-name="period" unicode="." horiz-adv-x="512" 
d="M415.5 135c3.66699 -20 5.5 -38.668 5.5 -56.001s-5.83301 -33.166 -17.5 -47.499s-27.167 -26.166 -46.5 -35.499c-40 -19.333 -78.667 -29 -116 -29s-63 5.83301 -77 17.5s-25.333 26.167 -34 43.5c-16.667 33.333 -25 66.166 -25 98.499s7.33301 55.833 22 70.5
s32.667 26.334 54 35.001c36.667 14 73.167 21 109.5 21s61.333 -5.83301 75 -17.5s24.5 -26.334 32.5 -44.001s13.833 -36.5 17.5 -56.5z" />
    <glyph glyph-name="slash" unicode="/" horiz-adv-x="682" 
d="M658 1704c10 -3.33301 15 -8.99902 15 -16.999c0 -2 -0.666992 -5.66699 -2 -11l-501 -2117c-2 -9.33301 -8 -14 -18 -14c-4 0 -7.33301 0.333008 -10 1l-126 31c-10.667 2.66699 -16 9.66699 -16 21c-0 3.33301 0.333008 5.66602 1 6.99902l496 2115
c2 11.333 8.66699 17 20 17c2.66699 0 5 -0.333008 7 -1z" />
    <glyph glyph-name="zero" unicode="0" horiz-adv-x="1194" 
d="M168 391c-17.333 89.333 -25.999 181.832 -25.999 277.499s2 178.834 6 249.501s11.833 137.167 23.5 199.5s28.167 119.333 49.5 171s49.666 96.167 84.999 133.5c73.333 78.667 180.333 118 321 118c282.667 0 424 -245.667 424 -737c0 -282 -34.333 -487 -103 -615
c-74 -138.667 -199.667 -208 -377 -208c-214 0 -348.333 137 -403 411zM601.001 201.999c50 0 89.835 14.833 119.502 44.5s52.167 72.167 67.5 127.5c24.667 88 37 241.333 37 460c0 174 -15.667 296.333 -47 367c-32.667 75.333 -92.334 113 -179.001 113
c-48 0 -87.333 -9.16699 -118 -27.5s-54.334 -50.833 -71.001 -97.5c-30 -81.333 -45 -245.333 -45 -492c0 -168 14.667 -288.333 44 -361c36 -89.333 100 -134 192 -134z" />
    <glyph glyph-name="one" unicode="1" horiz-adv-x="1194" 
d="M199 201c0 12.667 5.33203 19.001 15.999 19.001l317 -22v1038l-311 -40c-7.33301 0 -12.166 1.66699 -14.499 5s-4.16602 9 -5.49902 17l-15 125c0 13.333 7.66699 23 23 29l364 149c12.667 5.33301 24.667 8.66602 36 9.99902l149 -14c12 -1.33301 18 -9 18 -23
l-17 -214l-12 -1081l275 21c9.33301 0 14.666 -6.33301 15.999 -19l10 -181c0 -16 -4.66699 -24 -14 -24l-803 14c-14.667 0 -22.667 6.66699 -24 20z" />
    <glyph glyph-name="two" unicode="2" horiz-adv-x="1194" 
d="M816 1166c0 111.333 -71.3398 166.999 -214.007 166.999c-75.333 0 -149 -18.667 -221 -56l12 -164c0 -8.66699 -1 -15 -3 -19s-8 -6.33301 -18 -7l-188 14c-9.33301 1.33301 -14.666 9 -15.999 23l-20 370c0.666992 16 10.667 26.667 30 32
c6.66699 2 17.334 4.33301 32.001 7l44 9c36.667 6.66699 60.334 10 71.001 10c24 0 37.333 -10.667 40 -32l4 -66c102.667 53.333 192.834 80 270.501 80s141.167 -7.33301 190.5 -22s91 -36.667 125 -66c70 -61.333 105 -150 105 -266
c0 -89.333 -12.667 -162.833 -38 -220.5s-53.666 -109.5 -84.999 -155.5s-71.166 -98 -119.499 -156s-106.166 -123.333 -173.499 -196l-234 -252l453 29l-2 105c0 12 4 21.5 12 28.5s18 10.5 30 10.5l150 -13c10.667 -1.33301 18.5 -3.83301 23.5 -7.5
s7.83301 -11.167 8.5 -22.5l-39 -382c-2.66699 -15.333 -9.66699 -23 -21 -23l-168 4c-14.667 0 -22 8.66699 -22 26l11 65l-651 -8c-9.33301 0 -15.333 8 -18 24l-24 173c0 10.667 5.33301 20.667 16 30l247 249c239.333 252.667 370 446 392 580
c5.33301 32.667 8 65.334 8 98.001z" />
    <glyph glyph-name="three" unicode="3" horiz-adv-x="1194" 
d="M760 808c228.667 -39.333 343.001 -162.332 343.001 -368.999c0 -131.333 -47.667 -238.333 -143 -321c-91.333 -80 -205 -120 -341 -120c-91.333 0 -172.333 10 -243 30l7 -60c0 -10.667 -7.66699 -16.667 -23 -18l-152 -15c-18.667 0 -30.167 3.33301 -34.5 10
s-6.83301 16.334 -7.5 29.001l-8 347c0 12 8 19.333 24 22l136 18c11.333 0 18.333 -7.66699 21 -23l16 -138c76.667 -16 144.667 -24 204 -24s105.833 5.5 139.5 16.5s63.167 27.5 88.5 49.5c54.667 47.333 82 113 82 197c0 81.333 -24 143 -72 185
c-38 34 -83.333 51 -136 51c-42.667 0 -88.667 -5.66699 -138 -17c-72.667 -16 -113.334 -24 -122.001 -24c-19.333 0 -29.666 7.66699 -30.999 23l-14 145c1.33301 20 11.333 30.667 30 32c135.333 7.33301 239 43.333 311 108c62.667 55.333 94 123.666 94 204.999
c0 92 -36.333 150.333 -109 175c-22.667 8 -47 12 -73 12c-78.667 0 -155.667 -23.333 -231 -70l9 -121c-0.666992 -8.66699 -1.83398 -14.834 -3.50098 -18.501s-7.5 -6.16699 -17.5 -7.5l-178 -16c-9.33301 0 -14.666 7.66699 -15.999 23l20 400
c1.33301 20 11.333 30.667 30 32l139 -4c23.333 -1.33301 36 -12 38 -32l-10 -71c102 58.667 209.333 88 322 88c96.667 0 173.667 -33 231 -99c54.667 -64 82 -146.667 82 -248c0 -122.667 -49.333 -223.667 -148 -303c-32.667 -26.667 -71.334 -53 -116.001 -79z" />
    <glyph glyph-name="four" unicode="4" horiz-adv-x="1194" 
d="M1115 484c-1.33301 -13.333 -9.33203 -20.001 -23.999 -20.001l-196 -2v-273l140 -3c15.333 0 23.333 -6.66699 24 -20l8 -151c0 -12.667 -5.33301 -19 -16 -19h-583c-12.667 0 -19.334 6.33301 -20.001 19l-10 161c0 16 4.66699 24 14 24l221 -6l6 266l-498 -4
c-26.667 0 -44 9.33301 -52 28l-45 102c-3.33301 8.66699 -5 16 -5 22s5.66699 23.333 17 52l183 420c134 294 204.333 447.333 211 460s12 20.5 16 23.5s10.667 4.5 20 4.5l215 -50c10 -2 15.333 -6.66699 16 -14s-6.5 -26.666 -21.5 -57.999s-35.167 -71.333 -60.5 -120
l-292 -544l-95 -169l395 14l8 334c0 15.333 8.33301 23 25 23l202 3c13.333 -2.66699 20 -10 20 -22l-39 -331l192 7c10.667 0 16 -6.33301 16 -19z" />
    <glyph glyph-name="five" unicode="5" horiz-adv-x="1194" 
d="M189 -65c-26.667 0 -40.666 13.001 -41.999 39.001l12 337c0 13.333 8 20.666 24 21.999l126 8c14 0 21 -7.66699 21 -23l1 -107c80.667 -16.667 165.5 -25 254.5 -25s157 23.167 204 69.5s70.5 116.5 70.5 210.5c0 84 -20.667 148.667 -62 194
c-39.333 43.333 -87.333 65 -144 65c-85.333 0 -153 -4.33301 -203 -13c-72 -13.333 -112.667 -20 -122 -20c-12.667 0 -24 7.66699 -34 23l-93 133l99 635c3.33301 20.667 12.666 31 27.999 31l505 -27v45c0 15.333 7.33301 24 22 26l128 14
c12.667 0 19.667 -7.66699 21 -23l14 -350c-0.666992 -10.667 -8.33398 -16.667 -23.001 -18l-142 -15c-28 0 -42 13 -42 39l10 95h-350l-57 -430c106 32 194.167 48 264.5 48s130.333 -10.333 180 -31s90.834 -50.334 123.501 -89.001
c64.667 -77.333 97 -186.666 97 -327.999c0 -156 -42.333 -274 -127 -354c-77.333 -72.667 -186 -109 -326 -109c-90.667 0 -155.167 4.33301 -193.5 13s-67.833 16 -88.5 22l9 -74c0 -10.667 -7.66699 -16.667 -23 -18z" />
    <glyph glyph-name="six" unicode="6" horiz-adv-x="1194" 
d="M619 1548c50 0 101.334 -8.99902 154.001 -26.999l131 49c25.333 0 39.333 -13 42 -39l38 -337c0 -15.333 -7.33301 -24 -22 -26l-178 -34c-12.667 0 -19.667 7.66699 -21 23l-9 217c-20 5.33301 -51.833 8 -95.5 8s-85.667 -10.5 -126 -31.5
s-71.833 -52.833 -94.5 -95.5c-40.667 -74.667 -63 -202.334 -67 -383.001c91.333 32 186.333 48 285 48c221.333 0 356 -93.667 404 -281c11.333 -44 17 -102.333 17 -175s-11.833 -141.5 -35.5 -206.5s-56.834 -118.833 -99.501 -161.5
c-83.333 -85.333 -196.666 -128 -339.999 -128c-168.667 0 -291.334 64 -368.001 192c-73.333 124 -110 316.667 -110 578c0 540 165 810 495 810zM718.001 726.001c-27.333 6 -69.166 9 -125.499 9s-130.5 -10.333 -222.5 -31c1.33301 -198 18.666 -335.333 51.999 -412
c34 -80.667 94 -121 180 -121c172 0 258 98 258 294c0 155.333 -47.333 242.333 -142 261z" />
    <glyph glyph-name="seven" unicode="7" horiz-adv-x="1194" 
d="M153 1049c-11.333 1.33301 -18.3311 9.33496 -20.998 24.002l9 469c0 12 7.66699 18 23 18l164 -20c13.333 -2.66699 20 -10.334 20 -23.001v-29l731 27c19.333 -0.666992 29.666 -12.334 30.999 -35.001l-4 -130l-510 -1339c-6 -13.333 -14.667 -20.666 -26 -21.999
l-232 20c-10.667 0.666992 -16.334 7 -17.001 19c0 8.66699 16.333 50.667 49 126l532 1167h-553l1 -240c0 -12.667 -8 -19.334 -24 -20.001z" />
    <glyph glyph-name="eight" unicode="8" horiz-adv-x="1194" 
d="M991.5 1358c24.333 -47.333 36.498 -99.3359 36.498 -156.003s-5.16699 -103.167 -15.5 -139.5s-25.166 -70.5 -44.499 -102.5c-30.667 -51.333 -82.667 -110.666 -156 -177.999c94 -59.333 160 -116.666 198 -171.999c40 -58.667 60 -127 60 -205
s-10.833 -142.667 -32.5 -194s-52.5 -94.333 -92.5 -129c-79.333 -68 -191.666 -102 -336.999 -102c-135.333 0 -245.333 31.333 -330 94c-96 71.333 -144 173.333 -144 306c0 134 47 250.333 141 349c27.333 28.667 56 56.667 86 84c-124 94 -186 207.667 -186 341
c0 126.667 41.667 227.334 125 302.001c77.333 69.333 175.333 104 294 104c122 0 222 -28.667 300 -86c40.667 -30 73.167 -68.667 97.5 -116zM486.998 727.997c-89.333 -98.667 -134.002 -197.999 -134.002 -297.999c0 -80 25.333 -142 76 -186
c48.667 -42.667 113 -64 193 -64c103.333 0 171.333 39.333 204 118c10.667 25.333 16 55.166 16 89.499s-5.66699 63.833 -17 88.5s-30.666 49 -57.999 73s-63.666 49.667 -108.999 77zM401.996 1251c-13.333 -24.667 -20.002 -51.166 -20.002 -79.499
s4.33301 -53.5 13 -75.5s24.334 -45 47.001 -69c46.667 -48 129.334 -105.333 248.001 -172c46.667 47.333 79 86.666 97 117.999c32.667 58.667 49 119 49 181c0 59.333 -21.333 108 -64 146c-40.667 37.333 -91.667 56 -153 56c-106.667 0 -179 -35 -217 -105z" />
    <glyph glyph-name="nine" unicode="9" horiz-adv-x="1194" 
d="M209 -51c-25.333 0 -39.333 13 -42 39l32 337c2 16 9.33301 24.667 22 26l138 10c11.333 0 18.333 -7.66699 21 -23l21 -198c46 -8 95.5 -12 148.5 -12s98.167 10.667 135.5 32s66.333 54 87 98c36 73.333 56 207 60 401c-88.667 -33.333 -183.667 -50 -285 -50
c-224 0 -360 93 -408 279c-11.333 43.333 -17 102.333 -17 177s13 145 39 211s61 120 105 162c86 82 198.667 123 338 123c160.667 0 278.5 -61.167 353.5 -183.5s112.5 -307.5 112.5 -555.5c0 -428 -80 -696 -240 -804c-56 -37.333 -128 -56 -216 -56
s-161.667 7.66699 -221 23zM488 800c27.333 -6.66699 67.167 -10.001 119.5 -10.001s127.833 12.333 226.5 37v28c0 180.667 -18 308.334 -54 383.001c-38 79.333 -105.667 119 -203 119c-152.667 0 -229 -94.667 -229 -284c0 -158 46.667 -249 140 -273z" />
    <glyph glyph-name="colon" unicode=":" horiz-adv-x="512" 
d="M415.5 135c3.66699 -20 5.5 -38.668 5.5 -56.001s-5.83301 -33.166 -17.5 -47.499s-27.167 -26.166 -46.5 -35.499c-40 -19.333 -78.667 -29 -116 -29s-63 5.83301 -77 17.5s-25.333 26.167 -34 43.5c-16.667 33.333 -25 66.166 -25 98.499s7.33301 55.833 22 70.5
s32.667 26.334 54 35.001c36.667 14 73.167 21 109.5 21s61.333 -5.83301 75 -17.5s24.5 -26.334 32.5 -44.001s13.833 -36.5 17.5 -56.5zM415.5 901.999c3.66699 -20 5.5 -38.667 5.5 -56s-5.83301 -33.166 -17.5 -47.499s-27.167 -26.166 -46.5 -35.499
c-40 -19.333 -78.667 -29 -116 -29s-63 5.83301 -77 17.5s-25.333 26.167 -34 43.5c-16.667 33.333 -25 66.166 -25 98.499s7.33301 55.833 22 70.5s32.667 26 54 34c36.667 14.667 73.167 22 109.5 22s61.333 -5.83301 75 -17.5s24.5 -26.334 32.5 -44.001
s13.833 -36.5 17.5 -56.5z" />
    <glyph glyph-name="semicolon" unicode=";" horiz-adv-x="512" 
d="M149 -281c38 84.667 57.001 146.501 57.001 185.501s-4.33301 67.667 -13 86s-18.667 34.166 -30 47.499c-24.667 29.333 -37 52.833 -37 70.5s6 34.5 18 50.5s26.667 31 44 45c41.333 31.333 77 47 107 47s53.333 -6.5 70 -19.5s29.667 -29.5 39 -49.5
c17.333 -36 26 -75.667 26 -119s-4.33301 -82 -13 -116s-20.334 -66.333 -35.001 -97c-26.667 -58.667 -62 -113 -106 -163zM415.501 902.001c3.66699 -20 5.5 -38.667 5.5 -56s-5.83301 -33.166 -17.5 -47.499s-27.167 -26.166 -46.5 -35.499
c-40 -19.333 -78.667 -29 -116 -29s-63 5.83301 -77 17.5s-25.333 26.167 -34 43.5c-16.667 33.333 -25 66.166 -25 98.499s7.33301 55.833 22 70.5s32.667 26 54 34c36.667 14.667 73.167 22 109.5 22s61.333 -5.83301 75 -17.5s24.5 -26.334 32.5 -44.001
s13.833 -36.5 17.5 -56.5z" />
    <glyph glyph-name="less" unicode="&#x3c;" horiz-adv-x="1194" 
d="M249 490c-15.333 9.33301 -23.668 21.002 -25.001 35.002l-8 96c1.33301 14.667 7 25 17 31l613 372c5.33301 4 10.333 6 15 6c10 0 17 -2.66699 21 -8l88 -137c4 -6 6 -11 6 -15s-2 -7.33301 -6 -10l-537 -283l538 -273c4 -2.66699 6 -6.33398 6 -11.001
s-2 -10.334 -6 -17.001l-84 -142c-2.66699 -4.66699 -6.16699 -7 -10.5 -7s-9.16602 1.66699 -14.499 5z" />
    <glyph glyph-name="equal" unicode="=" horiz-adv-x="1194" 
d="M995 852c9.33301 0 14.667 -6.33301 16 -19v-141c0 -16 -5.66699 -24 -17 -24l-398 12l-382 -8c-8.66699 0.666992 -14.667 2.16699 -18 4.5s-5.33301 7.5 -6 15.5l-8 151c0 12.667 6 19 18 19zM198.001 278c-9.33301 0 -14.667 6.33203 -16 18.999v141
c0 16 6.33301 24 19 24l412 -12l366 8c8.66699 -0.666992 14.667 -2.16699 18 -4.5s5.33301 -7.5 6 -15.5l8 -151c0 -11.333 -5.33301 -17.666 -16 -18.999z" />
    <glyph glyph-name="greater" unicode="&#x3e;" horiz-adv-x="1194" 
d="M945 666c15.333 -9.33301 23.668 -20.999 25.001 -34.999l8 -96c-1.33301 -14.667 -7 -25 -17 -31l-613 -372c-5.33301 -4 -10.333 -6 -15 -6c-10 0 -17 2.66699 -21 8l-88 137c-4 6 -6 11 -6 15s2 7.33301 6 10l537 283l-538 273c-4 2.66699 -6 6.16699 -6 10.5
s2 10.166 6 17.499l84 142c2.66699 4.66699 6.16699 7 10.5 7s9.16602 -1.66699 14.499 -5z" />
    <glyph glyph-name="question" unicode="?" horiz-adv-x="1023" 
d="M86 1091c-9.33301 0 -14.6641 7.66797 -15.9971 23.001l20 390c2 21.333 12 32 30 32l149 -4c23.333 -1.33301 36 -12 38 -32l-2 -60c106.667 56 213 84 319 84c170.667 0 279.334 -61 326.001 -183c15.333 -41.333 23 -86.833 23 -136.5s-6 -95 -18 -136
s-27.833 -81 -47.5 -120s-42.167 -77.167 -67.5 -114.5l-188 -262c-34.667 -50.667 -57.834 -90.834 -69.501 -120.501s-19 -46.334 -22 -50.001s-8.16699 -5.5 -15.5 -5.5l-156 23c-8.66699 0.666992 -13 5.66699 -13 15s3.33301 27.333 10 54
c16 61.333 63.333 149 142 263l76 113c90 134.667 135 239.334 135 314.001c0 67.333 -33.333 112 -100 134c-20.667 7.33301 -44.334 11 -71.001 11s-51.834 -1.66699 -75.501 -5s-46.167 -8 -67.5 -14c-34 -9.33301 -76 -27 -126 -53l-4 -128
c-0.666992 -8.66699 -1.83398 -15 -3.50098 -19s-7.5 -6.33301 -17.5 -7zM640.502 135.001c3.66699 -20 5.5 -38.668 5.5 -56.001s-5.83301 -33.166 -17.5 -47.499s-27.167 -26.166 -46.5 -35.499c-40 -19.333 -78.667 -29 -116 -29s-63 5.83301 -77 17.5
s-25.333 26.167 -34 43.5c-16.667 33.333 -25 66.166 -25 98.499s7.33301 55.833 22 70.5s32.667 26.334 54 35.001c36.667 14 73.167 21 109.5 21s61.333 -5.83301 75 -17.5s24.5 -26.334 32.5 -44.001s13.833 -36.5 17.5 -56.5z" />
    <glyph glyph-name="at" unicode="@" horiz-adv-x="2042" 
d="M1250 140c-77.333 -110.667 -181.67 -166.001 -313.003 -166.001c-168.667 0 -276.334 92.333 -323.001 277c-15.333 59.333 -23 135.833 -23 229.5s9.16699 184 27.5 271s45.5 160.5 81.5 220.5c73.333 121.333 179 182 317 182c92 0 168.333 -27.333 229 -82
c-1.33301 41.333 -3.66602 75.333 -6.99902 102c0 14 8 21 24 21l170 -31c12 -2 18 -9.66699 18 -23c-12.667 -123.333 -22.334 -224 -29.001 -302l-18 -189c-14 -158.667 -21 -274.667 -21 -348c0 -36.667 10.833 -65 32.5 -85s48.334 -30 80.001 -30s61.5 14.333 89.5 43
s52.333 70 73 124c45.333 116 68 270 68 462c0 387.333 -208.667 581 -626 581c-262.667 0 -457.667 -78.5 -585 -235.5s-191 -395.167 -191 -714.5c0 -251.333 55.333 -433 166 -545c106.667 -108 282.667 -162 528 -162s498 59.333 758 178
c8.66699 0 14.334 -1.16699 17.001 -3.5s4.66699 -7.16602 6 -14.499l31 -180c0 -12.667 -6.66699 -22 -20 -28c-210.667 -80 -412.667 -129.667 -606 -149c-74 -7.33301 -162.667 -11 -266 -11s-205.833 17 -307.5 51s-189.167 87.667 -262.5 161
c-153.333 153.333 -230 384.666 -230 693.999c0 362.667 83.333 645 250 847c170 206.667 412 310 726 310c380.667 0 625.334 -141.333 734.001 -424c36.667 -95.333 55 -208.833 55 -340.5s-9.33301 -249.667 -28 -354s-45.667 -192.166 -81 -263.499
c-73.333 -145.333 -177.333 -218 -312 -218c-103.333 0 -180.666 48.333 -231.999 145zM873.496 209.999c21 -14.667 49.499 -21.999 85.499 -21.999s67.5 8.33301 94.5 25s50 38.667 69 66s34.333 58.5 46 93.5s20.834 70.833 27.501 107.5c12 62 18 124.333 18 187
s-4 110.667 -12 144s-20 60.333 -36 81c-29.333 38 -70.333 57 -123 57s-93.5 -10.667 -122.5 -32s-52.5 -52.333 -70.5 -93c-35.333 -77.333 -53 -195 -53 -353c0 -92 7.5 -154.833 22.5 -188.5s33 -57.834 54 -72.501z" />
    <glyph glyph-name="A" unicode="A" 
d="M56 2c-14.667 1.33301 -22 12.001 -22 32.001v167c0 10.667 2.16699 18 6.5 22s12.166 6.33301 23.499 7l92 -4l396 1284c4 12.667 12 19.667 24 21l227 8c12 -0.666992 20.333 -8.33398 25 -23.001l432 -1283l91 3c18.667 -1.33301 28 -12 28 -32v-158
c0 -11.333 -2.33301 -18.666 -7 -21.999s-12.667 -5 -24 -5h-463c-12 0 -19 2.66699 -21 8s-3 12.666 -3 21.999l20 146c1.33301 11.333 4 18.833 8 22.5s11.333 5.5 22 5.5l114 3l-86 266l-495 10l-81 -290l121 12c8 0 13.5 -1.66699 16.5 -5s5.16699 -9.33301 6.5 -18
l15 -152c-1.33301 -11.333 -4.16602 -19 -8.49902 -23s-11.5 -6.33301 -21.5 -7zM491 672.001h389l-210 643z" />
    <glyph glyph-name="B" unicode="B" 
d="M953 795c210 -43.333 314.997 -163.999 314.997 -361.999c0 -235.333 -112 -377 -336 -425c-73.333 -15.333 -144.666 -23 -213.999 -23s-129.666 1.16699 -180.999 3.5s-101.666 5.5 -150.999 9.5c-166 13.333 -253.333 26.666 -262 39.999
c-3.33301 5.33301 -5.33301 12 -6 20l9 147c1.33301 18.667 12 28 32 28s59.667 -4 119 -12v1099c-53.333 -3.33301 -91.5 -5 -114.5 -5s-35.167 9.33301 -36.5 28l-9 140c1.33301 18 9.33301 28.333 24 31c154 27.333 321.667 41 503 41c355.333 0 533 -139.667 533 -419
c0 -137.333 -43.333 -235.333 -130 -294c-28 -19.333 -59.667 -35 -95 -47zM501.997 195.001c60 -3.33301 116 -5.00098 168 -5.00098s101.5 2.83301 148.5 8.5s87.5 16.834 121.5 33.501c72 36 108 102.333 108 199c0 134.667 -71.333 211 -214 229
c-42 5.33301 -92.5 8 -151.5 8s-119.167 -3 -180.5 -9v-464zM770.997 1342c-36.667 6 -75.999 9 -117.999 9s-92.333 -3 -151 -9v-487c19.333 -1.33301 38.666 -2 57.999 -2h59c109.333 0 190.333 17 243 51c62 39.333 93 108.333 93 207c0 134 -61.333 211 -184 231z" />
    <glyph glyph-name="C" unicode="C" 
d="M1173 1530c26.667 0 40.666 -13.002 41.999 -39.002l-12 -436c0 -17.333 -7.33301 -26 -22 -26l-168 -4c-12.667 0 -19.667 7.66699 -21 23l-21 257c-81.333 20 -156.333 30 -225 30s-126.667 -10.167 -174 -30.5s-86.333 -53.166 -117 -98.499
c-59.333 -88 -89 -235 -89 -441c0 -311.333 75.333 -497.666 226 -558.999c49.333 -20 109.333 -30 180 -30s145.334 12.667 224.001 38l-5 134c1.33301 12 9.33301 19.333 24 22l166 28c11.333 0 18.333 -7.66699 21 -23l40 -390c0 -10.667 -7.66699 -16.667 -23 -18
l-172 -15c-26.667 0 -40.667 13 -42 39l-2 42c-92.667 -49.333 -190.5 -74 -293.5 -74s-189.667 17.667 -260 53s-129.166 87.333 -176.499 156c-95.333 139.333 -143 342 -143 608c0 264 53.333 460 160 588c97.333 117.333 236.333 176 417 176
c113.333 0 208.666 -12.667 285.999 -38z" />
    <glyph glyph-name="D" unicode="D" 
d="M246 1313c-40.667 -2.66699 -87.668 -6.66406 -141.001 -11.9971c-7.33301 0 -12 1.66699 -14 5s-3.33301 9 -4 17l-14 186c0.666992 8 2.83398 13.167 6.50098 15.5s9.5 4.16602 17.5 5.49902c66 1.33301 123.5 2.66602 172.5 3.99902s91.667 2.33301 128 3
s67.333 1.16699 93 1.5s48 0.666016 67 0.999023s35.833 0.5 50.5 0.5h42c198.667 0 346 -52 442 -156c111.333 -120 167 -319.333 167 -598c0 -263.333 -56.333 -465.333 -169 -606c-107.333 -132.667 -255.666 -199 -444.999 -199c-198.667 0 -380 8.33301 -544 25
c-11.333 0.666992 -17.333 8.66699 -18 24l12 177c1.33301 10.667 6.66602 17 15.999 19l109 -8zM452.999 205.003c56 -4 96.668 -6 122.001 -6h64c135.333 0 234.833 47 298.5 141s95.5 234.333 95.5 421c0 309.333 -74.333 492 -223 548c-48 18 -91.333 27 -130 27
c-66.667 0 -138.334 -2.33301 -215.001 -7z" />
    <glyph glyph-name="E" unicode="E" 
d="M1272 -41c-2.66699 -15.333 -9.66699 -23 -21 -23l-188 4c-14.667 0 -22 8.66699 -22 26l-2 61l-893 -25c-15.333 0 -23.333 8 -24 24l6 184c0 10 5.33301 16.333 16 19l125 -17l-8 1089l-126 -11c-12 0 -18 7.33301 -18 22l11 182c1.33301 12.667 9.33301 19.667 24 21
l999 38c20 -1.33301 30 -10.333 30 -27l-20 -365c0 -15.333 -5.33301 -23 -16 -23l-168 6c-9.33301 0.666992 -15 3 -17 7s-3.33301 10.333 -4 19l-6 172l-473 -25l7 -466l491 31c16.667 0 25.667 -7.66699 27 -23l7 -168c-1.33301 -15.333 -8.33301 -23 -21 -23l-502 -7
l7 -457l540 18l-4 131c1.33301 24.667 15.333 37.667 42 39l162 -5c15.333 -1.33301 23 -7.33301 23 -18z" />
    <glyph glyph-name="F" unicode="F" horiz-adv-x="1195" 
d="M123 1311c-9.33301 2 -14.666 8.33496 -15.999 19.002l14 184c0.666992 16 6.66699 24 18 24l732 -17l-1 53c0 15.333 7.33301 24 22 26l158 14c11.333 0 18.333 -7.66699 21 -23l54 -420c0 -10.667 -7.66699 -16.667 -23 -18l-182 -15c-26.667 0 -40.667 13 -42 39
l-3 138l-393 11l-7 -476l516 2c12 0 18 -6.33301 18 -19l-7 -162c-1.33301 -15.333 -10.333 -23 -27 -23l-503 13l-6 -448l258 15c14 0 21.667 -7.33301 23 -22l11 -176c-0.666992 -8.66699 -2 -14.667 -4 -18s-6.66699 -5 -14 -5l-599 -12
c-8 1.33301 -13.833 3.16602 -17.5 5.49902s-5.83398 7.5 -6.50098 15.5l-11 182c0 13.333 6 20.666 18 21.999l126 -6l8 1108z" />
    <glyph glyph-name="G" unicode="G" 
d="M729 596c-15.333 2.66699 -23.002 9.66699 -23.002 21l4 178c0 13.333 8.66699 20.666 26 21.999l487 32c24.667 -1.33301 37.667 -15.333 39 -42l-5 -172c0 -7.33301 -2 -13 -6 -17s-8 -6 -12 -6l-52 -2l18 -595c-1.33301 -18.667 -10 -28 -26 -28
c-37.333 0 -100.333 23 -189 69c-90 -52 -187.167 -78 -291.5 -78s-193.166 15.5 -266.499 46.5s-134.666 79.5 -183.999 145.5c-101.333 133.333 -152 340 -152 620c0 390.667 110 627.334 330 710.001c70 26.667 148.333 40 235 40c124 0 225.667 -32.333 305 -97l20 121
c2 16.667 9.33301 25.334 22 26.001l157 14c16 0 24 -7.66699 24 -23l11 -366c0 -12.667 -6.66699 -20 -20 -22l-190 -26c-40.667 54 -76.667 90.667 -108 110c-56 34.667 -113.667 52 -173 52s-113.5 -8.33301 -162.5 -25s-90.833 -45.667 -125.5 -87
c-72.667 -86.667 -109 -230.334 -109 -431.001c0 -323.333 81.333 -512.333 244 -567c51.333 -17.333 114 -26 188 -26s151.667 14.667 233 44l-5 366z" />
    <glyph glyph-name="H" unicode="H" horiz-adv-x="1538" 
d="M664 240c10.667 0 15.999 -6.33203 15.999 -18.999l-13 -188c-1.33301 -13.333 -9.33301 -20 -24 -20l-464 -7c-11.333 0 -17.333 8 -18 24l2 177c0 10 5.33301 16.333 16 19l107 -3v1081l-133 -1c-7.33301 0 -12 1.66699 -14 5s-3.33301 9 -4 17l-9 176
c0.666992 8 2.83398 13.167 6.50098 15.5s9.5 4.16602 17.5 5.49902l499 -8c12 -1.33301 18 -9 18 -23l-4 -176c0 -14.667 -7.66699 -22 -23 -22l-131 7l-1 -442l542 7v457l-137 4c-7.33301 0 -12 1.66699 -14 5s-3.33301 9 -4 17l6 166c1.33301 14 9.33301 21 24 21l467 2
c7.33301 -0.666992 12 -2.5 14 -5.5s3.33301 -8.83301 4 -17.5l13 -179c0 -14.667 -7.66699 -22 -23 -22l-127 3l-3 -1111l154 5c10.667 0 16 -6.33301 16 -19l-13 -178c-1.33301 -13.333 -9.33301 -20 -24 -20l-474 13c-11.333 0 -17.333 8 -18 24l2 167
c0 10 5.33301 16.333 16 19l121 -9v456l-543 -4l-1 -430z" />
    <glyph glyph-name="I" unicode="I" horiz-adv-x="682" 
d="M585 210c10.667 0 16 -6.33203 16 -18.999l-3 -178c0 -13.333 -8 -20 -24 -20l-464 13c-11.333 0 -17.333 8 -18 24l-8 177c1.33301 10.667 6.66602 17 15.999 19l139 -10l-8 1089l-137 1c-12 0 -18 7.33301 -18 22l16 176c0.666992 8 2.83398 13.167 6.50098 15.5
s9.5 4.16602 17.5 5.49902l467 -18c7.33301 -0.666992 12 -2.5 14 -5.5s3.33301 -8.83301 4 -17.5l-7 -159c-1.33301 -14.667 -9 -22 -23 -22h-117l-3 -1093h134z" />
    <glyph glyph-name="J" unicode="J" horiz-adv-x="852" 
d="M679 1315c28.667 -323.333 43.002 -642.668 43.002 -958.001c0 -164 -29.667 -279.667 -89 -347c-57.333 -66 -154.333 -99 -291 -99c-11.333 0 -22.333 0.666992 -33 2l-33 4l8 -54c0 -10.667 -7.66699 -16.667 -23 -18l-153 -15c-25.333 0 -39.333 13 -42 39l-28 437
c1.33301 15.333 8.66602 24 21.999 26l139 14c11.333 0 18.333 -7.66699 21 -23l31 -228c18 -5.33301 41.167 -8 69.5 -8s55.166 6 80.499 18s45.666 31 60.999 57c29.333 50.667 44 135.334 44 254.001c0 165.333 -6 333 -18 503l-28 391l-207 -12
c-10.667 0 -16 6.33301 -16 19l-7 188c0.666992 8 2.66699 13.167 6 15.5s9.33301 3.83301 18 4.5l562 17c10.667 0 16.667 -8 18 -24l8 -187c-1.33301 -10.667 -6.66602 -17 -15.999 -19z" />
    <glyph glyph-name="K" unicode="K" 
d="M854 1316c-12 0 -17.998 7.33203 -17.998 21.999l16 186c0.666992 11.333 8.66699 18.333 24 21l417 -8c12 -1.33301 18 -9 18 -23l3 -179c0 -14.667 -7.66699 -22 -23 -22l-111 1l-410 -582l374 -510l172 -12c22 -1.33301 33 -12.666 33 -33.999l1 -147
c0 -28.667 -12.333 -43.667 -37 -45l-262 -7c-14.667 1.33301 -26.334 8 -35.001 20l-414 633l-121 -4v-406h104c10.667 0 16 -6.33301 16 -19l7 -188c-1.33301 -13.333 -9.33301 -20 -24 -20l-464 3c-11.333 0 -17.333 8 -18 24l-8 197
c1.33301 10.667 6.66602 17 15.999 19l147 -9v1093l-143 -14c-7.33301 0 -12 1.66699 -14 5s-3.33301 9 -4 17l-14 196c1.33301 14 9.33301 21 24 21l477 2c7.33301 -0.666992 12 -2.5 14 -5.5s3.33301 -8.83301 4 -17.5l-17 -189c-2 -14.667 -9.66699 -22 -23 -22l-80 5
v-520l126 8l339 509z" />
    <glyph glyph-name="L" unicode="L" horiz-adv-x="1195" 
d="M969 -43c-11.333 0 -18.333 7.66602 -21 22.999l-5 48l-843 -35c-11.333 0 -17.333 8 -18 24l16 174c1.33301 10.667 6.66602 17 15.999 19l138 -6l9 1100l-136 -13c-7.33301 0 -12 1.66699 -14 5s-3.33301 9 -4 17l-9 180c0.666992 15.333 8.66699 23 24 23l485 8
c12.667 -1.33301 20 -9 22 -23l19 -176c0 -9.33301 -2.16699 -15.166 -6.5 -17.499s-9.83301 -3.83301 -16.5 -4.5l-146 5l-3 -1099l446 23l-18 175c0 12.667 7.66699 19.667 23 21l162 15c26.667 0 40.667 -13 42 -39l18 -397c-1.33301 -15.333 -8.66602 -24 -21.999 -26z
" />
    <glyph glyph-name="M" unicode="M" horiz-adv-x="1872" 
d="M1369 3c-14.667 0 -22.6641 6.66602 -23.9971 19.999l7 168c1.33301 12.667 6.66602 19 15.999 19h69l-60 1127l-319 -1327c-2.66699 -13.333 -10.667 -20 -24 -20l-212 -3c-12 0 -19.667 7.33301 -23 22l-331 1282l-29 -1075l92 4c8.66699 0 14 -6.33301 16 -19l17 -178
c-1.33301 -13.333 -9.33301 -20 -24 -20l-434 -7c-11.333 0 -17.333 8 -18 24l12 187c1.33301 10.667 6.66602 17 15.999 19l132 -12l59 1081l-124 -12c-13.333 0 -20.333 7.33301 -21 22l-9 186c1.33301 12.667 9.33301 19.667 24 21l410 22
c19.333 0 31.666 -9.33301 36.999 -28l318 -1268l316 1259c4 18.667 16.333 28 37 28l393 -3c8 -1.33301 13.833 -3.16602 17.5 -5.49902s5.83398 -7.5 6.50098 -15.5l11 -196c-1.33301 -8 -2.83301 -13.667 -4.5 -17s-6.16699 -5 -13.5 -5l-123 1l68 -1071l133 3
c9.33301 -2 14.666 -8.33301 15.999 -19l-18 -167c-2.66699 -16 -8.66699 -24 -18 -24z" />
    <glyph glyph-name="N" unicode="N" horiz-adv-x="1536" 
d="M1472 1325c0 -14.667 -7.66309 -22.001 -22.9961 -22.001l-127 3l-2 -1267c0 -18 -8 -27.667 -24 -29l-242 -13c-8.66699 0 -16.334 7.33301 -23.001 22l-589 1305l24 -1094l157 10c9.33301 0 14.666 -6.33301 15.999 -19l17 -198c-1.33301 -13.333 -9.33301 -20 -24 -20
l-484 3c-9.33301 0 -15.333 8 -18 24l-18 167c1.33301 12.667 6.66602 19 15.999 19l157 4v1081l-183 -8c-7.33301 0.666992 -11.833 2.5 -13.5 5.5s-3.16699 8.5 -4.5 16.5l11 176c1.33301 12.667 9.33301 19.667 24 21l440 22
c17.333 -1.33301 29.666 -10.666 36.999 -27.999l567 -1274l-26 1079l-155 5c-7.33301 0 -12 1.66699 -14 5s-3.33301 9 -4 17l6 166c1.33301 14 9.33301 21 24 21l447 2c7.33301 -0.666992 12 -2.5 14 -5.5s3.33301 -8.83301 4 -17.5z" />
    <glyph glyph-name="O" unicode="O" 
d="M1260 751c0 -507.333 -187.001 -761.001 -561.001 -761.001c-195.333 0 -343.166 64.167 -443.499 192.5s-150.5 317.833 -150.5 568.5c0 386 105.667 631.667 317 737c70.667 34.667 153.5 52 248.5 52s179 -14.667 252 -44s134.5 -75.666 184.5 -138.999
c102 -129.333 153 -331.333 153 -606zM1034 763.999c0 103.333 -7.99805 191.667 -23.998 265s-39.5 131 -70.5 173s-68.833 70.833 -113.5 86.5s-97.334 23.5 -158.001 23.5s-113 -11.333 -157 -34s-79.667 -57 -107 -103c-50 -86 -75 -226 -75 -420
c0 -198 31.333 -339 94 -423c58 -76.667 152.333 -115 283 -115c119.333 0 204.666 42.333 255.999 127c48 81.333 72 221.333 72 420z" />
    <glyph glyph-name="P" unicode="P" 
d="M737 218c10.667 0 16.002 -6.33301 16.002 -19l-13 -166c-1.33301 -13.333 -9.33301 -20 -24 -20l-574 -7c-12 0 -18 8 -18 24l2 175c0 10 5.33301 16.333 16 19l157 -16v1120l-156 -13c-6.66699 0 -12.5 2.66699 -17.5 8s-7.5 12 -7.5 20l11 140
c1.33301 18 10.666 28.5 27.999 31.5s40.166 6.33301 68.499 10s59 7 92 10s67.667 5.83301 104 8.5s72.5 5 108.5 7c78 3.33301 154 5 228 5s146.833 -9 218.5 -27s131.5 -46 179.5 -84c95.333 -77.333 143 -199.333 143 -366c0 -237.333 -111 -379.333 -333 -426
c-67.333 -14.667 -140.333 -22 -219 -22s-156.667 3.33301 -234 10v-435zM513.002 822c64.667 -6 128 -9 190 -9s114.167 3.5 156.5 10.5s78.833 20.5 109.5 40.5c64.667 41.333 97 113.333 97 216c0 182.667 -100.667 274 -302 274c-76 0 -159.667 -3 -251 -9v-523z" />
    <glyph glyph-name="Q" unicode="Q" 
d="M227.5 205.5c-78.333 131 -117.501 323.666 -117.501 577.999s44.333 449 133 584s228.334 202.5 419.001 202.5c195.333 0 341.666 -62.667 438.999 -188c104 -133.333 156 -333.166 156 -599.499s-40.5 -466.5 -121.5 -600.5s-208.5 -207.333 -382.5 -220
c20 -48 46.833 -80.833 80.5 -98.5s68.834 -26.5 105.501 -26.5c59.333 0 112.166 4.5 158.499 13.5s74.166 13.5 83.499 13.5s14.666 -5.66699 15.999 -17l11 -167c-1.33301 -8 -3.5 -13.167 -6.5 -15.5s-16.167 -6.5 -39.5 -12.5c-81.333 -22 -156.166 -33 -224.499 -33
s-121.666 8 -159.999 24s-70.166 39 -95.499 69c-42.667 49.333 -77.334 135.333 -104.001 258c-155.333 26 -272.166 104.5 -350.499 235.5zM1018.5 493.999c11 73.333 16.498 164.167 16.498 272.5s-8.66699 200.833 -26 277.5s-42 137.334 -74 182.001
c-57.333 78.667 -147.666 118 -270.999 118c-125.333 0 -213.333 -46 -264 -138c-48 -86.667 -72 -233.334 -72 -440.001c0 -316 71.333 -506 214 -570c48 -21.333 103 -32 165 -32s113.833 12.167 155.5 36.5s75.334 61 101.001 110s44 110.167 55 183.5z" />
    <glyph glyph-name="R" unicode="R" 
d="M622 13c-1.33301 -13.333 -9.33398 -20.001 -24.001 -20.001l-504 3c-11.333 0 -17.333 8 -18 24l22 197c1.33301 10.667 6.66602 17 15.999 19l127 -9v1080c-49.333 -4 -84 -6 -104 -6s-32.5 2.5 -37.5 7.5s-8.16699 11.833 -9.5 20.5l-20 164
c1.33301 18 9.33301 28.333 24 31c200 20.667 397.667 31 593 31c272.667 0 442.334 -87 509.001 -261c23.333 -59.333 35 -125.5 35 -198.5s-8.5 -134 -25.5 -183s-40.833 -91.167 -71.5 -126.5c-61.333 -70.667 -145 -116.334 -251 -137.001l262 -414l177 15
c22 -1.33301 33 -12.666 33 -33.999l1 -157c0 -35.333 -12.333 -53.666 -37 -54.999l-284 -7c-13.333 0 -23.666 6.66699 -30.999 20l-338 621c-76 1.33301 -144.333 5 -205 11l3 -429h135c10.667 0 16 -6.33301 16 -19zM724.999 1345c-53.333 0 -143.333 -6.33301 -270 -19
l4 -498c58 -3.33301 118.333 -5 181 -5s114.5 4.5 155.5 13.5s76.5 23.5 106.5 43.5c64.667 43.333 97 110.5 97 201.5s-22.833 157.667 -68.5 200s-114.167 63.5 -205.5 63.5z" />
    <glyph glyph-name="S" unicode="S" horiz-adv-x="1196" 
d="M878 32c-56 -18.667 -126.671 -27.999 -212.004 -27.999s-186.666 10.667 -303.999 32l7 -80c0 -12 -7.66699 -18 -23 -18l-172 -5c-25.333 1.33301 -39.333 14.333 -42 39l-38 387c0 13.333 8 20.666 24 21.999l196 18c12.667 0 19.667 -7.66699 21 -23l13 -162
c96 -10 191.667 -15 287 -15s162 16.167 200 48.5s57 81.166 57 146.499c0 58.667 -22.333 106.667 -67 144c-23.333 20 -53.666 39.667 -90.999 59l-274 133c-96.667 46 -163 82.833 -199 110.5s-63.667 54.834 -83 81.501c-38.667 54 -58 117.5 -58 190.5
s11.333 135.333 34 187s54.667 96.167 96 133.5c86.667 79.333 196.667 119 330 119c94.667 0 197.334 -15 308.001 -45c85.333 26 138.833 39 160.5 39s33.167 -9 34.5 -27l-20 -415c-1.33301 -15.333 -6.66602 -23 -15.999 -23l-168 6c-9.33301 0.666992 -15 3 -17 7
s-3.33301 10.333 -4 19l-8 220c-79.333 18.667 -145.333 28 -198 28c-132.667 0 -223 -37 -271 -111c-17.333 -26.667 -26 -58.167 -26 -94.5s8.66699 -66.5 26 -90.5s42.333 -46.5 75 -67.5s72.667 -42.167 120 -63.5l164 -75c154 -71.333 256.667 -135 308 -191
c56 -60.667 84 -145.667 84 -255c0 -196.667 -84.667 -323.667 -254 -381z" />
    <glyph glyph-name="T" unicode="T" 
d="M113 1049c-11.333 1.33301 -18.334 9.33398 -21.001 24.001l9 469c0 12 7.66699 18 23 18l164 -20c13.333 0 20 -7.66699 20 -23v-26l767 8l184 20c14.667 0 22 -7.33301 22 -22l-30 -443c-1.33301 -10.667 -7.66602 -16 -18.999 -16l-171 8
c-8 1.33301 -13.167 3.5 -15.5 6.5s-3.83301 8.83301 -4.5 17.5l3 247l-258 -4l17 -1088l193 11c10.667 -2.66699 16 -9 16 -19l2 -177c-1.33301 -16 -7.33301 -24 -18 -24l-594 -13c-14.667 0 -22.667 6.66699 -24 20l7 198c0 12.667 5.33301 19 16 19l178 -11l-18 1078
l-252 -14l1 -212c-0.666992 -12.667 -8.66699 -19.334 -24 -20.001z" />
    <glyph glyph-name="U" unicode="U" horiz-adv-x="1538" 
d="M1415 200c10.667 0 16 -6.33301 16 -19l-13 -178c-1.33301 -13.333 -9.33301 -20 -24 -20l-343 -7c-15.333 0 -23 8 -23 24l1 227c-57.333 -68 -122 -120.833 -194 -158.5s-143.167 -56.5 -213.5 -56.5s-129.833 11.5 -178.5 34.5s-89.667 56.833 -123 101.5
c-67.333 90 -101 220 -101 390c0 180 5 336.667 15 470l24 298l-164 -13c-7.33301 0 -11.833 1.5 -13.5 4.5s-3.16699 8.83301 -4.5 17.5l11 186c1.33301 12.667 9.33301 19.667 24 21l432 15c12 -1.33301 18 -9 18 -23l-14 -176c-2 -14.667 -9.66699 -22 -23 -22h-48
c-4 -63.333 -7.33301 -120 -10 -170l-8 -134c-7.33301 -131.333 -11 -261.333 -11 -390c0 -250.667 74.667 -376 224 -376c94 0 188.333 29.333 283 88c28.667 17.333 54 36 76 56l6 890l-107 -4c-9.33301 0 -14 7.33301 -14 22l6 186c1.33301 14 9.33301 21 24 21l448 12
c12 -1.33301 18 -9 18 -23l3 -179c0 -14.667 -7.66699 -22 -23 -22l-140 -5v-1104z" />
    <glyph glyph-name="V" unicode="V" horiz-adv-x="1364" 
d="M1324 1529c14.667 0 22 -10.667 22 -32l-10 -157c-0.666992 -10.667 -3 -18 -7 -22s-11.667 -6.33301 -23 -7l-83 4l-413 -1294c-4 -12.667 -12 -19.667 -24 -21l-187 -8c-12 0.666992 -20.333 8.33398 -25 23.001l-445 1275l-65 -5c-18.667 0 -28 10.667 -28 32l10 168
c0 11.333 2.33301 18.666 7 21.999s12.667 5 24 5l443 10c14.667 -2 22.667 -12 24 -30l10 -166c-1.33301 -11.333 -4 -18.833 -8 -22.5s-11.333 -5.5 -22 -5.5l-146 1l322 -1049l303 1070l-127 -3c-8 0 -13.5 1.66699 -16.5 5s-5.16699 9.33301 -6.5 18l5 162
c1.33301 18.667 11.333 28.667 30 30z" />
    <glyph glyph-name="W" unicode="W" horiz-adv-x="1878" 
d="M83 1295c-18.667 0 -27.999 10.666 -27.999 31.999l10 168c0.666992 11.333 3.16699 18.5 7.5 21.5s12.166 4.83301 23.499 5.5l463 20c11.333 -0.666992 18 -3.5 20 -8.5s3.33301 -12.167 4 -21.5l10 -166c-1.33301 -11.333 -4 -18.833 -8 -22.5s-11.333 -5.5 -22 -5.5
l-161 2l226 -997l240 1168c2 13.333 10 20.333 24 21l151 11c14 -1.33301 22.333 -9 25 -23l263 -1181l199 1004l-154 4c-8 0 -13.5 1.66699 -16.5 5s-5.16699 9.33301 -6.5 18l5 162c1.33301 18.667 11.333 28.667 30 30l446 -13c14.667 -1.33301 22 -12 22 -32l-10 -157
c-0.666992 -10.667 -3 -18 -7 -22s-11.667 -6.33301 -23 -7l-96 4l-312 -1294c-2.66699 -12.667 -10.667 -19.667 -24 -21l-157 -8c-14 1.33301 -22.333 9 -25 23l-247 1065l-233 -1059c-2.66699 -12.667 -10.667 -19.667 -24 -21l-167 -8
c-12 0.666992 -20.333 8.33398 -25 23.001l-329 1289z" />
    <glyph glyph-name="X" unicode="X" 
d="M103 5c-14 0 -20.9961 7.00098 -20.9961 21.001l10 187c1.33301 13.333 9 20 23 20l110 -17l402 546l-362 553l-130 -12c-14 0 -21 8 -21 24v179c0 13.333 7.66699 20 23 20l491 11c9.33301 0 14.666 -1.83301 15.999 -5.5s2 -9.16699 2 -16.5l5 -180
c-1.33301 -8.66699 -3.33301 -14.334 -6 -17.001s-8 -4 -16 -4l-91 5l187 -383l196 372l-69 4c-10.667 0.666992 -16.334 6.33398 -17.001 17.001l-11 175c2 13.333 9.33301 20.666 22 21.999h437c9.33301 -1.33301 14.666 -9.33301 15.999 -24l-10 -193
c-1.33301 -14 -8.66602 -21 -21.999 -21l-120 7l-342 -505l381 -570l134 2c10 0 15 -8 15 -24l-19 -166c-1.33301 -7.33301 -3.33301 -12.333 -6 -15s-8.33398 -4 -17.001 -4l-446 -6c-12.667 1.33301 -19.334 7.33301 -20.001 18l-12 169c1.33301 14 9 21 23 21l80 1
l-210 419l-246 -420l103 8c10.667 0 16 -8 16 -24l-2 -175c-1.33301 -8.66699 -3.5 -14.167 -6.5 -16.5s-8.16699 -3.83301 -15.5 -4.5z" />
    <glyph glyph-name="Y" unicode="Y" 
d="M962 215c12 0 18.001 -7.33496 18.001 -22.002l-16 -176c-0.666992 -8 -2.83398 -13.167 -6.50098 -15.5s-9.5 -4.16602 -17.5 -5.49902l-532 15c-7.33301 0 -12 1.66699 -14 5s-3.33301 9.33301 -4 18l7 169c1.33301 14.667 9 22 23 22l157 -3l3 337l-428 748l-86 -6
c-18.667 0 -28 10.667 -28 32l-10 170c0 11.333 2.33301 18.666 7 21.999s12.667 5 24 5h483c12 0 19 -2.66699 21 -8s3 -12.666 3 -21.999l-10 -165c-0.666992 -11.333 -3.16699 -18.666 -7.5 -21.999s-11.833 -5.33301 -22.5 -6l-110 4l298 -599l288 591l-127 -3
c-8 0 -13.5 1.66699 -16.5 5s-5.16699 9.33301 -6.5 18l-15 167c1.33301 20 11.333 30 30 30l456 7c14.667 -1.33301 22 -12 22 -32l-10 -162c-0.666992 -10.667 -3 -18.167 -7 -22.5s-11.667 -6.5 -23 -6.5h-87l-415 -746l-7 -340z" />
    <glyph glyph-name="Z" unicode="Z" horiz-adv-x="1196" 
d="M938 -93c-14.667 1.33301 -22.6699 10.667 -24.0029 28l3 77l-718 11c-36.667 1.33301 -56.667 19 -60 53l-16 155l751 1111l-509 -17l-19 -222c-1.33301 -14.667 -9.33301 -22 -24 -22l-167 -3c-12 2 -18.667 9.33301 -20 22l13 399
c0.666992 9.33301 2.33398 15.833 5.00098 19.5s8.33398 6.16699 17.001 7.5l187 -23l700 39c24.667 0 39.334 -15.667 44.001 -47l26 -198l-745 -1090l542 -12l5 141c1.33301 17.333 8.33301 26 21 26l178 -4c10.667 0 16 -7.66699 16 -23l-12 -395
c0 -12.667 -6.66699 -19.667 -20 -21z" />
    <glyph glyph-name="bracketleft" unicode="[" horiz-adv-x="682" 
d="M192 -194c-12.667 1.33301 -18.999 6.66602 -18.999 15.999l20 1789c0 10.667 6.33301 16 19 16l374 9c9.33301 0 14.666 -6.33301 15.999 -19l-10 -166c-0.666992 -12.667 -7 -19 -19 -19l-188 11l8 -603l-27 -839l212 20c9.33301 0 14 -8 14 -24l-20 -151
c-2 -11.333 -9 -17.666 -21 -18.999z" />
    <glyph glyph-name="backslash" unicode="\" horiz-adv-x="682" 
d="M158 1736c2 0.666992 4.33301 0.999023 7 0.999023c11.333 0 18 -5.66699 20 -17l496 -2115c0.666992 -1.33301 1 -3.66602 1 -6.99902c0 -11.333 -5.33301 -18.333 -16 -21l-126 -31c-2.66699 -0.666992 -6 -1 -10 -1c-10 0 -16 4.66699 -18 14l-501 2117
c-1.33301 5.33301 -2 9 -2 11c0 8 5 13.667 15 17z" />
    <glyph glyph-name="bracketright" unicode="]" horiz-adv-x="682" 
d="M490 1636c12.667 -1.33301 18.999 -6.66602 18.999 -15.999l-20 -1789c0 -10.667 -6.33301 -16 -19 -16l-374 -9c-9.33301 0 -14.666 6.33301 -15.999 19l10 166c0.666992 12.667 7 19 19 19l188 -11l-8 603l27 839l-212 -20c-9.33301 0 -14 8 -14 24l20 151
c2 11.333 9 17.666 21 18.999z" />
    <glyph glyph-name="asciicircum" unicode="^" horiz-adv-x="1194" 
d="M510 1410c6 14 17.6689 22.333 35.002 25l96 -12c16.667 -3.33301 27 -9 31 -17l457 -985c2.66699 -5.33301 4 -11.833 4 -19.5s-2.66699 -12.5 -8 -14.5l-166 -48c-6.66699 -2.66699 -12.334 -4 -17.001 -4s-8.33398 3.33301 -11.001 10l-340 843l-331 -844
c-2.66699 -6 -7.16699 -9 -13.5 -9s-12.833 1.33301 -19.5 4l-159 63c-4.66699 2 -7 5 -7 9s1.66699 9.33301 5 16z" />
    <glyph glyph-name="underscore" unicode="_" horiz-adv-x="1659" 
d="M-24 -355c-10.667 0 -16.001 6.33301 -16.001 19l8 140c1.33301 13.333 9.33301 20 24 20h1683c9.33301 0 14 -8 14 -24l-10 -136c-1.33301 -12.667 -6.66602 -19 -15.999 -19h-1687z" />
    <glyph glyph-name="grave" unicode="`" horiz-adv-x="900" 
d="M253 1799c6 7.33301 13.168 11 21.501 11s15.5 -3.66699 21.5 -11l383 -420c3.33301 -4.66699 5 -9.83398 5 -15.501s-2.66699 -11.834 -8 -18.501l-67 -68c-4 -4 -8.33301 -6 -13 -6s-8.33398 1.33301 -11.001 4l-462 340c-5.33301 4.66699 -8 10.334 -8 17.001
s1.66699 12.334 5 17.001z" />
    <glyph glyph-name="a" unicode="a" horiz-adv-x="1196" 
d="M722 1151c197.333 0 295.999 -122.668 295.999 -368.001c0 -58 -1.33301 -133 -4 -225l-7 -196c-1.33301 -39.333 -3 -76.666 -5 -111.999l-4 -95l60 5c22 1.33301 47 3.33301 75 6c14 0 21 -6.33301 21 -19l-18 -158c-2 -12 -9.33301 -18.667 -22 -20l-289 -18
c-9.33301 0 -14 7.33301 -14 22l14 117c-111.333 -86 -232.333 -129 -363 -129c-102 0 -186 29.667 -252 89c-70 62.667 -105 147 -105 253c0 138 47.667 235 143 291c84 49.333 222.333 74 415 74c40 0 82.667 -1 128 -3c0.666992 17.333 1 33.333 1 48v38
c0 130 -57 195 -171 195c-59.333 0 -132.666 -18 -219.999 -54l4 -38c1.33301 -12.667 2 -22.667 2 -30c0 -14.667 -7.33301 -22 -22 -22l-169 -3c-12 2 -18.667 9.33301 -20 22l-17 286c0 16 7.33301 25 22 27l167 22c14 0 21 -7.33301 21 -22v-83
c119.333 66.667 230.333 100 333 100zM531.999 149.999c76.667 0 161.002 22 253.002 66c1.33301 44 2.16602 92.5 2.49902 145.5s1.16602 105.5 2.49902 157.5c-175.333 0 -297 -15 -365 -45c-62.667 -28 -94 -74.667 -94 -140c0 -122.667 67 -184 201 -184z" />
    <glyph glyph-name="b" unicode="b" horiz-adv-x="1195" 
d="M379 1595c12 0 18.001 -7.66699 18.001 -23l-16 -483l59 21c81.333 27.333 157.833 41 229.5 41s134.667 -12 189 -36s98.166 -60.333 131.499 -109c60 -88 90 -232 90 -432s-33.667 -347.167 -101 -441.5s-170.333 -141.5 -309 -141.5
c-99.333 0 -192.333 15.667 -279 47c-81.333 -38 -140.333 -57 -177 -57c-22 0 -33 12.667 -33 38v1350l-146 8c-12.667 0.666992 -19.334 7 -20.001 19l-12 155c2.66699 12 10.334 18.667 23.001 20zM745.001 916c-30.667 12.667 -77.834 18.999 -141.501 18.999
s-138.834 -13.333 -225.501 -40l12 -677c80.667 -17.333 149.334 -26 206.001 -26s100.834 5.83301 132.501 17.5s57.5 31.834 77.5 60.501c38.667 55.333 58 154.666 58 297.999c0 140.667 -15.333 236 -46 286c-18 28.667 -42.333 49.334 -73 62.001z" />
    <glyph glyph-name="c" unicode="c" horiz-adv-x="1024" 
d="M327 1126.5c43.333 17.667 96.498 26.4971 159.498 26.4971s133.167 -9.66699 210.5 -29l188 35c12 -2 18.667 -9.33301 20 -22l17 -356c-1.33301 -16 -8.66602 -25 -21.999 -27l-167 -22c-14 0 -21 7.33301 -21 22v169c-42.667 10 -88.334 15 -137.001 15
s-91.5 -8 -128.5 -24s-65.833 -40 -86.5 -72c-36 -56 -54 -152.333 -54 -289c0 -205.333 42 -322.333 126 -351c26.667 -9.33301 57.334 -14 92.001 -14c50 0 107.333 6.33301 172 19l4 69c1.33301 16 8.33301 24.667 21 26l158 -6c9.33301 -1.33301 14.666 -9 15.999 -23
l18 -313c0 -14 -6.66699 -21 -20 -21h-192c-10 0 -15.667 6.33301 -17 19l3 57c-241.333 -47.333 -407 -13.666 -497 101.001c-64 82.667 -96 216.334 -96 401.001c0 123.333 5.33301 215.333 16 276s24.334 111.667 41.001 153s39.334 77.333 68.001 108
s64.667 54.834 108 72.501z" />
    <glyph glyph-name="d" unicode="d" horiz-adv-x="1194" 
d="M658 1415c-13.333 0 -20 7.99902 -20 23.999l10 160c1.33301 13.333 9 20 23 20l343 -19c12 -1.33301 18 -9 18 -23v-1404l105 11c13.333 0 20 -6.33301 20 -19l-18 -155c-2 -11.333 -9.66699 -18 -23 -20l-248 -40c-12.667 0 -19 7.33301 -19 22l8 99
c-112 -46 -212.167 -69 -300.5 -69s-159.5 12 -213.5 36s-97.667 60 -131 108c-60 88.667 -90 235.334 -90 440.001c0 296 76.333 474.667 229 536c51.333 20.667 121 31 209 31s181 -18.667 279 -56l-13 315zM845 893.999c-95.333 23.333 -173.167 35 -233.5 35
s-106.333 -4.66699 -138 -14s-57.5 -27 -77.5 -53c-38.667 -50 -58 -145.667 -58 -287c0 -140.667 15.333 -236 46 -286c33.333 -54 97 -81 191 -81c77.333 0 160.333 13 249 39z" />
    <glyph glyph-name="e" unicode="e" horiz-adv-x="1196" 
d="M847 6c-85.333 -21.333 -193.667 -31.9971 -325 -31.9971c-134 0 -231.333 41.333 -292 124c-63.333 86 -95 222.333 -95 409c0 196 27 342.333 81 439c61.333 106.667 159.333 171.667 294 195c46.667 8 98.667 12 156 12c123.333 0 213 -30.333 269 -91
s84 -153.334 84 -278.001c0 -81.333 -14.333 -144 -43 -188c-9.33301 -14 -22 -29.833 -38 -47.5s-45.5 -33.334 -88.5 -47.001s-92.167 -24.167 -147.5 -31.5c-86 -10.667 -204.333 -16 -355 -16c8.66699 -112.667 36.334 -189.334 83.001 -230.001
c35.333 -32 96.666 -48 183.999 -48c82 0 163.667 7 245 21l3 52c0.666992 8 2.5 13.333 5.5 16s8.5 5 16.5 7l144 32c14.667 0 23 -6.33301 25 -19c2 -11.333 4 -33.5 6 -66.5s4 -61.5 6 -85.5s3.66699 -47 5 -69l4 -56c0.666992 -16.667 1 -30.667 1 -42
c0 -20 -14.667 -31.667 -44 -35l-166 -20c-14.667 0 -22 7.33301 -22 22zM785.499 714.503c3.66699 20.333 5.49902 44.335 5.49902 72.002s-2.5 52.167 -7.5 73.5s-13.5 39.666 -25.5 54.999c-26 32 -68.333 48 -127 48c-113.333 0 -189 -28.667 -227 -86
c-36 -53.333 -56 -145.333 -60 -276c232.667 3.33301 369.334 23.333 410.001 60c17.333 15.333 27.833 33.166 31.5 53.499z" />
    <glyph glyph-name="f" unicode="f" horiz-adv-x="854" 
d="M449 1614c44.667 13.333 88.502 19.998 131.502 19.998s77.167 -0.666992 102.5 -2l1 27c0 11.333 6.33301 17 19 17h157c12 0 19 -7.66699 21 -23l-16 -295c-1.33301 -13.333 -6.33301 -20 -15 -20l-148 -4c-16.667 0.666992 -25.334 8.33398 -26.001 23.001l3 106
c-25.333 2.66699 -51 4 -77 4s-49 -3.66699 -69 -11s-36.667 -19.333 -50 -36c-26.667 -32 -40 -79.667 -40 -143s0.666992 -123 2 -179l295 4c9.33301 -0.666992 15.166 -2.83398 17.499 -6.50098s3.83301 -9.5 4.5 -17.5l-10 -153
c-1.33301 -12.667 -8.66602 -19.667 -21.999 -21l-272 7v-705l184 4c10.667 0 16 -6.33301 16 -19l-18 -171c-1.33301 -8 -3.5 -13.167 -6.5 -15.5s-8.83301 -3.83301 -17.5 -4.5l-483 6c-9.33301 0 -14 8 -14 24l10 151c1.33301 12.667 6.66602 19 15.999 19l100 2l9 707
l-176 -11c-11.333 0.666992 -18 6.33398 -20 17.001l-21 155c0 14.667 7.33301 22 22 22l189 3c-6 58 -9 121.833 -9 191.5s8.33301 124.834 25 165.501s40.5 74.5 71.5 101.5s68.833 47.167 113.5 60.5z" />
    <glyph glyph-name="g" unicode="g" horiz-adv-x="1196" 
d="M1096 1141c18 0 27.668 -12.001 29.001 -36.001l-13 -157c-1.33301 -14 -9 -21 -23 -21l-180 35c71.333 -76 107 -144.667 107 -206s-8.16699 -116.833 -24.5 -166.5s-42.833 -91.5 -79.5 -125.5c-74 -69.333 -190.333 -104 -349 -104
c-62.667 0 -119.334 6.66699 -170.001 20c-16 -36.667 -24 -66.667 -24 -90s1.66699 -40 5 -50s10 -18 20 -24c18 -11.333 45.5 -17 82.5 -17s71.833 1 104.5 3c84.667 4 152.5 6 203.5 6s97 -8.33301 138 -25s74.167 -39 99.5 -67c49.333 -54.667 74 -127 74 -217
c0 -110 -43.667 -199.667 -131 -269c-96 -76.667 -230.667 -115 -404 -115c-144.667 0 -250.667 18.333 -318 55c-75.333 41.333 -113 105 -113 191s38.333 179 115 279c-53.333 30 -80 78.5 -80 145.5s38.667 147.167 116 240.5c-108 62.667 -162 170.334 -162 323.001
c0 134 44.333 236.333 133 307c79.333 63.333 188.333 95 327 95c72 0 138 -1 198 -3c140 -4.66699 246.333 -7 319 -7zM802.001 676.999c7.33301 26.667 11 55.333 11 86s-4.5 59.167 -13.5 85.5s-22.833 48.833 -41.5 67.5c-40 40 -97.667 60 -173 60
c-120 0 -198.333 -40.667 -235 -122c-12.667 -29.333 -19 -65 -19 -107c0 -136.667 84.667 -205 254 -205c118.667 0 191 45 217 135zM713.001 9.99805l-273.999 -8c-26.667 0 -50.334 1 -71.001 3c-22 -54 -33 -107 -33 -159s20.333 -88.167 61 -108.5
s95.667 -30.5 165 -30.5s123 4.16699 161 12.5s70 19.833 96 34.5c52 30.667 78 70.667 78 120c0 42 -8.66699 71.333 -26 88c-32.667 32 -85 48 -157 48z" />
    <glyph glyph-name="h" unicode="h" horiz-adv-x="1370" 
d="M917 704c0 148 -53.0029 222.001 -159.003 222.001c-60 0 -129 -15.667 -207 -47c-23.333 -9.33301 -44.666 -19.333 -63.999 -30l-4 -659l121 -12c10.667 -1.33301 16 -7.33301 16 -18l-18 -129c-2 -14 -9.66699 -21 -23 -21l-422 -7c-10 0 -15 8 -15 24l19 176
c1.33301 7.33301 3.33301 12.333 6 15s8.33398 4 17.001 4l76 -8v832l20 367l-143 -11c-14.667 0 -22 8 -22 24v153c0 12 8 18.667 24 20l339 14c14 0 21.667 -8 23 -24l-24 -554c120 78 240 117 360 117c162 0 257 -87.333 285 -262c8.66699 -54.667 13 -134.5 13 -239.5
s-7 -253.833 -21 -446.5l120 6c14 -1.33301 21 -8.33301 21 -21v-147c0 -13.333 -7.66699 -20 -23 -20l-430 -10c-10.667 0 -16 8 -16 24l22 135c1.33301 8.66699 3.5 14.167 6.5 16.5s8.16699 3.83301 15.5 4.5l84 3c0.666992 40 1.33398 84.333 2.00098 133v145
c0.666992 47.333 1 91.666 1 132.999v98z" />
    <glyph glyph-name="i" unicode="i" horiz-adv-x="683" 
d="M150 -14c-9.33301 0 -14 8.00098 -14 24.001v151c0 12.667 5.33301 19 16 19h120l8 699l-162 17c-12 1.33301 -18 8.66602 -18 21.999l22 165c2.66699 12 10.667 19 24 21l321 33c7.33301 0 12 -1.83301 14 -5.5s3.33301 -9.5 4 -17.5l13 -182l-3 -752h114
c10.667 0 16 -6.33301 16 -19l-18 -131c-1.33301 -8 -3.5 -13.167 -6.5 -15.5s-8.83301 -3.83301 -17.5 -4.5zM410 1342c-21.333 -3.33301 -46.8311 -5.00098 -76.498 -5.00098s-52.334 1.66699 -68.001 5s-28.167 9.33301 -37.5 18c-15.333 16 -23 44.333 -23 85
s2.16699 69.834 6.5 87.501s12.5 31.5 24.5 41.5c20.667 17.333 54.5 26 101.5 26s78.5 -1.16699 94.5 -3.5s28.667 -7.83301 38 -16.5c16 -14 24 -42 24 -84s-2.33301 -72.333 -7 -91s-13.334 -33 -26.001 -43s-29.667 -16.667 -51 -20z" />
    <glyph glyph-name="j" unicode="j" horiz-adv-x="682" 
d="M84 -241c145.333 0 218.001 55.334 218.001 166.001v149l-2 166c0 56.667 -0.333008 114.667 -1 174c-2.66699 237.333 -4.66699 397.333 -6 480l-174 -8c-10.667 1.33301 -16.667 8.66602 -18 21.999l-15 181c0.666992 16.667 9 25.334 25 26.001l364 22
c11.333 -1.33301 18.333 -9 21 -23l-7 -189c2 -33.333 3.66699 -71.666 5 -114.999c14.667 -366.667 22 -607.834 22 -723.501s-5 -203.334 -15 -263.001s-29.667 -109.5 -59 -149.5c-58 -81.333 -167.333 -122 -328 -122c-12.667 0 -20.334 7.66699 -23.001 23l-30 164
c0 13.333 7.66699 20 23 20zM504.001 1511c0 -118 -37.333 -177 -112 -177c-124.667 0 -187 32 -187 96c0 115.333 37.333 173 112 173c124.667 0 187 -30.667 187 -92z" />
    <glyph glyph-name="k" unicode="k" horiz-adv-x="1195" 
d="M73 161c1.33301 12.667 6.66504 19 15.998 19h129v1197l-143 19c-7.33301 1.33301 -12.166 3.33301 -14.499 6s-3.5 8 -3.5 16l-4 136c0 12 8 19 24 21l307 32c12.667 0 20 -8 22 -24l19 -178l-13 -756l128 5l241 297l-122 -14c-10.667 0 -16 6.33301 -16 19l8 161
c1.33301 13.333 9.33301 20 24 20l453 4c9.33301 0 14 -8 14 -24l-10 -151c-1.33301 -12.667 -6.66602 -19 -15.999 -19l-101 9l-313 -373l288 -386l165 -6c12.667 0 19.667 -8 21 -24l10 -137c0 -8 -1.83301 -13.167 -5.5 -15.5s-9.5 -3.83301 -17.5 -4.5l-305 -12
c-8.66699 0 -17.667 7.33301 -27 22l-303 463l-119 -9l-5 -285l102 11c10.667 0 16 -6.33301 16 -19l-8 -151c-0.666992 -8 -2.66699 -13.167 -6 -15.5s-9.33301 -3.83301 -18 -4.5l-393 -14c-10 0 -15.667 8.33301 -17 25z" />
    <glyph glyph-name="l" unicode="l" horiz-adv-x="683" 
d="M126 1356c-12 0 -17.999 7.33398 -17.999 22.001l6 196c0 8 2 13.167 6 15.5s10 4.16602 18 5.49902l325 -8c7.33301 0 12 -1.83301 14 -5.5s3.33301 -9.5 4 -17.5l-7 -159l15 -1196l136 11c9.33301 0 14.666 -6.33301 15.999 -19l12 -181
c-1.33301 -8 -3.5 -13.167 -6.5 -15.5s-8.83301 -3.83301 -17.5 -4.5l-543 6c-9.33301 0 -14 8 -14 24v171c0 12.667 5.33301 19 16 19l189 -12v1160z" />
    <glyph glyph-name="m" unicode="m" horiz-adv-x="1875" 
d="M1030 1000c110.667 100.667 219.332 150.999 325.999 150.999c156.667 0 250.334 -75 281.001 -225c10 -49.333 15 -97.166 15 -143.499s-0.5 -92.5 -1.5 -138.5s-2.5 -95.333 -4.5 -148l-6 -159c-2 -53.333 -4 -101.666 -6 -144.999l145 9c14 0 21 -8 21 -24l-20 -167
c0 -8 -1.83301 -13.167 -5.5 -15.5s-9.5 -3.83301 -17.5 -4.5l-299 8c-15.333 0 -23 7.33301 -23 22c2 73.333 3 140 3 200l2 158v126v175c0 86.667 -6.83301 143 -20.5 169s-30.167 43.833 -49.5 53.5s-47.333 14.5 -84 14.5c-64 0 -135.667 -21.333 -215 -64
c4.66699 -32.667 7 -68.5 7 -107.5s-0.333008 -81.667 -1 -128s-1.5 -95.166 -2.5 -146.499l-3 -154c-1 -51.333 -2.16699 -97.333 -3.5 -138l131 3c14 0 21 -8 21 -24l-10 -137c-0.666992 -8 -2.66699 -13.167 -6 -15.5s-9 -3.83301 -17 -4.5l-371 8
c-14 0 -21 7.33301 -21 22l-5 140c1.33301 14 8.66602 21 21.999 21l62 -5c1.33301 92 2 174.667 2 248v245c0 85.333 -7.5 141.666 -22.5 168.999s-32.5 46.166 -52.5 56.499s-46.333 15.5 -79 15.5c-80 0 -165 -33.667 -255 -101v-622l105 5c11.333 0 17 -5.66699 17 -17
l11 -155c-2.66699 -14.667 -10 -22 -22 -22l-410 10c-15.333 0 -23 8 -23 24l-10 153c2.66699 14 10 21 22 21h97v658h-153c-13.333 0 -20 8 -20 24l-2 191c2.66699 12 10.667 19 24 21l252 -9c12 -1.33301 19.667 -9 23 -23l29 -133c127.333 130.667 251.833 196 373.5 196
s204.834 -47 249.501 -141z" />
    <glyph glyph-name="n" unicode="n" horiz-adv-x="1370" 
d="M792 903c-84.667 0 -181.333 -34.667 -290 -104l12 -599l109 12c11.333 0 17 -5.66699 17 -17l-19 -155c-2.66699 -14.667 -10 -22 -22 -22h-417c-10.667 0 -16 8 -16 24l20 153c2.66699 14 10 21 22 21h85v661l-153 4c-13.333 0 -20 8 -20 24l18 173
c1.33301 11.333 9.33301 18.333 24 21l277 41c12 0 18 -7.66699 18 -23v-173c137.333 137.333 272.333 206 405 206c152 0 242.667 -72.333 272 -217c9.33301 -48 14 -92.833 14 -134.5s-0.333008 -76.667 -1 -105s-1.66699 -59.5 -3 -93.5l-2 -104l-4 -110l-4 -106
c-1.33301 -34 -2.66602 -65.333 -3.99902 -94l115 5c14 0 21 -8 21 -24v-147c0 -8 -1.83301 -13.167 -5.5 -15.5s-9.5 -3.83301 -17.5 -4.5l-290 -22c-14.667 0 -22 7.33301 -22 22c2 72.667 3 141 3 205l2 167v133v183c0 82.667 -7 135.5 -21 158.5
s-30.333 38.167 -49 45.5s-43.334 11 -74.001 11z" />
    <glyph glyph-name="o" unicode="o" horiz-adv-x="1194" 
d="M123 562c0 114 9.5 208.833 28.5 284.5s47.167 136.167 84.5 181.5c69.333 82 182.333 123 339 123c109.333 0 189.166 -11 239.499 -33s90 -47 119 -75s53.833 -64 74.5 -108c41.333 -90 62 -203.167 62 -339.5s-9.5 -241.5 -28.5 -315.5s-47.5 -133.333 -85.5 -178
c-70.667 -81.333 -185 -122 -343 -122c-165.333 0 -285.666 40 -360.999 120c-86 90.667 -129 244.667 -129 462zM849 363c10 48 15 106.668 15 176.001s-3.66699 125.333 -11 168s-17.5 78.167 -30.5 106.5s-28.5 50.666 -46.5 66.999s-37.667 28.5 -59 36.5
c-32 12 -74.333 18 -127 18s-94.667 -4 -126 -12s-57.333 -25 -78 -51c-39.333 -50.667 -59 -152.667 -59 -306c0 -218 58.667 -341 176 -369c36 -8.66699 75 -13 117 -13s78.167 4.5 108.5 13.5s55.5 26.833 75.5 53.5s35 64 45 112z" />
    <glyph glyph-name="p" unicode="p" horiz-adv-x="1194" 
d="M120 -458c-14.667 0 -21.9971 8.00098 -21.9971 24.001l12 165c0.666992 8.66699 2.66699 14.167 6 16.5s8.66602 3.83301 15.999 4.5l69 -9v1178l-164 -14c-13.333 0 -20 6.33301 -20 19l-2 205c2 11.333 9.66699 18 23 20l278 -10c12 0 18.333 -7.33301 19 -22l6 -65
c118 64 222.167 96 312.5 96s162.666 -12 216.999 -36s98.166 -60.333 131.499 -109c60 -88.667 90 -235.334 90 -440.001c0 -288.667 -76.333 -465.667 -229 -531c-51.333 -22 -119.5 -33 -204.5 -33s-173.167 16.667 -264.5 50l14 -318l188 7
c14 -1.33301 21 -8.33301 21 -21l-10 -147c-1.33301 -13.333 -9 -20 -23 -20zM387.003 242.001c83.333 -20 155.167 -30 215.5 -30s106.333 4.66699 138 14s57.5 27 77.5 53c38.667 50 58 145.667 58 287c0 140 -15.333 235.333 -46 286c-33.333 54.667 -97 82 -191 82
c-64 0 -140.667 -14.333 -230 -43z" />
    <glyph glyph-name="q" unicode="q" horiz-adv-x="1194" 
d="M641 -451c-12 0 -19.332 7.33398 -21.999 22.001l11 155c1.33301 10 7 15.667 17 17l158 -6l3 322c-92 -38 -177 -57 -255 -57s-144 10.333 -198 31s-98.333 52 -133 94c-66 81.333 -99 208.666 -99 381.999c0 217.333 32.333 377 97 479
c67.333 108 175.666 162 324.999 162c73.333 0 156.666 -20.667 249.999 -62l201 42c13.333 0 20 -8 20 -24l9 -1383l87 4c14.667 -1.33301 22 -8.33301 22 -21l-10 -133c-1.33301 -16 -6.66602 -24 -15.999 -24h-467zM465.501 220.001
c30.333 -11.333 75.168 -17 134.501 -17s129 11.333 209 34l-4 663c-68.667 19.333 -132.334 29 -191.001 29s-104.667 -7 -138 -21s-60 -37 -80 -69c-37.333 -60 -56 -165.667 -56 -317c0 -116.667 17.333 -198.667 52 -246c18.667 -26 43.167 -44.667 73.5 -56z" />
    <glyph glyph-name="r" unicode="r" horiz-adv-x="1024" 
d="M136 -12c-10.667 0 -16 7.99902 -16 23.999v173c0 14 7.33301 21 22 21h117v677l-143 -12c-10.667 0.666992 -17.334 8.66699 -20.001 24l-22 213c2 12.667 10 19.667 24 21l307 21c12 0 18 -7.66699 18 -23l-15 -165c75.333 83.333 186 138.666 332 165.999
c44 8.66699 86.333 13 127 13s61.667 -10.667 63 -32l12 -366c0 -12 -5 -18.667 -15 -20l-188 -14c-8 0 -14.333 1.33301 -19 4s-7 9.66699 -7 21v177c-86.667 -7.33301 -163 -24.666 -229 -51.999l-11 -660l174 13c10.667 0 16.334 -5.66699 17.001 -17l11 -165
c-2 -13.333 -9.33301 -20.666 -22 -21.999z" />
    <glyph glyph-name="s" unicode="s" horiz-adv-x="1024" 
d="M873 853c-180 61.333 -306.999 92.0029 -380.999 92.0029c-80 0 -134 -19.667 -162 -59c-11.333 -15.333 -17 -34.333 -17 -57s2.66699 -42.334 8 -59.001s15 -31.334 29 -44.001c28 -26.667 82 -46.334 162 -59.001s149.833 -26.5 209.5 -41.5s107.667 -34.333 144 -58
s62.333 -53.5 78 -89.5s23.5 -82.167 23.5 -138.5s-8.33301 -106.166 -25 -149.499s-40.334 -80 -71.001 -110c-62 -59.333 -148 -89 -258 -89c-75.333 0 -162 9.33301 -260 28l17 -83c0 -10.667 -7.66699 -16.667 -23 -18l-172 -15c-25.333 0 -39.333 13 -42 39l-28 297
c0 12 8 19.333 24 22l156 28c11.333 0 18.333 -7.66699 21 -23l12 -66c96.667 -15.333 176.334 -23 239.001 -23s109.334 13.167 140.001 39.5s46 61.166 46 104.499c0 40.667 -16.333 69.667 -49 87c-28.667 16 -84.834 30.5 -168.501 43.5s-152.5 27.333 -206.5 43
s-98.333 36.5 -133 62.5c-66 49.333 -99 133 -99 251c0 102.667 31 184.667 93 246c66 64.667 158.333 97 277 97c70 0 150.667 -23.333 242 -70l-19 79c0 16 7 24.667 21 26l198 16c10.667 0 16 -7.66699 16 -23l-22 -305c-0.666992 -14 -7.33398 -21 -20.001 -21z" />
    <glyph glyph-name="t" unicode="t" horiz-adv-x="851" 
d="M608 6c-32 -2 -79.165 -2.99707 -141.498 -2.99707s-113 6.33301 -152 19s-71.167 33 -96.5 61c-50 55.333 -75 144.333 -75 267c0 79.333 1.16699 155.166 3.5 227.499s4.33301 136.666 6 192.999s3.5 112.166 5.5 167.499l-133 10c-13.333 0.666992 -20 9.66699 -20 27
l-1 115c0 14.667 7.33301 22 22 22l140 3c1.33301 34.667 2.66602 67.667 3.99902 99l8 151c2 35.333 4.66699 55.5 8 60.5s9.33301 8.16699 18 9.5l186 22c14 0 21 -7.33301 21 -22c0 -21.333 -3.66699 -69.666 -11 -144.999l-15 -169l392 11c14.667 0 22 -8 22 -24v-163
c0 -13.333 -7.33301 -20.333 -22 -21l-405 17c-11.333 -156 -17 -292 -17 -408s2.5 -191 7.5 -225s14.167 -60.333 27.5 -79c22.667 -32 71 -48 145 -48c21.333 0 40.666 0.666992 57.999 2c-2 23.333 -3 40.833 -3 52.5s6.33301 18.5 19 20.5l167 20
c14 0 21 -7.66699 21 -23l4 -254c0 -11.333 -5 -18 -15 -20l-148 -24c-15.333 1.33301 -24 7.66602 -26 18.999z" />
    <glyph glyph-name="u" unicode="u" horiz-adv-x="1195" 
d="M996 1100c10.667 0 16.001 -7.99707 16.001 -23.9971l10 -844l134 5c13.333 -0.666992 20 -8.66699 20 -24l-18 -183c-0.666992 -14 -8.66699 -21 -24 -21h-247c-20.667 0 -34.334 12.667 -41.001 38l-24 101c-110 -94.667 -235.333 -142 -376 -142
c-196.667 0 -295 125.667 -295 377c0 87.333 5 184.666 15 291.999l20 226l-128 -4c-14 0 -21 8 -21 24l20 177c1.33301 8 3.5 13.167 6.5 15.5s8.5 3.83301 16.5 4.5l318 -8c9.33301 0 14 -7.33301 14 -22c-3.33301 -32 -6.66602 -68 -9.99902 -108
c-28 -300.667 -42 -486.334 -42 -557.001s13.333 -121.834 40 -153.501s74.667 -47.5 144 -47.5s157.666 34 264.999 102v575l-125 7c-9.33301 1.33301 -15 7 -17 17l19 165c2.66699 14.667 10 22 22 22z" />
    <glyph glyph-name="v" unicode="v" horiz-adv-x="1195" 
d="M25 1100c0 13.333 7.66895 20.002 23.002 20.002h454c9.33301 0 14.666 -1.83301 15.999 -5.5s2 -9.16699 2 -16.5l-15 -160c-1.33301 -8.66699 -3.33301 -14.334 -6 -17.001s-8 -4 -16 -4l-105 -3l255 -716l222 731l-122 -13c-10.667 0 -16.334 5.66699 -17.001 17
l-11 165c2 13.333 9.33301 20.666 22 21.999l427 20c10.667 -0.666992 16 -8.66699 16 -24v-183c-2.66699 -14 -10 -21 -22 -21h-99l-310 -895c-4 -12.667 -13 -19.667 -27 -21l-179 -8c-12.667 1.33301 -22 9.33301 -28 24l-367 897l-92 -2c-14 0 -21 8 -21 24v169z" />
    <glyph glyph-name="w" unicode="w" horiz-adv-x="1702" 
d="M17 1108c0 13.333 7.66797 20.002 23.001 20.002l444 -10c9.33301 0 14.666 -1.83301 15.999 -5.5s2 -9.16699 2 -16.5l-5 -170c-0.666992 -8.66699 -2.5 -14.334 -5.5 -17.001s-8.5 -4 -16.5 -4l-110 9l191 -701l190 895c2 12.667 11 19.667 27 21l190 9
c16 -1.33301 25.333 -8.33301 28 -21l220 -904l158 714l-124 -13c-10.667 0 -16.334 5.66699 -17.001 17l-11 165c2 13.333 9.33301 20.666 22 21.999l417 20c10.667 -0.666992 16 -8.66699 16 -24v-183c0 -14 -7.33301 -21 -22 -21h-99l-234 -895
c-3.33301 -14 -12.333 -21 -27 -21l-189 -3c-15.333 0 -24.666 7 -27.999 21l-211 844l-195 -833c-3.33301 -12.667 -12.333 -19.667 -27 -21l-179 -8c-14.667 1.33301 -24 8.33301 -28 21l-291 899l-94 -9c-14 0 -21 8 -21 24z" />
    <glyph glyph-name="x" unicode="x" horiz-adv-x="1196" 
d="M96 15c-14 0 -20.9951 7.00098 -20.9951 21.001v147c0 13.333 7.66699 20 23 20l98 1l317 347l-328 384l-104 -2c-14 0 -21 8 -21 24l10 159c0 13.333 7.66699 20 23 20l461 -9c9.33301 0 14.666 -1.83301 15.999 -5.5s2 -9.16699 2 -16.5l5 -140
c-1.33301 -8.66699 -3.33301 -14.334 -6 -17.001s-8 -4 -16 -4l-122 -3l181 -268l192 252l-78 -3c-10.667 0 -16.334 5.66699 -17.001 17l9 175c1.33301 13.333 8.66602 20.666 21.999 21.999l397 -10c10.667 0 16 -8 16 -24l-10 -143
c-1.33301 -12.667 -8.66602 -19.667 -21.999 -21l-111 -5l-305 -354l327 -368l129 11c10 0 15 -8 15 -24l-19 -176c-1.33301 -7.33301 -3.33301 -12.166 -6 -14.499s-8.33398 -3.83301 -17.001 -4.5l-430 14c-10.667 0 -16 7 -16 21l18 126
c1.33301 8.66699 3.66602 14.167 6.99902 16.5s8.66602 3.83301 15.999 4.5l67 6l-194 262l-193 -246l71 1c10.667 0 16 -8 16 -24l4 -160c-1.33301 -8.66699 -3.5 -14.167 -6.5 -16.5s-8.16699 -3.83301 -15.5 -4.5z" />
    <glyph glyph-name="y" unicode="y" horiz-adv-x="1197" 
d="M16 1100c0 13.333 7.66699 20 23 20l454 10c12 0 18 -7.33301 18 -22l5 -170c-1.33301 -8.66699 -3.33301 -14.334 -6 -17.001s-8 -4 -16 -4l-131 -3l260 -735l236 740l-137 -13c-10.667 0 -16.334 5.66699 -17.001 17l9 185c0.666992 14.667 8 22 22 22l437 10
c10.667 -0.666992 16 -8.66699 16 -24l-10 -173c-1.33301 -14 -8.66602 -21 -21.999 -21l-88 8l-482 -1360c-5.33301 -16 -13.333 -24 -24 -24l-198 54c-14.667 2 -22 8.66699 -22 20c0 4.66699 1.33301 9.33398 4 14.001l219 419l-86 -3c-8.66699 0 -16 6 -22 18l-336 841
l-95 -2c-14 0 -21 8 -21 24z" />
    <glyph glyph-name="z" unicode="z" horiz-adv-x="1196" 
d="M872 306c1.33301 16 8.33301 24.666 21 25.999l178 -14c10.667 -0.666992 16 -8.33398 16 -23.001l-12 -335c-0.666992 -14 -7.33398 -21 -20.001 -21l-144 8c-14.667 1.33301 -22.667 10.666 -24 27.999l-2 41l-661 -13c-18.667 1.33301 -32.834 5.83301 -42.501 13.5
s-15.5 20.834 -17.5 39.501l-16 145l662 749l-458 2l-21 -172c-2 -14.667 -10 -22 -24 -22l-147 17c-12 2 -18.667 9.33301 -20 22l13 339c0.666992 9.33301 2.33398 15.833 5.00098 19.5s8.33398 6.16699 17.001 7.5l177 -23l20 -26l605 28
c14.667 0.666992 24.167 -3.66602 28.5 -12.999s7.5 -20.666 9.5 -33.999l26 -178l-636 -728l471 24z" />
    <glyph glyph-name="braceleft" unicode="{" horiz-adv-x="683" 
d="M71 850c108 0 162.001 34.3281 162.001 102.995c0 32 -0.666992 60.667 -2 86l-4 76c-4 76 -6 137.5 -6 184.5s2.5 92.333 7.5 136s18.167 80.5 39.5 110.5c42.667 62 133 93 271 93c54 0 82.5 -1.83301 85.5 -5.5s4.83301 -9.16699 5.5 -16.5l-10 -161
c-1.33301 -16 -6 -24 -14 -24c-79.333 0 -128.333 -5.83301 -147 -17.5s-30.667 -26.667 -36 -45s-8 -42.833 -8 -73.5l7 -338c0 -59.333 -19 -113.333 -57 -162c-12.667 -16.667 -27.667 -30.334 -45 -41.001c62 -31.333 93 -97.666 93 -198.999
c0 -52 -2.33301 -100.667 -7 -146c-8.66699 -93.333 -13 -168.833 -13 -226.5s2.16699 -94.167 6.5 -109.5s11.5 -27.666 21.5 -36.999c27.333 -25.333 81.666 -32.333 162.999 -21c6 0 9.66699 -1.83301 11 -5.5s2.33301 -9.83398 3 -18.501l-10 -161
c-1.33301 -11.333 -8 -17.666 -20 -18.999c-33.333 -3.33301 -70.5 -5 -111.5 -5s-80.5 8.16699 -118.5 24.5s-67.333 37.833 -88 64.5c-35.333 44.667 -53 111.334 -53 200.001c0 66.667 4.33301 140.334 13 221.001c14 131.333 21 211.333 21 240
s-3.83301 49.334 -11.5 62.001s-18.167 22.334 -31.5 29.001c-23.333 12 -59.333 18 -108 18c-12 0 -18.333 8 -19 24l-10 141c0 12.667 6.66699 19 20 19z" />
    <glyph glyph-name="bar" unicode="|" horiz-adv-x="851" 
d="M498 1636c13.333 -1.33301 20 -9.33398 20 -24.001l4 -2118c0 -11.333 -5.66699 -17.666 -17 -18.999l-148 -10c-12.667 0 -19 6 -19 18l-10 2131c0 13.333 6.33301 20 19 20z" />
    <glyph glyph-name="braceright" unicode="}" horiz-adv-x="683" 
d="M612 596c-108 0 -162 -34.3281 -162 -102.995c0 -32 0.666992 -60.667 2 -86l4 -76c4 -76 6 -137.5 6 -184.5s-2.5 -92.333 -7.5 -136s-17.833 -80.5 -38.5 -110.5c-43.333 -62 -134 -93 -272 -93c-54 0 -82.5 1.83301 -85.5 5.5s-4.83301 9.16699 -5.5 16.5l10 161
c1.33301 16 6 24 14 24c79.333 0 128.333 5.83301 147 17.5s30.667 26.5 36 44.5s8 42.667 8 74l-7 338c0 60 19 114 57 162c12.667 16 27.667 29.667 45 41c-62 31.333 -93 97.666 -93 198.999c0 52 2 100.667 6 146c9.33301 93.333 14 168.833 14 226.5
s-2.16699 94.167 -6.5 109.5s-11.5 27.666 -21.5 36.999c-18 16.667 -45 25 -81 25s-60.167 -0.666992 -72.5 -2s-19.166 -0.166016 -20.499 3.50098s-2.33301 9.83398 -3 18.501l10 161c1.33301 11.333 8 17.666 20 18.999c33.333 3.33301 70.5 5 111.5 5
s80.5 -8.16699 118.5 -24.5s67.667 -37.833 89 -64.5c34.667 -44.667 52 -111.334 52 -200.001c0 -66.667 -4.33301 -140.334 -13 -221.001c-14 -131.333 -21 -211.333 -21 -240s3.83301 -49.334 11.5 -62.001s18.167 -22.334 31.5 -29.001c22 -12 58 -18 108 -18
c11.333 0 17.666 -8 18.999 -24l10 -141c0 -12.667 -6.66699 -19 -20 -19z" />
    <glyph glyph-name="asciitilde" unicode="~" horiz-adv-x="1194" 
d="M105 852c0 10 15.832 29 47.499 57s59.834 49.667 84.501 65c56.667 34 108.167 51 154.5 51s83.666 -6.16699 111.999 -18.5s56.5 -26.166 84.5 -41.499c73.333 -39.333 133.666 -59 180.999 -59c53.333 0 109.666 13.667 168.999 41l44 21c28 15.333 45 23 51 23
c7.33301 0 14.333 -6.33301 21 -19l33 -68c1.33301 -3.33301 2 -7.33301 2 -12c0 -6 -5.33301 -14.833 -16 -26.5s-27 -26.834 -49 -45.501s-46.667 -36.667 -74 -54c-64.667 -39.333 -121 -59 -169 -59s-88.333 7.33301 -121 22l-97 46
c-65.333 32.667 -120.666 49 -165.999 49s-86.333 -8 -123 -24s-60.667 -26.667 -72 -32c-23.333 -11.333 -37.666 -17 -42.999 -17c-9.33301 0 -16.666 6.66699 -21.999 20z" />
    <glyph glyph-name="nonbreakingspace" unicode="&#xa0;" horiz-adv-x="688" 
 />
    <glyph glyph-name="exclamdown" unicode="&#xa1;" horiz-adv-x="512" 
d="M395 -409c-1.33301 -13.333 -9.33301 -21.332 -24 -23.999l-218 8c-14 1.33301 -21 10 -21 26l43 1079c0.666992 13.333 6.66699 20 18 20c10 0 21 -0.666992 33 -2l103 -11c16 -2.66699 24.667 -12.334 26 -29.001zM103.5 995.001c-3.66699 20 -5.5 38.668 -5.5 56.001
s5.83301 33.166 17.5 47.499s27.167 26.166 46.5 35.499c40 19.333 78.667 29 116 29s63 -5.83301 77 -17.5s25.333 -26.167 34 -43.5c16.667 -33.333 25 -66.166 25 -98.499s-7.33301 -55.833 -22 -70.5s-32.667 -26.334 -54 -35.001c-36.667 -14 -73.167 -21 -109.5 -21
s-61.333 5.83301 -75 17.5s-24.5 26.334 -32.5 44.001s-13.833 36.5 -17.5 56.5z" />
    <glyph glyph-name="cent" unicode="&#xa2;" horiz-adv-x="1194" 
d="M854 1183c0 15.333 8.33301 23.001 25 23.001l146 3c12 -2 18.667 -9.33301 20 -22l17 -356c-1.33301 -16 -8.66602 -25 -21.999 -27l-147 -22c-14 0 -21 7.33301 -21 22v109c-55.333 10 -114.333 17.333 -177 22l-7 -370l7 -371c70.667 8 131.334 16.333 182.001 25
l3 57c1.33301 16 8.33301 24.667 21 26l138 -6c9.33301 -1.33301 14.666 -9 15.999 -23l18 -313c0 -14 -6.66699 -21 -20 -21h-172c-10 0 -15.667 6.33301 -17 19l3 70c-50 -8.66699 -106.333 -16.667 -169 -24l5 -225c0 -9.33301 -6.33301 -14.666 -19 -15.999l-123 -10
c-14.667 0 -22 7 -22 21v219c-206 2 -333 98.333 -381 289c-16 65.333 -24 133.166 -24 203.499s2.16699 129.666 6.5 177.999s12 94.333 23 138s26 84.334 45 122.001s43.5 71.167 73.5 100.5c62.667 61.333 147 97.666 253 108.999l-2 207c0 14.667 6.66699 22.667 20 24
l131 8c11.333 0 17.666 -5.33301 18.999 -16l-4 -223c62.667 -4.66699 116 -11 160 -19l-3 42c-1.33301 12.667 -2 21.667 -2 27zM354 688.001c-5.33301 -41.333 -8 -91.667 -8 -151s4.5 -111.833 13.5 -157.5s21.833 -82.167 38.5 -109.5c30 -48 77.333 -75 142 -81l1 399
l-4 338c-104 -28 -165 -107.333 -183 -238z" />
    <glyph glyph-name="sterling" unicode="&#xa3;" horiz-adv-x="1364" 
d="M1081 1510c26.667 0 39.998 -13.002 39.998 -39.002v-386c0 -16 -7.33301 -24.667 -22 -26l-188 -14c-11.333 0 -18.333 7.66699 -21 23l27 230c-77.333 18 -141.166 27 -191.499 27s-88 -4.66699 -113 -14s-45.167 -23.666 -60.5 -42.999
c-27.333 -34.667 -41 -91 -41 -169c0 -76.667 2.66699 -167 8 -271l250 31c12 0 19.333 -8 22 -24l20 -161c-1.33301 -12.667 -6.66602 -19 -15.999 -19h-267c8 -168.667 13 -327 15 -475l475 31l-24 162c0 14.667 7.66699 23.334 23 26.001l162 35
c25.333 0 39.333 -13 42 -39l28 -427c0 -15.333 -7.33301 -24 -22 -26l-188 -4c-11.333 0 -18.333 7.66699 -21 23l2 47l-878 -35c-11.333 0 -17.333 8 -18 24l16 174c1.33301 10.667 6.66602 17 15.999 19l184 -15v42c0 113.333 -9 259.333 -27 438h-152
c-10.667 0 -16.667 6.33301 -18 19l-2 141c0 13.333 7 20 21 20l134 -9c-10.667 116 -16 208.833 -16 278.5s6.83301 131 20.5 184s34.834 98.167 63.501 135.5c61.333 79.333 153.333 119 276 119c79.333 0 154 -14.667 224 -44c22.667 -9.33301 46.667 -20 72 -32
c2.66699 10.667 9 17 19 19z" />
    <glyph glyph-name="currency" unicode="&#xa4;" horiz-adv-x="1194" 
d="M851 272c-66 -38.667 -151.167 -58 -255.5 -58s-186.5 17 -246.5 51l-155 -163c-2.66699 -3.33301 -6.33398 -5 -11.001 -5s-9.33398 2.33301 -14.001 7l-108 105c-5.33301 5.33301 -8 10.166 -8 14.499s3.66699 10.166 11 17.499l160 163
c-30.667 65.333 -46 150.5 -46 255.5s14.667 190.833 44 257.5l-176 168c-3.33301 2.66699 -5 6.33398 -5 11.001s2.33301 9.33398 7 14.001l105 108c5.33301 5.33301 10.166 8 14.499 8s10.166 -3.66699 17.499 -11l161 -158c66 39.333 146.5 59 241.5 59
s168.167 -10 219.5 -30l158 166c2.66699 3.33301 6.33398 5 11.001 5s9.33398 -2.33301 14.001 -7l108 -105c5.33301 -5.33301 8 -10.166 8 -14.499s-3.66699 -10.166 -11 -17.499l-143 -146c42.667 -69.333 64 -162.5 64 -279.5s-14.333 -208.5 -43 -274.5l175 -166
c3.33301 -2.66699 5 -6.33398 5 -11.001s-2.33301 -9.33398 -7 -14.001l-105 -108c-5.33301 -5.33301 -10.166 -8 -14.499 -8s-10.166 3.66699 -17.499 11zM810.5 533.5c9.66699 31.667 14.5 73.499 14.5 125.499s-5.5 95.333 -16.5 130s-26.5 61.334 -46.5 80.001
c-32.667 30.667 -79 46 -139 46s-104.833 -4.16699 -134.5 -12.5s-53.5 -22.5 -71.5 -42.5c-32.667 -37.333 -49 -106 -49 -206c0 -131.333 44 -210.333 132 -237c28 -8.66699 60.5 -13 97.5 -13s69.833 4.16699 98.5 12.5s52.5 22 71.5 41s33.333 44.333 43 76z" />
    <glyph glyph-name="yen" unicode="&#xa5;" horiz-adv-x="1364" 
d="M209 476c0 16 4.66699 24.0029 14 24.0029l358 -9l1 142l-341 -4c-8.66699 0.666992 -14.667 2.16699 -18 4.5s-5.33301 7.5 -6 15.5l-8 128c0 11.333 5.33301 17.666 16 18.999l302 -3l-322 516l-82 -6c-17.333 0 -26.666 10.667 -27.999 32l-10 168
c0 11.333 2.33301 18.666 7 21.999s12.667 5 24 5l413 10c14.667 -2 22.667 -12 24 -30l10 -166c-1.33301 -11.333 -4 -18.833 -8 -22.5s-11.333 -5.5 -22 -5.5l-68 1l250 -506l236 513l-71 -9c-8 0 -13.5 1.66699 -16.5 5s-5.16699 9.33301 -6.5 18l-15 162
c1.33301 18.667 11.333 28.667 30 30l386 17c14.667 -1.33301 22 -12 22 -32l-10 -157c-0.666992 -10.667 -3 -18.167 -7 -22.5s-11.667 -6.5 -23 -6.5h-76l-285 -536l275 3c10.667 0 16 -6.33301 16 -19v-118c0 -16 -4.66699 -24 -14 -24l-351 -1l-2 -142l335 14
c8.66699 -0.666992 14.667 -2.16699 18 -4.5s5.33301 -7.5 6 -15.5l8 -127c0 -12.667 -5.33301 -19 -16 -19h-354l-2 -138l134 3c14 0 21.667 -7.33301 23 -22l7 -169c-0.666992 -8.66699 -2 -14.667 -4 -18s-6.66699 -5 -14 -5l-492 -15
c-8 1.33301 -13.833 3.16602 -17.5 5.49902s-5.83398 7.5 -6.50098 15.5l-16 176c0 14.667 6 22 18 22l149 3l1 142h-355c-10.667 0 -16 6.33301 -16 19v117z" />
    <glyph glyph-name="brokenbar" unicode="&#xa6;" horiz-adv-x="851" 
d="M325 1618c1.33301 10.667 7.66699 16.001 19 16.001l151 2c13.333 -1.33301 20 -9.33301 20 -24l4 -836c0 -13.333 -8 -20.333 -24 -21l-141 -10c-12.667 1.33301 -19 6.66602 -19 15.999zM344.001 -534.999c-12.667 1.33301 -19 6.66602 -19 15.999l10 843
c0 12.667 6.33301 19.334 19 20.001l151 12c13.333 -1.33301 20 -9.33301 20 -24l-6 -836c0 -12.667 -6.33301 -19.667 -19 -21z" />
    <glyph glyph-name="section" unicode="&#xa7;" horiz-adv-x="1190" 
d="M380 983c-102 72 -152.999 159.667 -152.999 263c0 122.667 34.667 219.334 104 290.001c66 66.667 155 100 267 100c141.333 0 262.333 -15.333 363 -46c10.667 -2.66699 16 -12.334 16 -29.001l-16 -185c-0.666992 -14 -7.33398 -21 -20.001 -21
c-10 0 -28 6.16699 -54 18.5s-48 22 -66 29s-37 13.5 -57 19.5c-44.667 13.333 -84 20 -118 20s-62 -2.16699 -84 -6.5s-41.333 -12.166 -58 -23.499c-34.667 -25.333 -52 -68.333 -52 -129c0 -52.667 22.333 -98.334 67 -137.001c22 -18.667 49 -37 81 -55l108 -60
c125.333 -67.333 211.666 -126.333 258.999 -177c48 -50.667 72 -116 72 -196s-19.333 -150.333 -58 -211s-93.334 -102.334 -164.001 -125.001c60.667 -31.333 101.334 -59.666 122.001 -84.999c34.667 -44.667 52 -97 52 -157c0 -130 -34.167 -226.667 -102.5 -290
s-174.833 -95 -319.5 -95c-118 0 -227.333 9.66699 -328 29c-25.333 4 -39.333 17 -42 39l25 165c2.66699 14.667 10.667 22 24 22c6.66699 0 21.334 -3.33301 44.001 -10l72 -18c97.333 -25.333 167.833 -38 211.5 -38s76.5 4.16699 98.5 12.5s40 20.166 54 35.499
c26.667 28 40 67.667 40 119c0 39.333 -25 77 -75 113c-24 16.667 -52.667 33.334 -86 50.001l-110 55c-130 62 -213.333 110.5 -250 145.5s-61.667 67.667 -75 98s-20 65.5 -20 105.5s5.33301 78.833 16 116.5s26 72.167 46 103.5c40.667 66 96 114.333 166 145z
M375.001 649c0 -85.333 70.999 -158.334 212.999 -219.001c26.667 -3.33301 50.334 -5 71.001 -5s42 6.5 64 19.5s40.333 30.167 55 51.5c30.667 43.333 46 95.666 46 156.999c0 32.667 -8.66699 58.334 -26 77.001c-36 38 -93.333 76.667 -172 116
c-10 4.66699 -19.333 8.33398 -28 11.001c-16 4.66699 -34.5 7 -55.5 7s-42.5 -5.83301 -64.5 -17.5s-40.667 -27.167 -56 -46.5c-31.333 -40.667 -47 -91 -47 -151z" />
    <glyph glyph-name="dieresis" unicode="&#xa8;" horiz-adv-x="900" 
d="M275 1342c-21.333 -3.33301 -46.166 -5.00098 -74.499 -5.00098s-50.333 2 -66 6s-28.167 11 -37.5 21c-18 18 -27 46.167 -27 84.5s2.16699 66.333 6.5 84s12.5 31.5 24.5 41.5c20.667 17.333 54 26 100 26s76.833 -1.66699 92.5 -5s28.5 -9.66602 38.5 -18.999
c18 -16.667 27 -44.667 27 -84s-2.33301 -68.333 -7 -87s-13.334 -33 -26.001 -43s-29.667 -16.667 -51 -20zM746 1342c-21.333 -3.33301 -46.166 -5.00098 -74.499 -5.00098s-50.333 2 -66 6s-28.167 11 -37.5 21c-18 18 -27 46.167 -27 84.5s2.16699 66.333 6.5 84
s12.5 31.5 24.5 41.5c20.667 17.333 54 26 100 26s76.833 -1.66699 92.5 -5s28.167 -9.66602 37.5 -18.999c18.667 -16.667 28 -44.667 28 -84s-2.33301 -68.333 -7 -87s-13.334 -33 -26.001 -43s-29.667 -16.667 -51 -20z" />
    <glyph glyph-name="copyright" unicode="&#xa9;" horiz-adv-x="1703" 
d="M863 -94c-136 0 -252.5 18.165 -349.5 54.498s-177.5 89.5 -241.5 159.5c-128 138.667 -192 341.334 -192 608.001c0 479.333 174.667 765 524 857c76 20 172.167 30 288.5 30s222.5 -18.167 318.5 -54.5s174.333 -89.5 235 -159.5c118 -135.333 177 -340 177 -614
c0 -285.333 -57 -499.666 -171 -642.999c-126 -158.667 -322.333 -238 -589 -238zM1082.5 1451c-61.667 16.667 -135.666 24.999 -221.999 24.999s-163.333 -10 -231 -30s-125 -47.5 -172 -82.5s-85.167 -76.167 -114.5 -123.5s-52.333 -98.333 -69 -153
c-28 -92 -42 -197.833 -42 -317.5s9.5 -222 28.5 -307s51.833 -158.5 98.5 -220.5c99.333 -132 259.333 -198 480 -198c329.333 0 530.666 133.333 603.999 400c23.333 84.667 35 171.834 35 261.501s-3.83301 166.834 -11.5 231.501s-20.5 124.5 -38.5 179.5
s-42.167 104.667 -72.5 149s-68 82.166 -113 113.499s-98.333 55.333 -160 72zM829.001 1286c56.667 0 119.999 -11.668 189.999 -35.001l111 18c18 0 27.667 -9 29 -27l1 -309c0 -11.333 -5 -17 -15 -17l-115 -3c-8.66699 0 -13.334 5.33301 -14.001 16l-14 180
c-49.333 12 -97.833 18 -145.5 18s-86.5 -5.83301 -116.5 -17.5s-54 -31.5 -72 -59.5c-32.667 -50 -49 -144.333 -49 -283c0 -143.333 19.667 -244.666 59 -303.999c36.667 -55.333 99.334 -83 188.001 -83c38.667 0 88.334 10.667 149.001 32v125
c0 7.33301 5.33301 12.333 16 15l114 20c8 0 13 -5.33301 15 -16l17 -307c0 -8 -5.33301 -12 -16 -12l-114 38c-79.333 -35.333 -155 -53 -227 -53c-248.667 0 -373 184 -373 552c0 341.333 127.333 512 382 512z" />
    <glyph glyph-name="ordfeminine" unicode="&#xaa;" horiz-adv-x="1021" 
d="M311 1503c82 39.333 159.333 58.998 232 58.998c94.667 0 154 -42 178 -126c8.66699 -30.667 13 -62.167 13 -94.5s-0.333008 -63.833 -1 -94.5s-1.66699 -63.667 -3 -99l-4 -105c-1.33301 -35.333 -2.66602 -67.666 -3.99902 -96.999l90 8c9.33301 0 14 -4.33301 14 -13
l-12 -147c-0.666992 -7.33301 -5.66699 -11.666 -15 -12.999l-206 -13c-6.66699 0 -10 5 -10 15l6 80c-62 -65.333 -136 -98 -222 -98c-120 0 -197.667 40.667 -233 122c-12.667 28 -19 63.833 -19 107.5s8.16699 81.5 24.5 113.5s40.5 57.333 72.5 76
c56 33.333 149.667 50 281 50h38c11.333 0 24.666 -0.666992 39.999 -2v39c0 92.667 -36.333 139 -109 139c-54 0 -102.333 -6 -145 -18l13 -62c0 -10 -5 -15 -15 -15l-135 -2c-8.66699 0 -13 5 -13 15l-12 234c0.666992 12 5.66699 18 15 18l133 5c9.33301 0 14 -5 14 -15z
M278 1002c0 -60 42.3311 -89.999 126.998 -89.999c60.667 0 114.334 9.66699 161.001 29l3 172c-113.333 0 -185.166 -5.33301 -215.499 -16s-50.5 -23.334 -60.5 -38.001s-15 -33.667 -15 -57z" />
    <glyph glyph-name="guillemotleft" unicode="&#xab;" horiz-adv-x="1533" 
d="M115 506l-17.002 17.002c-5.33301 6 -8 12 -8 18l10 76c2 11.333 7.66699 21.666 17 30.999l547 507c3.33301 3.33301 8.5 5 15.5 5s13.167 -2.66699 18.5 -8l68 -67c4 -4 6 -8.33301 6 -13s-1.33301 -8.33398 -4 -11.001l-415 -484l422 -473c4 -5.33301 6 -10.333 6 -15
s-2.66699 -9.66699 -8 -15l-72 -70c-5.33301 -5.33301 -10.166 -8 -14.499 -8s-8.16602 1.66699 -11.499 5zM754.998 506.002l-17.002 17.002c-5.33301 6 -8 12 -8 18l10 76c2 11.333 7.66699 21.666 17 30.999l547 507c3.33301 3.33301 8.5 5 15.5 5
s13.167 -2.66699 18.5 -8l68 -67c4 -4 6 -8.33301 6 -13s-1.33301 -8.33398 -4 -11.001l-415 -484l422 -473c4 -5.33301 6 -10.333 6 -15s-2.66699 -9.66699 -8 -15l-72 -70c-5.33301 -5.33301 -10.166 -8 -14.499 -8s-8.16602 1.66699 -11.499 5z" />
    <glyph glyph-name="logicalnot" unicode="&#xac;" horiz-adv-x="1194" 
d="M181 568c-9.33301 1.33301 -13.999 9.33301 -13.999 24l10 161c1.33301 12.667 6.66602 19 15.999 19l814 11c12.667 -0.666992 19 -7.66699 19 -21v-360c0 -10.667 -6.33301 -16.667 -19 -18l-161 -12c-8 1.33301 -13.167 3.5 -15.5 6.5s-3.83301 8.83301 -4.5 17.5
l7 203z" />
    <glyph glyph-name="uni00AD" unicode="&#xad;" horiz-adv-x="1194" 
d="M1000 772c10.667 -1.33301 16.001 -7.66699 16.001 -19l-18 -151c-1.33301 -8 -3.5 -13.167 -6.5 -15.5s-8.83301 -3.83301 -17.5 -4.5l-783 -4c-9.33301 0 -14 8 -14 24l10 141c1.33301 12.667 6.66602 19 15.999 19z" />
    <glyph glyph-name="registered" unicode="&#xae;" horiz-adv-x="1703" 
d="M863 -94c-136 0 -252.5 18.165 -349.5 54.498s-177.5 89.5 -241.5 159.5c-128 138.667 -192 341.334 -192 608.001c0 479.333 174.667 765 524 857c76 20 172.167 30 288.5 30s222.5 -18.167 318.5 -54.5s174.333 -89.5 235 -159.5c118 -135.333 177 -340 177 -614
c0 -285.333 -57 -499.666 -171 -642.999c-126 -158.667 -322.333 -238 -589 -238zM1082.5 1451c-61.667 16.667 -135.666 24.999 -221.999 24.999s-163.333 -10 -231 -30s-125 -47.5 -172 -82.5s-85.167 -76.167 -114.5 -123.5s-52.333 -98.333 -69 -153
c-28 -92 -42 -197.833 -42 -317.5s9.5 -222 28.5 -307s51.833 -158.5 98.5 -220.5c99.333 -132 259.333 -198 480 -198c329.333 0 530.666 133.333 603.999 400c23.333 84.667 35 171.834 35 261.501s-3.83301 166.834 -11.5 231.501s-20.5 124.5 -38.5 179.5
s-42.167 104.667 -72.5 149s-68 82.166 -113 113.499s-98.333 55.333 -160 72zM625.001 1105c-48 -5.33301 -77.999 -7.99902 -89.999 -7.99902c-20 0 -30 6.33301 -30 19l17 122c3.33301 12 8.66602 19 15.999 21c104.667 14 195.334 21 272.001 21s138.667 -5.5 186 -16.5
s87.333 -28.833 120 -53.5c65.333 -51.333 98 -136 98 -254c0 -148 -55.333 -242 -166 -282l103 -245l86 10c14.667 -1.33301 22 -9 22 -23l1 -108c0 -22 -8.33301 -34.333 -25 -37l-174 -15c-11.333 0 -18.666 4.66699 -21.999 14l-138 384
c-60.667 0 -106.334 2 -137.001 6l-10 -256l79 4c7.33301 0 11 -4.33301 11 -13l5 -128c-0.666992 -8 -6.33398 -12 -17.001 -12h-304c-6.66699 0 -10.667 5.66699 -12 17l5 124c0 7.33301 4.33301 11.666 13 12.999l67 -6zM941.002 1110
c-23.333 4.66699 -45.667 7.00098 -67 7.00098c-34 0 -64.333 -0.666992 -91 -2l-14 -333c12.667 -1.33301 25.667 -2 39 -2h48c66 0 114.167 13 144.5 39s45.5 70.667 45.5 134c0 89.333 -35 141.666 -105 156.999z" />
    <glyph glyph-name="macron" unicode="&#xaf;" horiz-adv-x="900" 
d="M776 1611c10.667 -1.33301 16.001 -7.66699 16.001 -19l-18 -171c-1.33301 -8 -3.5 -13.333 -6.5 -16s-8.83301 -4 -17.5 -4l-629 6c-9.33301 0 -14 8 -14 24l10 151c1.33301 12.667 6.66602 19 15.999 19z" />
    <glyph glyph-name="degree" unicode="&#xb0;" horiz-adv-x="851" 
d="M698.5 1475.5c11.667 -35.667 17.5 -75.334 17.5 -119.001s-6.5 -84 -19.5 -121s-32.167 -68.833 -57.5 -95.5c-53.333 -55.333 -127.333 -83 -222 -83c-90.667 0 -161.334 29 -212.001 87c-47.333 54 -71 123 -71 207c0 135.333 54 226.333 162 273
c36.667 16 80.167 24 130.5 24s93.5 -7.16699 129.5 -21.5s65.833 -34.166 89.5 -59.499s41.334 -55.833 53.001 -91.5zM486.5 1493.5c-15.667 8.33301 -35.498 12.5029 -59.498 12.5029s-44.667 -4.66699 -62 -14s-31 -21.333 -41 -36c-18 -27.333 -27 -56.5 -27 -87.5
s2.33301 -55.333 7 -73s12 -33.834 22 -48.501c23.333 -32.667 56 -49 98 -49c63.333 0 104.666 33.333 123.999 100c6 19.333 9 39.166 9 59.499s-2.5 39.333 -7.5 57s-12.833 33.167 -23.5 46.5s-23.834 24.166 -39.501 32.499z" />
    <glyph glyph-name="plusminus" unicode="&#xb1;" horiz-adv-x="1194" 
d="M165 763c1.33301 12.667 6.66797 18.999 16.001 18.999l322 4l-8 338c0 13.333 6.33301 20.333 19 21l161 -8c13.333 -1.33301 20 -9.33301 20 -24l-10 -325l326 4c12 -1.33301 18 -7.66602 18 -18.999l-3 -161c0 -8 -1.83301 -13.167 -5.5 -15.5
s-9.83398 -3.83301 -18.501 -4.5l-319 10l6 -364c0 -9.33301 -8 -14.666 -24 -15.999l-151 7c-12.667 1.33301 -19 6.66602 -19 15.999l8 356l-314 -13c-8 0 -12.667 8 -14 24zM998.002 161.999c10.667 -1.33301 16.001 -7.66699 16.001 -19l-18 -151
c-1.33301 -8 -3.5 -13.167 -6.5 -15.5s-8.83301 -3.83301 -17.5 -4.5l-783 -4c-9.33301 0 -14 8 -14 24l10 141c1.33301 12.667 6.66602 19 15.999 19z" />
    <glyph glyph-name="twosuperior" unicode="&#xb2;" horiz-adv-x="851" 
d="M242 1662c11.333 0 17.668 -5.33398 19.001 -16.001l-2 -54c68 34 133.333 51 196 51c53.333 0 98 -18.667 134 -56c37.333 -38.667 56 -89.334 56 -152.001c0 -52 -20.667 -107 -62 -165c-22.667 -31.333 -53 -68 -91 -110l-143 -149l176 11v31
c0 12.667 6.66699 19 20 19l94 4c10.667 0 16 -5 16 -15l-9 -238c-0.666992 -7.33301 -4.33398 -11 -11.001 -11l-112 1c-7.33301 0 -11 4.33301 -11 13l4 32l-359 -4c-5.33301 0 -8.33301 4 -9 12l-12 135c0 4.66699 17.333 25.667 52 63l114 124
c76.667 84.667 121 140.834 133 168.501s18 50.834 18 69.501c0 52.667 -28.667 79 -86 79c-36.667 0 -73.667 -8.66699 -111 -26l-1 -53c0 -8 -3.66699 -12.333 -11 -13l-122 17c-5.33301 0.666992 -8 4.33398 -8 11.001l10 202c0 9.33301 5 14.666 15 15.999z" />
    <glyph glyph-name="threesuperior" unicode="&#xb3;" horiz-adv-x="851" 
d="M266 1594c66 28 122.669 42.002 170.002 42.002s82.333 -4.5 105 -13.5s41 -21.167 55 -36.5c28 -29.333 42 -70.833 42 -124.5s-13.167 -97.334 -39.5 -131.001s-65.5 -61.5 -117.5 -83.5c61.333 -11.333 109.5 -34.833 144.5 -70.5s52.5 -75.5 52.5 -119.5
s-4.33301 -79.667 -13 -107s-22.334 -50.666 -41.001 -69.999c-37.333 -40.667 -94.666 -61 -171.999 -61c-69.333 0 -135.333 9.33301 -198 28l11 -53c0 -6 -4 -9 -12 -9l-137 -7c-13.333 0.666992 -20.333 7 -21 19l-14 187c0 6 4 9.66699 12 11l139 18
c6.66699 0 10 -4 10 -12v-43c46 -12.667 86.667 -19 122 -19s63.5 7.5 84.5 22.5s31.5 36.667 31.5 65s-2.33301 49.666 -7 63.999s-11 26.833 -19 37.5c-16.667 22 -33.334 33 -50.001 33c-25.333 0 -49.333 -2.33301 -72 -7c-38 -8.66699 -61.5 -13 -70.5 -13
s-13.5 3.66699 -13.5 11l-7 113c0 10 5 15.667 15 17c123.333 14 185 66.667 185 158c0 28.667 -7.5 48.167 -22.5 58.5s-38.167 15.5 -69.5 15.5s-63.333 -11.333 -96 -34l4 -42c-1.33301 -8.66699 -5 -13.334 -11 -14.001l-140 -8c-4.66699 0 -7.33398 4 -8.00098 12
l10 202c0 10.667 5 16 15 16l130 -2c12 0 18.667 -5.33301 20 -16z" />
    <glyph glyph-name="acute" unicode="&#xb4;" horiz-adv-x="900" 
d="M769 1649c3.33301 -4.66699 5 -10.334 5 -17.001s-2.66699 -12.334 -8 -17.001l-462 -340c-4 -2.66699 -8 -4 -12 -4s-8 2 -12 6l-67 68c-5.33301 6.66699 -8 12.834 -8 18.501s1.66699 10.834 5 15.501l383 420c6 7.33301 13.167 11 21.5 11s15.5 -3.66699 21.5 -11z
" />
    <glyph glyph-name="mu" unicode="&#xb5;" horiz-adv-x="1194" 
d="M145 -432c-10.667 0 -16 7.99902 -16 23.999l-10 1511c0 14 8 21.667 24 23l177 11c14 -1.33301 21 -8.33301 21 -21l-27 -684c2 -111.333 39.333 -175.666 112 -192.999c22 -5.33301 46.667 -8 74 -8s53.333 2.66699 78 8s48.334 13 71.001 23
c39.333 16.667 84.666 44.667 135.999 84l-18 766c2 13.333 9.33301 20.666 22 21.999l160 6c14 0 21 -8 21 -24l20 -906l150 -3c14 0 21.667 -8 23 -24l12 -153c-1.33301 -11.333 -9.33301 -18.333 -24 -21l-297 -30c-23.333 0 -37 12.667 -41 38l-22 142
c-96 -97.333 -199.333 -146 -310 -146c-65.333 0 -121 15.333 -167 46l27 -438c-0.666992 -8.66699 -2.66699 -14.167 -6 -16.5s-9 -4.16602 -17 -5.49902z" />
    <glyph glyph-name="mu" unicode="&#x3bc;" horiz-adv-x="1194" 
d="M145 -432c-10.667 0 -16 7.99902 -16 23.999l-10 1511c0 14 8 21.667 24 23l177 11c14 -1.33301 21 -8.33301 21 -21l-27 -684c2 -111.333 39.333 -175.666 112 -192.999c22 -5.33301 46.667 -8 74 -8s53.333 2.66699 78 8s48.334 13 71.001 23
c39.333 16.667 84.666 44.667 135.999 84l-18 766c2 13.333 9.33301 20.666 22 21.999l160 6c14 0 21 -8 21 -24l20 -906l150 -3c14 0 21.667 -8 23 -24l12 -153c-1.33301 -11.333 -9.33301 -18.333 -24 -21l-297 -30c-23.333 0 -37 12.667 -41 38l-22 142
c-96 -97.333 -199.333 -146 -310 -146c-65.333 0 -121 15.333 -167 46l27 -438c-0.666992 -8.66699 -2.66699 -14.167 -6 -16.5s-9 -4.16602 -17 -5.49902z" />
    <glyph glyph-name="paragraph" unicode="&#xb6;" horiz-adv-x="1529" 
d="M684 730c-33.333 -3.33301 -69.1689 -4.99902 -107.502 -4.99902s-83.666 9.83301 -135.999 29.5s-97.833 48.5 -136.5 86.5c-83.333 82 -125 193.333 -125 334c0 169.333 61 294.666 183 375.999c104 69.333 247.333 104 430 104c206 0 392 -17 558 -51
c14.667 -2.66699 22.667 -13 24 -31l-9 -140c-3.33301 -18.667 -11.666 -28 -24.999 -28l-161 15l19 -1686c0 -15.333 -6 -23.333 -18 -24l-124 -16c-16 0 -24 6.66699 -24 20l-8 1716c-25.333 1.33301 -52 2.33301 -80 3l-86 2l-9 -1711c0 -16 -6 -24 -18 -24l-152 4
c-16 0 -24 8.33301 -24 25z" />
    <glyph glyph-name="periodcentered" unicode="&#xb7;" horiz-adv-x="512" 
d="M415.5 675c3.66699 -20 5.5 -38.668 5.5 -56.001s-5.83301 -33.166 -17.5 -47.499s-27.167 -26.166 -46.5 -35.499c-40 -19.333 -78.667 -29 -116 -29s-63 5.83301 -77 17.5s-25.333 26.167 -34 43.5c-16.667 33.333 -25 66.166 -25 98.499s7.33301 55.833 22 70.5
s32.667 26.334 54 35.001c36.667 14 73.167 21 109.5 21s61.333 -5.83301 75 -17.5s24.5 -26.334 32.5 -44.001s13.833 -36.5 17.5 -56.5z" />
    <glyph glyph-name="cedilla" unicode="&#xb8;" horiz-adv-x="900" 
d="M420 -374c55.333 0 83.001 23.001 83.001 69.001c0 19.333 -6.16699 36 -18.5 50s-27.833 21 -46.5 21s-32 -0.5 -40 -1.5s-16 -1.83301 -24 -2.5c-18.667 -2.66699 -29.667 -4 -33 -4s-8.83301 4.16699 -16.5 12.5s-15.834 17.833 -24.501 28.5
c-21.333 26 -32 44 -32 54l46 180h119l-22 -145c27.333 6 56.666 9 87.999 9s58 -5.33301 80 -16s40.333 -25 55 -43c30 -36.667 45 -89.334 45 -158.001c0 -134.667 -82.333 -202 -247 -202c-76 0 -139.667 11 -191 33c-14 6 -21 12 -21 18l21 107
c2 11.333 8.33301 17 19 17c4.66699 0 16.334 -2.33301 35.001 -7c53.333 -13.333 95 -20 125 -20z" />
    <glyph glyph-name="onesuperior" unicode="&#xb9;" horiz-adv-x="851" 
d="M191 1030c0 6 2.66699 9.00098 8 9.00098l118 -9v412l-125 -18c-6 0 -9.33301 3.66699 -10 11l-17 103c0 6 3.66699 10.667 11 14l181 84c6 3.33301 12 5 18 5l124 -17c6 -0.666992 9 -4.33398 9 -11.001l-8 -137l-6 -445l117 8c5.33301 0 8 -3 8 -9l-5 -160
c0 -8 -2.33301 -12 -7 -12l-410 7c-7.33301 0 -11.333 3.33301 -12 10z" />
    <glyph glyph-name="ordmasculine" unicode="&#xba;" horiz-adv-x="1021" 
d="M151 960.5c-16 52.333 -24.001 116.5 -24.001 192.5s7.5 140.5 22.5 193.5s36.5 96.167 64.5 129.5c53.333 65.333 130.333 98 231 98c112.667 0 196 -27.333 250 -82c65.333 -66 98 -178.667 98 -338c0 -214.667 -61.333 -344 -184 -388c-40 -14 -86.167 -21 -138.5 -21
s-99.666 6.83301 -141.999 20.5s-78.5 36.5 -108.5 68.5s-53 74.167 -69 126.5zM617.999 1297.5c-10 35.667 -23.333 62.499 -40 80.499c-26 26 -69.833 39 -131.5 39s-103.167 -17.667 -124.5 -53c-24 -37.333 -36 -94.833 -36 -172.5s4.5 -134 13.5 -169
s21.833 -61.833 38.5 -80.5c26.667 -32 73 -48 139 -48c58.667 0 98.667 16 120 48c24 36 36 95.333 36 178s-5 141.834 -15 177.501z" />
    <glyph glyph-name="guillemotright" unicode="&#xbb;" horiz-adv-x="1533" 
d="M778 650l16.002 -17.002c6 -6 9 -12 9 -18l-10 -76c-2 -11.333 -7.66699 -21.666 -17 -30.999l-547 -507c-3.33301 -3.33301 -8.5 -5 -15.5 -5s-13.167 2.66699 -18.5 8l-68 67c-4 4 -6 8.33301 -6 13s1.33301 8.33398 4 11.001l415 484l-422 473
c-4 4.66699 -6 9.5 -6 14.5s2.66699 10.167 8 15.5l72 70c5.33301 5.33301 10.166 8 14.499 8s8.16602 -1.66699 11.499 -5zM1418 649.998l16.002 -17.002c6 -6 9 -12 9 -18l-10 -76c-2 -11.333 -7.66699 -21.666 -17 -30.999l-547 -507c-3.33301 -3.33301 -8.5 -5 -15.5 -5
s-13.167 2.66699 -18.5 8l-68 67c-4 4 -6 8.33301 -6 13s1.33301 8.33398 4 11.001l415 484l-422 473c-4 4.66699 -6 9.5 -6 14.5s2.66699 10.167 8 15.5l72 70c5.33301 5.33301 10.166 8 14.499 8s8.16602 -1.66699 11.499 -5z" />
    <glyph glyph-name="onequarter" unicode="&#xbc;" horiz-adv-x="1533" 
d="M1371 12c0 -6 -2.66602 -8.99805 -7.99902 -8.99805h-351c-5.33301 0 -8 3 -8 9l-5 100c0 8 2.33301 12 7 12l91 -2l4 81l-279 -2c-14.667 0 -23.334 4.66699 -26.001 14l-23 80c-0.666992 3.33301 -1 7.16602 -1 11.499s4.66699 18.166 14 41.499l164 386
c9.33301 22.667 15.166 36.334 17.499 41.001s7.5 7 15.5 7l166 -35c6 -2 9 -5 9 -9s-3.33301 -14 -10 -30l-197 -401l155 6l8 168c0 7.33301 4.33301 11.333 13 12l170 -19c6.66699 -0.666992 10 -4.33398 10 -11.001l-20 -143l86 3
c4.66699 0 7.33398 -3.33301 8.00098 -10l13 -98c0 -6.66699 -3.66699 -10 -11 -10l-98 -1v-86l70 -1c7.33301 0 11.333 -3.33301 12 -10zM1268 1407c5.33301 -4 8 -8.5 8 -13.5s-1.66699 -10.167 -5 -15.5l-473 -640l-488 -700c-4 -5.33301 -8.66699 -8 -14 -8
s-10.666 1.66699 -15.999 5l-90 64c-5.33301 3.33301 -8 7.5 -8 12.5s2.33301 11.167 7 18.5l498 691l460 652c4 6 8.16699 9 12.5 9s9.16602 -1.66699 14.499 -5zM169.001 930.002c0 6 2.66699 9.00098 8 9.00098l118 -9v412l-125 -18c-6 0 -9.33301 3.66699 -10 11
l-17 103c0 6 3.66699 10.667 11 14l181 84c6 3.33301 12 5 18 5l124 -17c6 -0.666992 9 -4.33398 9 -11.001l-8 -137l-6 -445l117 8c5.33301 0 8 -3 8 -9l-5 -160c0 -8 -2.33301 -12 -7 -12l-410 7c-7.33301 0 -11.333 3.33301 -12 10z" />
    <glyph glyph-name="onehalf" unicode="&#xbd;" horiz-adv-x="1533" 
d="M1254 1407c5.33301 -4 8 -8.5 8 -13.5s-1.66699 -10.167 -5 -15.5l-473 -640l-488 -700c-4 -5.33301 -8.66699 -8 -14 -8s-10.666 1.66699 -15.999 5l-90 64c-5.33301 3.33301 -8 7.5 -8 12.5s2.33301 11.167 7 18.5l498 691l460 652c4 6 8.16699 9 12.5 9
s9.16602 -1.66699 14.499 -5zM155 930c0 6 2.66699 9.00098 8 9.00098l118 -9v412l-125 -18c-6 0 -9.33301 3.66699 -10 11l-17 103c0 6 3.66699 10.667 11 14l181 84c6 3.33301 12 5 18 5l124 -17c6 -0.666992 9 -4.33398 9 -11.001l-8 -137l-6 -445l117 8
c5.33301 0 8 -3 8 -9l-5 -160c0 -8 -2.33301 -12 -7 -12l-410 7c-7.33301 0 -11.333 3.33301 -12 10zM991 803.001c11.333 0 17.668 -5.33301 19.001 -16l-2 -54c68 34 133.333 51 196 51c53.333 0 98 -18.667 134 -56c37.333 -38.667 56 -89.334 56 -152.001
c0 -52 -20.667 -106.667 -62 -164c-22.667 -32 -53 -68.667 -91 -110l-143 -150l176 11v31c0 12.667 6.66699 19 20 19l94 4c10.667 0 16 -5 16 -15l-9 -238c-0.666992 -7.33301 -4.33398 -11 -11.001 -11l-112 1c-7.33301 0 -11 4.33301 -11 13l4 32l-359 -4
c-5.33301 0 -8.33301 4 -9 12l-12 135c0 4.66699 17.667 26 53 64l112 122c77.333 85.333 122 141.833 134 169.5s18 50.834 18 69.501c0 52.667 -28.667 79 -86 79c-36.667 0 -73.667 -8.66699 -111 -26l-1 -53c0 -8 -3.66699 -12.333 -11 -13l-122 17
c-5.33301 0.666992 -8 4.33398 -8 11.001l10 202c0 9.33301 5 14.666 15 15.999z" />
    <glyph glyph-name="threequarters" unicode="&#xbe;" horiz-adv-x="1533" 
d="M1408 12c0 -6 -2.66699 -8.99805 -8 -8.99805h-351c-5.33301 0 -8 3 -8 9l-5 100c0 8 2.33301 12 7 12l91 -2l4 81l-279 -2c-13.333 0 -22 4.66699 -26 14l-23 80c-0.666992 3.33301 -1 7.16602 -1 11.499s4.66699 18.166 14 41.499l163 386
c10 22.667 16.167 36.334 18.5 41.001s7.5 7 15.5 7l166 -35c6 -2 9 -5 9 -9s-3.66699 -14 -11 -30l-196 -401l155 6l8 168c0 7.33301 4.33301 11.333 13 12l170 -19c6.66699 -0.666992 10 -4.33398 10 -11.001l-20 -143l86 3c5.33301 0 8 -3.33301 8 -10l13 -98
c0 -6.66699 -3.66699 -10 -11 -10l-98 -1v-86l70 -1c7.33301 0 11.333 -3.33301 12 -10zM1305 1407c5.33301 -4 8 -8.5 8 -13.5s-1.66699 -10.167 -5 -15.5l-473 -640l-488 -700c-4 -5.33301 -8.66699 -8 -14 -8s-10.666 1.66699 -15.999 5l-90 64
c-5.33301 3.33301 -8 7.5 -8 12.5s2.33301 11.167 7 18.5l498 691l460 652c4 6 8.16699 9 12.5 9s9.16602 -1.66699 14.499 -5zM266 1534c66 28 122.669 42.002 170.002 42.002s82.333 -4.5 105 -13.5s41 -21.167 55 -36.5c28 -29.333 42 -70.833 42 -124.5
s-13.167 -97.334 -39.5 -131.001s-65.5 -61.5 -117.5 -83.5c61.333 -11.333 109.5 -34.833 144.5 -70.5s52.5 -75.5 52.5 -119.5s-4.33301 -79.667 -13 -107s-22.334 -50.666 -41.001 -69.999c-37.333 -40.667 -94.666 -61 -171.999 -61c-69.333 0 -135.333 9.33301 -198 28
l11 -53c0 -6 -4 -9 -12 -9l-137 -7c-13.333 0.666992 -20.333 7 -21 19l-14 187c0 6 4 9.66699 12 11l139 18c6.66699 0 10 -4 10 -12v-43c46 -12.667 86.667 -19 122 -19s63.5 7.5 84.5 22.5s31.5 36.667 31.5 65s-2.33301 49.666 -7 63.999s-11 26.833 -19 37.5
c-16.667 22 -33.334 33 -50.001 33c-25.333 0 -49.333 -2.33301 -72 -7c-38 -8.66699 -61.5 -13 -70.5 -13s-13.5 3.66699 -13.5 11l-7 113c0 10 5 15.667 15 17c123.333 14 185 66.667 185 158c0 28.667 -7.5 48.167 -22.5 58.5s-38.167 15.5 -69.5 15.5
s-63.333 -11.333 -96 -34l4 -42c-1.33301 -8.66699 -5 -13.334 -11 -14.001l-140 -8c-4.66699 0 -7.33398 4 -8.00098 12l10 202c0 10.667 5 16 15 16l130 -2c12 0 18.667 -5.33301 20 -16z" />
    <glyph glyph-name="questiondown" unicode="&#xbf;" horiz-adv-x="1023" 
d="M937 32c9.33301 0 14.666 -7.66895 15.999 -23.002l-20 -390c-2 -21.333 -12 -32 -30 -32l-149 4c-23.333 1.33301 -36 12 -38 32l2 60c-106.667 -56 -213 -84 -319 -84c-170.667 0 -279 61 -325 183c-16 41.333 -24 86.833 -24 136.5s6 95 18 136s27.833 81 47.5 120
s42.167 77.167 67.5 114.5l187 263c35.333 50 58.833 89.833 70.5 119.5s19 46.334 22 50.001s8.16699 5.5 15.5 5.5l156 -23c8.66699 -0.666992 13 -5.66699 13 -15s-3.66699 -27.666 -11 -54.999c-15.333 -60.667 -62.333 -148 -141 -262l-77 -112
c-89.333 -135.333 -134 -240.333 -134 -315c0 -66.667 33.333 -111.667 100 -135c20 -6.66699 43.5 -10 70.5 -10s52.333 1.66699 76 5s46.167 8 67.5 14c34 9.33301 76 27 126 53l4 128c0.666992 8.66699 1.83398 15 3.50098 19s7.5 6.33301 17.5 7zM382.5 987.998
c-3.66699 20 -5.5 38.667 -5.5 56s5.83301 33.166 17.5 47.499s27.167 26.166 46.5 35.499c40 19.333 78.667 29 116 29s63 -5.83301 77 -17.5s25.333 -26.167 34 -43.5c16.667 -33.333 25 -66.166 25 -98.499s-7.33301 -55.833 -22 -70.5s-32.667 -26 -54 -34
c-36.667 -14.667 -73.167 -22 -109.5 -22s-61.333 5.83301 -75 17.5s-24.5 26.334 -32.5 44.001s-13.833 36.5 -17.5 56.5z" />
    <glyph glyph-name="Agrave" unicode="&#xc0;" 
d="M56 2c-14.667 1.33301 -22 12.001 -22 32.001v167c0 10.667 2.16699 18 6.5 22s12.166 6.33301 23.499 7l92 -4l396 1284c4 12.667 12 19.667 24 21l227 8c12 -0.666992 20.333 -8.33398 25 -23.001l432 -1283l91 3c18.667 -1.33301 28 -12 28 -32v-158
c0 -11.333 -2.33301 -18.666 -7 -21.999s-12.667 -5 -24 -5h-463c-12 0 -19 2.66699 -21 8s-3 12.666 -3 21.999l20 146c1.33301 11.333 4 18.833 8 22.5s11.333 5.5 22 5.5l114 3l-86 266l-495 10l-81 -290l121 12c8 0 13.5 -1.66699 16.5 -5s5.16699 -9.33301 6.5 -18
l15 -152c-1.33301 -11.333 -4.16602 -19 -8.49902 -23s-11.5 -6.33301 -21.5 -7zM491 672.001h389l-210 643zM399 2006c4 9.33301 10 14 18 14s16 -2 24 -6l492 -276c6 -3.33301 9 -7 9 -11s-1.33301 -9.33301 -4 -16l-39 -92c-2.66699 -6.66699 -6.5 -10 -11.5 -10
s-9.83301 1 -14.5 3l-533 193c-10 4 -15 9.83301 -15 17.5s1.33301 14.167 4 19.5z" />
    <glyph glyph-name="Aacute" unicode="&#xc1;" 
d="M56 2c-14.667 1.33301 -22 12.001 -22 32.001v167c0 10.667 2.16699 18 6.5 22s12.166 6.33301 23.499 7l92 -4l396 1284c4 12.667 12 19.667 24 21l227 8c12 -0.666992 20.333 -8.33398 25 -23.001l432 -1283l91 3c18.667 -1.33301 28 -12 28 -32v-158
c0 -11.333 -2.33301 -18.666 -7 -21.999s-12.667 -5 -24 -5h-463c-12 0 -19 2.66699 -21 8s-3 12.666 -3 21.999l20 146c1.33301 11.333 4 18.833 8 22.5s11.333 5.5 22 5.5l114 3l-86 266l-495 10l-81 -290l121 12c8 0 13.5 -1.66699 16.5 -5s5.16699 -9.33301 6.5 -18
l15 -152c-1.33301 -11.333 -4.16602 -19 -8.49902 -23s-11.5 -6.33301 -21.5 -7zM491 672.001h389l-210 643zM1029 1842c2.66699 -5.33301 4.00098 -11.833 4.00098 -19.5s-5 -13.5 -15 -17.5l-494 -207c-5.33301 -2 -10.333 -3 -15 -3s-8.33398 3.33301 -11.001 10l-39 92
c-2.66699 6.66699 -4 12 -4 16s3 7.66699 9 11l453 290c8 4 16 6 24 6s14 -4.66699 18 -14z" />
    <glyph glyph-name="Acircumflex" unicode="&#xc2;" 
d="M56 2c-14.667 1.33301 -22 12.001 -22 32.001v167c0 10.667 2.16699 18 6.5 22s12.166 6.33301 23.499 7l92 -4l396 1284c4 12.667 12 19.667 24 21l227 8c12 -0.666992 20.333 -8.33398 25 -23.001l432 -1283l91 3c18.667 -1.33301 28 -12 28 -32v-158
c0 -11.333 -2.33301 -18.666 -7 -21.999s-12.667 -5 -24 -5h-463c-12 0 -19 2.66699 -21 8s-3 12.666 -3 21.999l20 146c1.33301 11.333 4 18.833 8 22.5s11.333 5.5 22 5.5l114 3l-86 266l-495 10l-81 -290l121 12c8 0 13.5 -1.66699 16.5 -5s5.16699 -9.33301 6.5 -18
l15 -152c-1.33301 -11.333 -4.16602 -19 -8.49902 -23s-11.5 -6.33301 -21.5 -7zM491 672.001h389l-210 643zM590 1985c19.333 15.333 34.333 23.668 45 25.001l95 10c10.667 0 26 -8.66699 46 -26l302 -251c4.66699 -4.66699 7 -9.5 7 -14.5s-2 -9.83301 -6 -14.5l-61 -73
c-3.33301 -4 -6.83301 -6 -10.5 -6s-8.16699 1.33301 -13.5 4l-320 159l-297 -154c-2.66699 -1.33301 -6 -2 -10 -2s-8 2.66699 -12 8l-62 76c-4 5.33301 -6 9.66602 -6 12.999s1.66699 6.33301 5 9z" />
    <glyph glyph-name="Atilde" unicode="&#xc3;" 
d="M56 2c-14.667 1.33301 -22 12.001 -22 32.001v167c0 10.667 2.16699 18 6.5 22s12.166 6.33301 23.499 7l92 -4l396 1284c4 12.667 12 19.667 24 21l227 8c12 -0.666992 20.333 -8.33398 25 -23.001l432 -1283l91 3c18.667 -1.33301 28 -12 28 -32v-158
c0 -11.333 -2.33301 -18.666 -7 -21.999s-12.667 -5 -24 -5h-463c-12 0 -19 2.66699 -21 8s-3 12.666 -3 21.999l20 146c1.33301 11.333 4 18.833 8 22.5s11.333 5.5 22 5.5l114 3l-86 266l-495 10l-81 -290l121 12c8 0 13.5 -1.66699 16.5 -5s5.16699 -9.33301 6.5 -18
l15 -152c-1.33301 -11.333 -4.16602 -19 -8.49902 -23s-11.5 -6.33301 -21.5 -7zM491 672.001h389l-210 643zM266 1842c0 11.333 16.832 31.168 50.499 59.501s61.834 49.5 84.501 63.5c50.667 31.333 93.334 47 128.001 47c28 0 64.5 -12.5 109.5 -37.5
s80.5 -43.667 106.5 -56s48.167 -18.5 66.5 -18.5s35.666 2 51.999 6s32.166 9.16699 47.499 15.5s30 13.166 44 20.499l38 20c22 12.667 36.667 19 44 19s13.333 -6.33301 18 -19l33 -78c1.33301 -3.33301 2 -7.33301 2 -12c0 -8.66699 -15.833 -27.834 -47.5 -57.501
s-59.167 -52.5 -82.5 -68.5c-53.333 -37.333 -96.166 -56 -128.499 -56s-61.666 5.83301 -87.999 17.5s-52.833 24.167 -79.5 37.5c-70.667 35.333 -115.334 53 -134.001 53s-34.5 -1.66699 -47.5 -5s-26.333 -7.66602 -40 -12.999s-27.167 -11 -40.5 -17l-38 -17
c-21.333 -10 -35.666 -15 -42.999 -15c-10.667 0 -18.334 6.66699 -23.001 20z" />
    <glyph glyph-name="Adieresis" unicode="&#xc4;" 
d="M56 2c-14.667 1.33301 -22 12.001 -22 32.001v167c0 10.667 2.16699 18 6.5 22s12.166 6.33301 23.499 7l92 -4l396 1284c4 12.667 12 19.667 24 21l227 8c12 -0.666992 20.333 -8.33398 25 -23.001l432 -1283l91 3c18.667 -1.33301 28 -12 28 -32v-158
c0 -11.333 -2.33301 -18.666 -7 -21.999s-12.667 -5 -24 -5h-463c-12 0 -19 2.66699 -21 8s-3 12.666 -3 21.999l20 146c1.33301 11.333 4 18.833 8 22.5s11.333 5.5 22 5.5l114 3l-86 266l-495 10l-81 -290l121 12c8 0 13.5 -1.66699 16.5 -5s5.16699 -9.33301 6.5 -18
l15 -152c-1.33301 -11.333 -4.16602 -19 -8.49902 -23s-11.5 -6.33301 -21.5 -7zM491 672.001h389l-210 643zM506 1730c-21.333 -3.33301 -46.166 -5.00098 -74.499 -5.00098s-50.333 2 -66 6s-28.167 11 -37.5 21c-18 18 -27 46.167 -27 84.5s2.16699 66.333 6.5 84
s12.5 31.5 24.5 41.5c20.667 17.333 54 26 100 26s76.833 -1.66699 92.5 -5s28.167 -9.66602 37.5 -18.999c18.667 -16.667 28 -44.667 28 -84s-2.33301 -68.333 -7 -87s-13.334 -33 -26.001 -43s-29.667 -16.667 -51 -20zM977 1730
c-21.333 -3.33301 -46.166 -5.00098 -74.499 -5.00098s-50.333 2 -66 6s-28.167 11 -37.5 21c-18 18 -27 46.167 -27 84.5s2.16699 66.333 6.5 84s12.5 31.5 24.5 41.5c20.667 17.333 54 26 100 26s76.833 -1.66699 92.5 -5s28.5 -9.66602 38.5 -18.999
c18 -16.667 27 -44.667 27 -84s-2.33301 -68.333 -7 -87s-13.334 -33 -26.001 -43s-29.667 -16.667 -51 -20z" />
    <glyph glyph-name="Aring" unicode="&#xc5;" 
d="M966 1766c0 -125.333 -47.333 -205.334 -142 -240.001l436 -1293l91 3c18.667 -1.33301 28 -12 28 -32v-158c0 -11.333 -2.33301 -18.666 -7 -21.999s-12.667 -5 -24 -5h-463c-12 0 -19 2.66699 -21 8s-3 12.666 -3 21.999l20 146c1.33301 11.333 4 18.833 8 22.5
s11.333 5.5 22 5.5l114 3l-86 266l-495 10l-81 -290l121 12c8 0 13.5 -1.66699 16.5 -5s5.16699 -9.33301 6.5 -18l15 -152c-1.33301 -11.333 -4.16602 -19 -8.49902 -23s-11.5 -6.33301 -21.5 -7l-436 -17c-14.667 1.33301 -22 12 -22 32v167c0 10.667 2.16699 18 6.5 22
s12.166 6.33301 23.499 7l92 -4l396 1284l6 12c-101.333 32.667 -152 107.334 -152 224.001c0 176 94.667 264 284 264c142 0 228.667 -46 260 -138c10.667 -30.667 16 -66 16 -106zM491 671.999h389l-210 643zM569 1757c0 -74 38.999 -111.001 116.999 -111.001
c62.667 0 101.334 25 116.001 75c4.66699 14.667 7 33.834 7 57.501s-8.66699 45.5 -26 65.5s-43.333 30 -78 30s-60.167 -3.5 -76.5 -10.5s-28.833 -16.167 -37.5 -27.5c-14.667 -18 -22 -44.333 -22 -79z" />
    <glyph glyph-name="AE" unicode="&#xc6;" horiz-adv-x="1903" 
d="M1539 812c18 -1.33301 27.002 -9.66699 27.002 -25l-13 -156c-1.33301 -15.333 -7.33301 -23 -18 -23l-396 -7l-1 -397l496 18l9 121c2.66699 24.667 16.667 37.667 42 39l135 5c18.667 -0.666992 28.667 -11 30 -31l16 -397c-0.666992 -15.333 -7.66699 -23 -21 -23
l-208 4c-14.667 0 -22 8.66699 -22 26l4 60l-830 -24c-14.667 0 -22.334 8 -23.001 24l6 179c0 14 6.33301 22 19 24l126 -17l16 384l-400 -11l-148 -371l99 10c8 0 13.5 -1.66699 16.5 -5s5.16699 -9.33301 6.5 -18l15 -152c-1.33301 -11.333 -4.16602 -19 -8.49902 -23
s-11.5 -6.33301 -21.5 -7l-436 -17c-14.667 1.33301 -22 12 -22 32v167c0 10.667 2.16699 18 6.5 22s12.166 6.33301 23.499 7l101 -5l517 1265c6 12.667 15 19.667 27 21l1016 42c20 -1.33301 30 -10.333 30 -27l-10 -355c0 -16 -6.66699 -25 -20 -27l-162 -30
c-9.33301 0 -15.333 2.16699 -18 6.5s-4.33398 10.833 -5.00098 19.5l-13 209l-367 -6l-19 -560zM603.002 758.999l335 16l5 573l-102 6z" />
    <glyph glyph-name="Ccedilla" unicode="&#xc7;" 
d="M795 -374c55.333 0 83.002 22.998 83.002 68.998c0 19.333 -6.16699 36 -18.5 50s-27.833 21 -46.5 21s-32 -0.5 -40 -1.5s-16 -1.83301 -24 -2.5c-18.667 -2.66699 -29.667 -4 -33 -4s-8.83301 4.16699 -16.5 12.5s-15.834 17.833 -24.501 28.5
c-21.333 26 -32 44 -32 54l27 107c-266.667 8 -435.334 165 -506.001 471c-22.667 100 -34 217 -34 351s14 249.333 42 346s67.333 175.334 118 236.001c97.333 117.333 236.333 176 417 176c113.333 0 208.666 -12.667 285.999 -38l180 28c26.667 0 40.667 -13 42 -39
l-12 -436c0 -17.333 -7.33301 -26 -22 -26l-168 -4c-12.667 0 -19.667 7.66699 -21 23l-21 257c-81.333 20 -156.333 30 -225 30s-126.667 -10.167 -174 -30.5s-86.333 -53.166 -117 -98.499c-59.333 -88 -89 -235 -89 -441c0 -311.333 75.333 -497.666 226 -558.999
c49.333 -20 109.333 -30 180 -30s145.334 12.667 224.001 38l-5 134c1.33301 12 9.33301 19.333 24 22l166 28c11.333 0 18.333 -7.66699 21 -23l40 -390c0 -10.667 -7.66699 -16.667 -23 -18l-172 -15c-26.667 0 -40.667 13 -42 39l-2 42
c-66 -34.667 -134.333 -56.667 -205 -66l-12 -79c27.333 6 56.666 9 87.999 9s58 -5.33301 80 -16s40.667 -25 56 -43c29.333 -36.667 44 -89.334 44 -158.001c0 -134.667 -82.333 -202 -247 -202c-76 0 -139.667 11 -191 33c-14 6 -21 12 -21 18l21 107
c2 11.333 8.33301 17 19 17c4.66699 0 16.334 -2.33301 35.001 -7c53.333 -13.333 95 -20 125 -20z" />
    <glyph glyph-name="Egrave" unicode="&#xc8;" 
d="M1272 -41c-2.66699 -15.333 -9.66699 -23 -21 -23l-188 4c-14.667 0 -22 8.66699 -22 26l-2 61l-893 -25c-15.333 0 -23.333 8 -24 24l6 184c0 10 5.33301 16.333 16 19l125 -17l-8 1089l-126 -11c-12 0 -18 7.33301 -18 22l11 182c1.33301 12.667 9.33301 19.667 24 21
l999 38c20 -1.33301 30 -10.333 30 -27l-20 -365c0 -15.333 -5.33301 -23 -16 -23l-168 6c-9.33301 0.666992 -15 3 -17 7s-3.33301 10.333 -4 19l-6 172l-473 -25l7 -466l491 31c16.667 0 25.667 -7.66699 27 -23l7 -168c-1.33301 -15.333 -8.33301 -23 -21 -23l-502 -7
l7 -457l540 18l-4 131c1.33301 24.667 15.333 37.667 42 39l162 -5c15.333 -1.33301 23 -7.33301 23 -18zM405 2006c4 9.33301 10 14 18 14s16 -2 24 -6l492 -276c6 -3.33301 9 -7 9 -11s-1.33301 -9.33301 -4 -16l-39 -92c-2.66699 -6.66699 -6.5 -10 -11.5 -10
s-9.83301 1 -14.5 3l-533 193c-10 4 -15 9.83301 -15 17.5s1.33301 14.167 4 19.5z" />
    <glyph glyph-name="Eacute" unicode="&#xc9;" 
d="M1272 -41c-2.66699 -15.333 -9.66699 -23 -21 -23l-188 4c-14.667 0 -22 8.66699 -22 26l-2 61l-893 -25c-15.333 0 -23.333 8 -24 24l6 184c0 10 5.33301 16.333 16 19l125 -17l-8 1089l-126 -11c-12 0 -18 7.33301 -18 22l11 182c1.33301 12.667 9.33301 19.667 24 21
l999 38c20 -1.33301 30 -10.333 30 -27l-20 -365c0 -15.333 -5.33301 -23 -16 -23l-168 6c-9.33301 0.666992 -15 3 -17 7s-3.33301 10.333 -4 19l-6 172l-473 -25l7 -466l491 31c16.667 0 25.667 -7.66699 27 -23l7 -168c-1.33301 -15.333 -8.33301 -23 -21 -23l-502 -7
l7 -457l540 18l-4 131c1.33301 24.667 15.333 37.667 42 39l162 -5c15.333 -1.33301 23 -7.33301 23 -18zM1035 1842c2.66699 -5.33301 4.00098 -11.833 4.00098 -19.5s-5 -13.5 -15 -17.5l-494 -207c-5.33301 -2 -10.333 -3 -15 -3s-8.33398 3.33301 -11.001 10l-39 92
c-2.66699 6.66699 -4 12 -4 16s3 7.66699 9 11l453 290c8 4 16 6 24 6s14 -4.66699 18 -14z" />
    <glyph glyph-name="Ecircumflex" unicode="&#xca;" 
d="M1272 -41c-2.66699 -15.333 -9.66699 -23 -21 -23l-188 4c-14.667 0 -22 8.66699 -22 26l-2 61l-893 -25c-15.333 0 -23.333 8 -24 24l6 184c0 10 5.33301 16.333 16 19l125 -17l-8 1089l-126 -11c-12 0 -18 7.33301 -18 22l11 182c1.33301 12.667 9.33301 19.667 24 21
l999 38c20 -1.33301 30 -10.333 30 -27l-20 -365c0 -15.333 -5.33301 -23 -16 -23l-168 6c-9.33301 0.666992 -15 3 -17 7s-3.33301 10.333 -4 19l-6 172l-473 -25l7 -466l491 31c16.667 0 25.667 -7.66699 27 -23l7 -168c-1.33301 -15.333 -8.33301 -23 -21 -23l-502 -7
l7 -457l540 18l-4 131c1.33301 24.667 15.333 37.667 42 39l162 -5c15.333 -1.33301 23 -7.33301 23 -18zM596 1985c19.333 15.333 34.333 23.668 45 25.001l95 10c10.667 0 26 -8.66699 46 -26l302 -251c4.66699 -4.66699 7 -9.5 7 -14.5s-2 -9.83301 -6 -14.5l-61 -73
c-3.33301 -4 -6.83301 -6 -10.5 -6s-8.16699 1.33301 -13.5 4l-320 159l-297 -154c-2.66699 -1.33301 -6 -2 -10 -2s-8 2.66699 -12 8l-62 76c-4 5.33301 -6 9.66602 -6 12.999s1.66699 6.33301 5 9z" />
    <glyph glyph-name="Edieresis" unicode="&#xcb;" 
d="M1272 -41c-2.66699 -15.333 -9.66699 -23 -21 -23l-188 4c-14.667 0 -22 8.66699 -22 26l-2 61l-893 -25c-15.333 0 -23.333 8 -24 24l6 184c0 10 5.33301 16.333 16 19l125 -17l-8 1089l-126 -11c-12 0 -18 7.33301 -18 22l11 182c1.33301 12.667 9.33301 19.667 24 21
l999 38c20 -1.33301 30 -10.333 30 -27l-20 -365c0 -15.333 -5.33301 -23 -16 -23l-168 6c-9.33301 0.666992 -15 3 -17 7s-3.33301 10.333 -4 19l-6 172l-473 -25l7 -466l491 31c16.667 0 25.667 -7.66699 27 -23l7 -168c-1.33301 -15.333 -8.33301 -23 -21 -23l-502 -7
l7 -457l540 18l-4 131c1.33301 24.667 15.333 37.667 42 39l162 -5c15.333 -1.33301 23 -7.33301 23 -18zM512 1730c-21.333 -3.33301 -46.166 -5.00098 -74.499 -5.00098s-50.333 2 -66 6s-28.167 11 -37.5 21c-18 18 -27 46.167 -27 84.5s2.16699 66.333 6.5 84
s12.5 31.5 24.5 41.5c20.667 17.333 54 26 100 26s76.833 -1.66699 92.5 -5s28.167 -9.66602 37.5 -18.999c18.667 -16.667 28 -44.667 28 -84s-2.33301 -68.333 -7 -87s-13.334 -33 -26.001 -43s-29.667 -16.667 -51 -20zM983 1730
c-21.333 -3.33301 -46.166 -5.00098 -74.499 -5.00098s-50.333 2 -66 6s-28.167 11 -37.5 21c-18 18 -27 46.167 -27 84.5s2.16699 66.333 6.5 84s12.5 31.5 24.5 41.5c20.667 17.333 54 26 100 26s76.833 -1.66699 92.5 -5s28.5 -9.66602 38.5 -18.999
c18 -16.667 27 -44.667 27 -84s-2.33301 -68.333 -7 -87s-13.334 -33 -26.001 -43s-29.667 -16.667 -51 -20z" />
    <glyph glyph-name="Igrave" unicode="&#xcc;" horiz-adv-x="682" 
d="M585 210c10.667 0 16 -6.33203 16 -18.999l-3 -178c0 -13.333 -8 -20 -24 -20l-464 13c-11.333 0 -17.333 8 -18 24l-8 177c1.33301 10.667 6.66602 17 15.999 19l139 -10l-8 1089l-137 1c-12 0 -18 7.33301 -18 22l16 176c0.666992 8 2.83398 13.167 6.50098 15.5
s9.5 4.16602 17.5 5.49902l467 -18c7.33301 -0.666992 12 -2.5 14 -5.5s3.33301 -8.83301 4 -17.5l-7 -159c-1.33301 -14.667 -9 -22 -23 -22h-117l-3 -1093h134zM59 2006c4 9.33301 10 14 18 14s16 -2 24 -6l492 -276c6 -3.33301 9 -7 9 -11s-1.33301 -9.33301 -4 -16
l-39 -92c-2.66699 -6.66699 -6.5 -10 -11.5 -10s-9.83301 1 -14.5 3l-533 193c-10 4 -15 9.83301 -15 17.5s1.33301 14.167 4 19.5z" />
    <glyph glyph-name="Iacute" unicode="&#xcd;" horiz-adv-x="682" 
d="M585 210c10.667 0 16 -6.33203 16 -18.999l-3 -178c0 -13.333 -8 -20 -24 -20l-464 13c-11.333 0 -17.333 8 -18 24l-8 177c1.33301 10.667 6.66602 17 15.999 19l139 -10l-8 1089l-137 1c-12 0 -18 7.33301 -18 22l16 176c0.666992 8 2.83398 13.167 6.50098 15.5
s9.5 4.16602 17.5 5.49902l467 -18c7.33301 -0.666992 12 -2.5 14 -5.5s3.33301 -8.83301 4 -17.5l-7 -159c-1.33301 -14.667 -9 -22 -23 -22h-117l-3 -1093h134zM689 1842c2.66699 -5.33301 4.00098 -11.833 4.00098 -19.5s-5 -13.5 -15 -17.5l-494 -207
c-5.33301 -2 -10.333 -3 -15 -3s-8.33398 3.33301 -11.001 10l-39 92c-2.66699 6.66699 -4 12 -4 16s3 7.66699 9 11l453 290c8 4 16 6 24 6s14 -4.66699 18 -14z" />
    <glyph glyph-name="Icircumflex" unicode="&#xce;" horiz-adv-x="682" 
d="M585 210c10.667 0 16 -6.33203 16 -18.999l-3 -178c0 -13.333 -8 -20 -24 -20l-464 13c-11.333 0 -17.333 8 -18 24l-8 177c1.33301 10.667 6.66602 17 15.999 19l139 -10l-8 1089l-137 1c-12 0 -18 7.33301 -18 22l16 176c0.666992 8 2.83398 13.167 6.50098 15.5
s9.5 4.16602 17.5 5.49902l467 -18c7.33301 -0.666992 12 -2.5 14 -5.5s3.33301 -8.83301 4 -17.5l-7 -159c-1.33301 -14.667 -9 -22 -23 -22h-117l-3 -1093h134zM250 1985c19.333 15.333 34.333 23.668 45 25.001l95 10c10.667 0 26 -8.66699 46 -26l302 -251
c4.66699 -4.66699 7 -9.5 7 -14.5s-2 -9.83301 -6 -14.5l-61 -73c-3.33301 -4 -6.83301 -6 -10.5 -6s-8.16699 1.33301 -13.5 4l-320 159l-297 -154c-2.66699 -1.33301 -6 -2 -10 -2s-8 2.66699 -12 8l-62 76c-4 5.33301 -6 9.66602 -6 12.999s1.66699 6.33301 5 9z" />
    <glyph glyph-name="Idieresis" unicode="&#xcf;" horiz-adv-x="682" 
d="M585 210c10.667 0 16 -6.33203 16 -18.999l-3 -178c0 -13.333 -8 -20 -24 -20l-464 13c-11.333 0 -17.333 8 -18 24l-8 177c1.33301 10.667 6.66602 17 15.999 19l139 -10l-8 1089l-137 1c-12 0 -18 7.33301 -18 22l16 176c0.666992 8 2.83398 13.167 6.50098 15.5
s9.5 4.16602 17.5 5.49902l467 -18c7.33301 -0.666992 12 -2.5 14 -5.5s3.33301 -8.83301 4 -17.5l-7 -159c-1.33301 -14.667 -9 -22 -23 -22h-117l-3 -1093h134zM166 1730c-21.333 -3.33301 -46.166 -5.00098 -74.499 -5.00098s-50.333 2 -66 6s-28.167 11 -37.5 21
c-18 18 -27 46.167 -27 84.5s2.16699 66.333 6.5 84s12.5 31.5 24.5 41.5c20.667 17.333 54 26 100 26s76.833 -1.66699 92.5 -5s28.167 -9.66602 37.5 -18.999c18.667 -16.667 28 -44.667 28 -84s-2.33301 -68.333 -7 -87s-13.334 -33 -26.001 -43s-29.667 -16.667 -51 -20
zM637 1730c-21.333 -3.33301 -46.166 -5.00098 -74.499 -5.00098s-50.333 2 -66 6s-28.167 11 -37.5 21c-18 18 -27 46.167 -27 84.5s2.16699 66.333 6.5 84s12.5 31.5 24.5 41.5c20.667 17.333 54 26 100 26s76.833 -1.66699 92.5 -5s28.5 -9.66602 38.5 -18.999
c18 -16.667 27 -44.667 27 -84s-2.33301 -68.333 -7 -87s-13.334 -33 -26.001 -43s-29.667 -16.667 -51 -20z" />
    <glyph glyph-name="Eth" unicode="&#xd0;" 
d="M246 1313c-40.667 -2.66699 -87.668 -6.66309 -141.001 -11.9961c-7.33301 0 -12 1.66699 -14 5s-3.33301 9 -4 17l-14 186c0.666992 8 2.83398 13.167 6.50098 15.5s9.5 4.16602 17.5 5.49902c66 1.33301 123.5 2.66602 172.5 3.99902s91.667 2.33301 128 3
s67.333 1.16699 93 1.5s48 0.666016 67 0.999023s35.833 0.5 50.5 0.5h42c198.667 0 346 -52 442 -156c111.333 -120 167 -319.333 167 -598c0 -263.333 -56.333 -465.333 -169 -606c-107.333 -132.667 -255.666 -199 -444.999 -199c-198.667 0 -380 8.33301 -544 25
c-11.333 0.666992 -17.333 8.66699 -18 24l12 177c1.33301 10.667 6.66602 17 15.999 19l109 -8l9 384l-131 -6c-16 1.33301 -24 7.66602 -24 18.999l-2 131c0 13.333 5.33301 20 16 20l145 2zM452.999 205.004c56 -4 96.668 -6 122.001 -6h64
c135.333 0 234.833 47 298.5 141s95.5 234.333 95.5 421c0 309.333 -74.333 492 -223 548c-48 18 -91.333 27 -130 27c-66.667 0 -138.334 -2.33301 -215.001 -7l-6 -557h10l306 22c10.667 0 16 -6 16 -18l3 -134v-3c0 -12 -4.33301 -18.333 -13 -19l-324 -6z" />
    <glyph glyph-name="Ntilde" unicode="&#xd1;" horiz-adv-x="1536" 
d="M1472 1325c0 -14.667 -7.66309 -22.001 -22.9961 -22.001l-127 3l-2 -1267c0 -18 -8 -27.667 -24 -29l-242 -13c-8.66699 0 -16.334 7.33301 -23.001 22l-589 1305l24 -1094l157 10c9.33301 0 14.666 -6.33301 15.999 -19l17 -198c-1.33301 -13.333 -9.33301 -20 -24 -20
l-484 3c-9.33301 0 -15.333 8 -18 24l-18 167c1.33301 12.667 6.66602 19 15.999 19l157 4v1081l-183 -8c-7.33301 0.666992 -11.833 2.5 -13.5 5.5s-3.16699 8.5 -4.5 16.5l11 176c1.33301 12.667 9.33301 19.667 24 21l440 22
c17.333 -1.33301 29.666 -10.666 36.999 -27.999l567 -1274l-26 1079l-155 5c-7.33301 0 -12 1.66699 -14 5s-3.33301 9 -4 17l6 166c1.33301 14 9.33301 21 24 21l447 2c7.33301 -0.666992 12 -2.5 14 -5.5s3.33301 -8.83301 4 -17.5zM353.004 1842
c0 11.333 16.834 31.168 50.501 59.501s61.834 49.5 84.501 63.5c50.667 31.333 93.334 47 128.001 47c28 0 64.5 -12.5 109.5 -37.5s80.5 -43.667 106.5 -56s48.167 -18.5 66.5 -18.5s35.666 2 51.999 6s32.166 9.16699 47.499 15.5s30 13.166 44 20.499l38 20
c22 12.667 36.667 19 44 19s13.333 -6.33301 18 -19l33 -78c1.33301 -3.33301 2 -7.33301 2 -12c0 -8.66699 -15.833 -27.834 -47.5 -57.501s-58.834 -52.5 -81.501 -68.5c-54 -37.333 -97.167 -56 -129.5 -56s-61.666 5.83301 -87.999 17.5s-52.833 24.167 -79.5 37.5
c-70.667 35.333 -115.334 53 -134.001 53s-34.5 -1.66699 -47.5 -5s-26.333 -7.66602 -40 -12.999l-41.5 -17l-37 -17c-21.333 -10 -35.666 -15 -42.999 -15c-10.667 0 -18.334 6.66699 -23.001 20z" />
    <glyph glyph-name="Ograve" unicode="&#xd2;" 
d="M1260 751c0 -507.333 -187.001 -761.001 -561.001 -761.001c-195.333 0 -343.166 64.167 -443.499 192.5s-150.5 317.833 -150.5 568.5c0 386 105.667 631.667 317 737c70.667 34.667 153.5 52 248.5 52s179 -14.667 252 -44s134.5 -75.666 184.5 -138.999
c102 -129.333 153 -331.333 153 -606zM1034 763.999c0 103.333 -7.99805 191.667 -23.998 265s-39.5 131 -70.5 173s-68.833 70.833 -113.5 86.5s-97.334 23.5 -158.001 23.5s-113 -11.333 -157 -34s-79.667 -57 -107 -103c-50 -86 -75 -226 -75 -420
c0 -198 31.333 -339 94 -423c58 -76.667 152.333 -115 283 -115c119.333 0 204.666 42.333 255.999 127c48 81.333 72 221.333 72 420zM403.001 2006c4 9.33301 10 14 18 14s16 -2 24 -6l492 -276c6 -3.33301 9 -7 9 -11s-1.33301 -9.33301 -4 -16l-39 -92
c-2.66699 -6.66699 -6.5 -10 -11.5 -10s-9.83301 1 -14.5 3l-533 193c-10 4 -15 9.83301 -15 17.5s1.33301 14.167 4 19.5z" />
    <glyph glyph-name="Oacute" unicode="&#xd3;" 
d="M1260 751c0 -507.333 -187.001 -761.001 -561.001 -761.001c-195.333 0 -343.166 64.167 -443.499 192.5s-150.5 317.833 -150.5 568.5c0 386 105.667 631.667 317 737c70.667 34.667 153.5 52 248.5 52s179 -14.667 252 -44s134.5 -75.666 184.5 -138.999
c102 -129.333 153 -331.333 153 -606zM1034 763.999c0 103.333 -7.99805 191.667 -23.998 265s-39.5 131 -70.5 173s-68.833 70.833 -113.5 86.5s-97.334 23.5 -158.001 23.5s-113 -11.333 -157 -34s-79.667 -57 -107 -103c-50 -86 -75 -226 -75 -420
c0 -198 31.333 -339 94 -423c58 -76.667 152.333 -115 283 -115c119.333 0 204.666 42.333 255.999 127c48 81.333 72 221.333 72 420zM1033 1842c2.66699 -5.33301 4.00098 -11.833 4.00098 -19.5s-5 -13.5 -15 -17.5l-494 -207c-5.33301 -2 -10.333 -3 -15 -3
s-8.33398 3.33301 -11.001 10l-39 92c-2.66699 6.66699 -4 12 -4 16s3 7.66699 9 11l453 290c8 4 16 6 24 6s14 -4.66699 18 -14z" />
    <glyph glyph-name="Ocircumflex" unicode="&#xd4;" 
d="M1260 751c0 -507.333 -187.001 -761.001 -561.001 -761.001c-195.333 0 -343.166 64.167 -443.499 192.5s-150.5 317.833 -150.5 568.5c0 386 105.667 631.667 317 737c70.667 34.667 153.5 52 248.5 52s179 -14.667 252 -44s134.5 -75.666 184.5 -138.999
c102 -129.333 153 -331.333 153 -606zM1034 763.999c0 103.333 -7.99805 191.667 -23.998 265s-39.5 131 -70.5 173s-68.833 70.833 -113.5 86.5s-97.334 23.5 -158.001 23.5s-113 -11.333 -157 -34s-79.667 -57 -107 -103c-50 -86 -75 -226 -75 -420
c0 -198 31.333 -339 94 -423c58 -76.667 152.333 -115 283 -115c119.333 0 204.666 42.333 255.999 127c48 81.333 72 221.333 72 420zM594.001 1985c19.333 15.333 34.333 23.668 45 25.001l95 10c10.667 0 26 -8.66699 46 -26l302 -251c4.66699 -4.66699 7 -9.5 7 -14.5
s-2 -9.83301 -6 -14.5l-61 -73c-3.33301 -4 -6.83301 -6 -10.5 -6s-8.16699 1.33301 -13.5 4l-320 159l-297 -154c-2.66699 -1.33301 -6 -2 -10 -2s-8 2.66699 -12 8l-62 76c-4 5.33301 -6 9.66602 -6 12.999s1.66699 6.33301 5 9z" />
    <glyph glyph-name="Otilde" unicode="&#xd5;" 
d="M1260 751c0 -507.333 -187.001 -761.001 -561.001 -761.001c-195.333 0 -343.166 64.167 -443.499 192.5s-150.5 317.833 -150.5 568.5c0 386 105.667 631.667 317 737c70.667 34.667 153.5 52 248.5 52s179 -14.667 252 -44s134.5 -75.666 184.5 -138.999
c102 -129.333 153 -331.333 153 -606zM1034 763.999c0 103.333 -7.99805 191.667 -23.998 265s-39.5 131 -70.5 173s-68.833 70.833 -113.5 86.5s-97.334 23.5 -158.001 23.5s-113 -11.333 -157 -34s-79.667 -57 -107 -103c-50 -86 -75 -226 -75 -420
c0 -198 31.333 -339 94 -423c58 -76.667 152.333 -115 283 -115c119.333 0 204.666 42.333 255.999 127c48 81.333 72 221.333 72 420zM270.001 1842c0 11.333 16.832 31.168 50.499 59.501s61.834 49.5 84.501 63.5c50.667 31.333 93.334 47 128.001 47
c28 0 64.5 -12.5 109.5 -37.5s80.5 -43.667 106.5 -56s48.167 -18.5 66.5 -18.5s35.666 2 51.999 6s32.166 9.16699 47.499 15.5s30 13.166 44 20.499l38 20c22 12.667 36.667 19 44 19s13.333 -6.33301 18 -19l33 -78c1.33301 -3.33301 2 -7.33301 2 -12
c0 -8.66699 -15.833 -27.834 -47.5 -57.501s-59.167 -52.5 -82.5 -68.5c-53.333 -37.333 -96.166 -56 -128.499 -56s-61.666 5.83301 -87.999 17.5s-52.833 24.167 -79.5 37.5c-70.667 35.333 -115.334 53 -134.001 53s-34.5 -1.66699 -47.5 -5
s-26.333 -7.66602 -40 -12.999s-27.167 -11 -40.5 -17l-38 -17c-21.333 -10 -35.666 -15 -42.999 -15c-10.667 0 -18.334 6.66699 -23.001 20z" />
    <glyph glyph-name="Odieresis" unicode="&#xd6;" 
d="M1260 751c0 -507.333 -187.001 -761.001 -561.001 -761.001c-195.333 0 -343.166 64.167 -443.499 192.5s-150.5 317.833 -150.5 568.5c0 386 105.667 631.667 317 737c70.667 34.667 153.5 52 248.5 52s179 -14.667 252 -44s134.5 -75.666 184.5 -138.999
c102 -129.333 153 -331.333 153 -606zM1034 763.999c0 103.333 -7.99805 191.667 -23.998 265s-39.5 131 -70.5 173s-68.833 70.833 -113.5 86.5s-97.334 23.5 -158.001 23.5s-113 -11.333 -157 -34s-79.667 -57 -107 -103c-50 -86 -75 -226 -75 -420
c0 -198 31.333 -339 94 -423c58 -76.667 152.333 -115 283 -115c119.333 0 204.666 42.333 255.999 127c48 81.333 72 221.333 72 420zM510.001 1730c-21.333 -3.33301 -46.166 -5.00098 -74.499 -5.00098s-50.333 2 -66 6s-28.167 11 -37.5 21c-18 18 -27 46.167 -27 84.5
s2.16699 66.333 6.5 84s12.5 31.5 24.5 41.5c20.667 17.333 54 26 100 26s76.833 -1.66699 92.5 -5s28.167 -9.66602 37.5 -18.999c18.667 -16.667 28 -44.667 28 -84s-2.33301 -68.333 -7 -87s-13.334 -33 -26.001 -43s-29.667 -16.667 -51 -20zM981.001 1730
c-21.333 -3.33301 -46.166 -5.00098 -74.499 -5.00098s-50.333 2 -66 6s-28.167 11 -37.5 21c-18 18 -27 46.167 -27 84.5s2.16699 66.333 6.5 84s12.5 31.5 24.5 41.5c20.667 17.333 54 26 100 26s76.833 -1.66699 92.5 -5s28.5 -9.66602 38.5 -18.999
c18 -16.667 27 -44.667 27 -84s-2.33301 -68.333 -7 -87s-13.334 -33 -26.001 -43s-29.667 -16.667 -51 -20z" />
    <glyph glyph-name="multiply" unicode="&#xd7;" horiz-adv-x="1194" 
d="M1016 889c4.66699 -4.66699 6.99805 -9.33301 6.99805 -14s-3.33301 -10.334 -10 -17.001l-298 -276l305 -265c3.33301 -2.66699 5 -6.33398 5 -11.001s-2 -9.66699 -6 -15l-116 -132c-4 -5.33301 -8.33301 -8 -13 -8s-10.667 3.66699 -18 11l-280 295l-269 -311
c-4 -4.66699 -8.66699 -7 -14 -7s-10.333 2.66699 -15 8l-114 124c-4.66699 4.66699 -7 9 -7 13s1.66699 7.66699 5 11l294 282l-294 273c-4.66699 4.66699 -7 8.83398 -7 12.501s2.66699 8.83398 8 15.501l112 127c4.66699 6 8.83398 9 12.501 9
s7.83398 -2.33301 12.501 -7l277 -304l277 314c4.66699 4.66699 9.5 7 14.5 7s9.5 -2 13.5 -6z" />
    <glyph glyph-name="Oslash" unicode="&#xd8;" 
d="M1261 751c0 -507.333 -187.001 -761 -561.001 -761c-74 0 -142 9.66699 -204 29l-75 -214c-3.33301 -9.33301 -8.16602 -14 -14.499 -14s-10.833 0.333008 -13.5 1l-117 47c-10.667 4 -16 9.33301 -16 16s0.333008 10.667 1 12l90 223
c-163.333 120 -245 340.333 -245 661c0 386 105.667 631.667 317 737c70.667 34.667 150.167 52 238.5 52s165.166 -11 230.499 -33l70 194c4 11.333 8.83301 17 14.5 17s9.83398 -0.333008 12.501 -1l119 -43c10 -3.33301 15 -9 15 -17c0 -2 -0.666992 -5.66699 -2 -11
l-89 -214c152.667 -120 229 -347 229 -681zM814.999 1293c-36.667 12.667 -85.333 19 -146 19s-113 -11.333 -157 -34s-79.333 -57 -106 -103c-50.667 -86 -76 -226 -76 -420c0 -215.333 36.667 -363 110 -443l204 504zM938 1204l-181 -439.998l-186 -531
c38.667 -10.667 86.167 -16 142.5 -16s105.5 10.5 147.5 31.5s75.667 52.833 101 95.5c48.667 81.333 73 223.666 73 426.999s-32.333 347.666 -97 432.999z" />
    <glyph glyph-name="Ugrave" unicode="&#xd9;" horiz-adv-x="1538" 
d="M1415 200c10.667 0 16 -6.33301 16 -19l-13 -178c-1.33301 -13.333 -9.33301 -20 -24 -20l-343 -7c-15.333 0 -23 8 -23 24l1 227c-57.333 -68 -122 -120.833 -194 -158.5s-143.167 -56.5 -213.5 -56.5s-129.833 11.5 -178.5 34.5s-89.667 56.833 -123 101.5
c-67.333 90 -101 220 -101 390c0 180 5 336.667 15 470l24 298l-164 -13c-7.33301 0 -11.833 1.5 -13.5 4.5s-3.16699 8.83301 -4.5 17.5l11 186c1.33301 12.667 9.33301 19.667 24 21l432 15c12 -1.33301 18 -9 18 -23l-14 -176c-2 -14.667 -9.66699 -22 -23 -22h-48
c-4 -63.333 -7.33301 -120 -10 -170l-8 -134c-7.33301 -131.333 -11 -261.333 -11 -390c0 -250.667 74.667 -376 224 -376c94 0 188.333 29.333 283 88c28.667 17.333 54 36 76 56l6 890l-107 -4c-9.33301 0 -14 7.33301 -14 22l6 186c1.33301 14 9.33301 21 24 21l448 12
c12 -1.33301 18 -9 18 -23l3 -179c0 -14.667 -7.66699 -22 -23 -22l-140 -5v-1104zM484 2006c4 9.33301 10 14 18 14s16 -2 24 -6l492 -276c6 -3.33301 9 -7 9 -11s-1.33301 -9.33301 -4 -16l-39 -92c-2.66699 -6.66699 -6.5 -10 -11.5 -10s-9.83301 1 -14.5 3l-533 193
c-10 4 -15 9.83301 -15 17.5s1.33301 14.167 4 19.5z" />
    <glyph glyph-name="Uacute" unicode="&#xda;" horiz-adv-x="1538" 
d="M1415 200c10.667 0 16 -6.33301 16 -19l-13 -178c-1.33301 -13.333 -9.33301 -20 -24 -20l-343 -7c-15.333 0 -23 8 -23 24l1 227c-57.333 -68 -122 -120.833 -194 -158.5s-143.167 -56.5 -213.5 -56.5s-129.833 11.5 -178.5 34.5s-89.667 56.833 -123 101.5
c-67.333 90 -101 220 -101 390c0 180 5 336.667 15 470l24 298l-164 -13c-7.33301 0 -11.833 1.5 -13.5 4.5s-3.16699 8.83301 -4.5 17.5l11 186c1.33301 12.667 9.33301 19.667 24 21l432 15c12 -1.33301 18 -9 18 -23l-14 -176c-2 -14.667 -9.66699 -22 -23 -22h-48
c-4 -63.333 -7.33301 -120 -10 -170l-8 -134c-7.33301 -131.333 -11 -261.333 -11 -390c0 -250.667 74.667 -376 224 -376c94 0 188.333 29.333 283 88c28.667 17.333 54 36 76 56l6 890l-107 -4c-9.33301 0 -14 7.33301 -14 22l6 186c1.33301 14 9.33301 21 24 21l448 12
c12 -1.33301 18 -9 18 -23l3 -179c0 -14.667 -7.66699 -22 -23 -22l-140 -5v-1104zM1114 1842c2.66699 -5.33301 4.00098 -11.833 4.00098 -19.5s-5 -13.5 -15 -17.5l-494 -207c-5.33301 -2 -10.333 -3 -15 -3s-8.33398 3.33301 -11.001 10l-39 92
c-2.66699 6.66699 -4 12 -4 16s3 7.66699 9 11l453 290c8 4 16 6 24 6s14 -4.66699 18 -14z" />
    <glyph glyph-name="Ucircumflex" unicode="&#xdb;" horiz-adv-x="1538" 
d="M1415 200c10.667 0 16 -6.33301 16 -19l-13 -178c-1.33301 -13.333 -9.33301 -20 -24 -20l-343 -7c-15.333 0 -23 8 -23 24l1 227c-57.333 -68 -122 -120.833 -194 -158.5s-143.167 -56.5 -213.5 -56.5s-129.833 11.5 -178.5 34.5s-89.667 56.833 -123 101.5
c-67.333 90 -101 220 -101 390c0 180 5 336.667 15 470l24 298l-164 -13c-7.33301 0 -11.833 1.5 -13.5 4.5s-3.16699 8.83301 -4.5 17.5l11 186c1.33301 12.667 9.33301 19.667 24 21l432 15c12 -1.33301 18 -9 18 -23l-14 -176c-2 -14.667 -9.66699 -22 -23 -22h-48
c-4 -63.333 -7.33301 -120 -10 -170l-8 -134c-7.33301 -131.333 -11 -261.333 -11 -390c0 -250.667 74.667 -376 224 -376c94 0 188.333 29.333 283 88c28.667 17.333 54 36 76 56l6 890l-107 -4c-9.33301 0 -14 7.33301 -14 22l6 186c1.33301 14 9.33301 21 24 21l448 12
c12 -1.33301 18 -9 18 -23l3 -179c0 -14.667 -7.66699 -22 -23 -22l-140 -5v-1104zM675 1985c19.333 15.333 34.333 23.668 45 25.001l95 10c10.667 0 26 -8.66699 46 -26l302 -251c4.66699 -4.66699 7 -9.5 7 -14.5s-2 -9.83301 -6 -14.5l-61 -73
c-3.33301 -4 -6.83301 -6 -10.5 -6s-8.16699 1.33301 -13.5 4l-320 159l-297 -154c-2.66699 -1.33301 -6 -2 -10 -2s-8 2.66699 -12 8l-62 76c-4 5.33301 -6 9.66602 -6 12.999s1.66699 6.33301 5 9z" />
    <glyph glyph-name="Udieresis" unicode="&#xdc;" horiz-adv-x="1538" 
d="M1415 200c10.667 0 16 -6.33301 16 -19l-13 -178c-1.33301 -13.333 -9.33301 -20 -24 -20l-343 -7c-15.333 0 -23 8 -23 24l1 227c-57.333 -68 -122 -120.833 -194 -158.5s-143.167 -56.5 -213.5 -56.5s-129.833 11.5 -178.5 34.5s-89.667 56.833 -123 101.5
c-67.333 90 -101 220 -101 390c0 180 5 336.667 15 470l24 298l-164 -13c-7.33301 0 -11.833 1.5 -13.5 4.5s-3.16699 8.83301 -4.5 17.5l11 186c1.33301 12.667 9.33301 19.667 24 21l432 15c12 -1.33301 18 -9 18 -23l-14 -176c-2 -14.667 -9.66699 -22 -23 -22h-48
c-4 -63.333 -7.33301 -120 -10 -170l-8 -134c-7.33301 -131.333 -11 -261.333 -11 -390c0 -250.667 74.667 -376 224 -376c94 0 188.333 29.333 283 88c28.667 17.333 54 36 76 56l6 890l-107 -4c-9.33301 0 -14 7.33301 -14 22l6 186c1.33301 14 9.33301 21 24 21l448 12
c12 -1.33301 18 -9 18 -23l3 -179c0 -14.667 -7.66699 -22 -23 -22l-140 -5v-1104zM591 1730c-21.333 -3.33301 -46.166 -5.00098 -74.499 -5.00098s-50.333 2 -66 6s-28.167 11 -37.5 21c-18 18 -27 46.167 -27 84.5s2.16699 66.333 6.5 84s12.5 31.5 24.5 41.5
c20.667 17.333 54 26 100 26s76.833 -1.66699 92.5 -5s28.5 -9.66602 38.5 -18.999c18 -16.667 27 -44.667 27 -84s-2.33301 -68.333 -7 -87s-13.334 -33 -26.001 -43s-29.667 -16.667 -51 -20zM1062 1730c-21.333 -3.33301 -46.166 -5.00098 -74.499 -5.00098
s-50.333 2 -66 6s-28.167 11 -37.5 21c-18 18 -27 46.167 -27 84.5s2.16699 66.333 6.5 84s12.5 31.5 24.5 41.5c20.667 17.333 54 26 100 26s76.833 -1.66699 92.5 -5s28.167 -9.66602 37.5 -18.999c18.667 -16.667 28 -44.667 28 -84s-2.33301 -68.333 -7 -87
s-13.334 -33 -26.001 -43s-29.667 -16.667 -51 -20z" />
    <glyph glyph-name="Yacute" unicode="&#xdd;" 
d="M962 215c12 0 18.001 -7.33496 18.001 -22.002l-16 -176c-0.666992 -8 -2.83398 -13.167 -6.50098 -15.5s-9.5 -4.16602 -17.5 -5.49902l-532 15c-7.33301 0 -12 1.66699 -14 5s-3.33301 9.33301 -4 18l7 169c1.33301 14.667 9 22 23 22l157 -3l3 337l-428 748l-86 -6
c-18.667 0 -28 10.667 -28 32l-10 170c0 11.333 2.33301 18.666 7 21.999s12.667 5 24 5h483c12 0 19 -2.66699 21 -8s3 -12.666 3 -21.999l-10 -165c-0.666992 -11.333 -3.16699 -18.666 -7.5 -21.999s-11.833 -5.33301 -22.5 -6l-110 4l298 -599l288 591l-127 -3
c-8 0 -13.5 1.66699 -16.5 5s-5.16699 9.33301 -6.5 18l-15 167c1.33301 20 11.333 30 30 30l456 7c14.667 -1.33301 22 -12 22 -32l-10 -162c-0.666992 -10.667 -3 -18.167 -7 -22.5s-11.667 -6.5 -23 -6.5h-87l-415 -746l-7 -340zM1036 1842
c2.66699 -5.33301 4.00098 -11.833 4.00098 -19.5s-5 -13.5 -15 -17.5l-494 -207c-5.33301 -2 -10.333 -3 -15 -3s-8.33398 3.33301 -11.001 10l-39 92c-2.66699 6.66699 -4 12 -4 16s3 7.66699 9 11l453 290c8 4 16 6 24 6s14 -4.66699 18 -14z" />
    <glyph glyph-name="Thorn" unicode="&#xde;" 
d="M113 1511c0 15.333 6.00098 22.999 18.001 22.999l499 8c8 -1.33301 13.833 -3.16602 17.5 -5.49902s5.83398 -7.5 6.50098 -15.5l-9 -176c-0.666992 -8.66699 -2 -14.5 -4 -17.5s-6.66699 -4.5 -14 -4.5l-137 1l-1 -155c120 22 222.667 33 308 33
s158.833 -7.16699 220.5 -21.5s115.167 -37.5 160.5 -69.5c98 -68.667 147 -174.667 147 -318c0 -154 -51 -265 -153 -333c-94.667 -62.667 -241.334 -94 -440.001 -94c-80 0 -163.667 6.33301 -251 19l-2 -178l191 13c12.667 0 19 -6.33301 19 -19l7 -178
c-1.33301 -13.333 -9.33301 -20 -24 -20l-519 -7c-13.333 0 -21 8 -23 24l-18 177c1.33301 10.667 6.66602 17 15.999 19l118 -7l25 1111l-131 -7c-15.333 0 -23 7.33301 -23 22zM483.001 587.999c120.667 -14 210 -21.0029 268 -21.0029s106.5 3.33301 145.5 10
s72.833 18.334 101.5 35.001c62.667 36.667 94 96.334 94 179.001c0 120.667 -62.667 190.334 -188 209.001c-37.333 6 -79.666 9 -126.999 9c-82.667 0 -179.334 -8 -290.001 -24z" />
    <glyph glyph-name="germandbls" unicode="&#xdf;" horiz-adv-x="1364" 
d="M235 1309c0 224.667 183.664 336.997 550.997 336.997c142.667 0 248.167 -24.167 316.5 -72.5s102.5 -123.166 102.5 -224.499c0 -85.333 -18 -155.666 -54 -210.999c-19.333 -29.333 -45 -60 -77 -92l-118 -116c-23.333 -22 -42.833 -43.167 -58.5 -63.5
s-23.5 -43.333 -23.5 -69s16 -48.5 48 -68.5s77 -41.167 135 -63.5s105.5 -43.666 142.5 -63.999s66.5 -43.833 88.5 -70.5c38 -47.333 57 -123.666 57 -228.999c0 -152 -65.333 -249 -196 -291c-41.333 -13.333 -91 -20 -149 -20c-92.667 0 -213.667 13.667 -363 41
c-25.333 4 -39.333 17 -42 39l19 160c2.66699 14.667 11.667 22 27 22c8.66699 0 31.834 -6.33301 69.501 -19s66.167 -21.834 85.5 -27.501s38.666 -10.5 57.999 -14.5c44 -10 87.333 -15 130 -15s79.334 12.5 110.001 37.5s46 57.167 46 96.5s-7.83301 69.333 -23.5 90
s-49.5 40 -101.5 58l-153 55c-99.333 37.333 -162.666 84.666 -189.999 141.999c-14 30.667 -21 65.334 -21 104.001s5 71.5 15 98.5s23.333 53.167 40 78.5c26.667 40.667 60.5 81.5 101.5 122.5s71.333 72.167 91 93.5s35.834 41.333 48.501 60
c24.667 36.667 37 76.667 37 120s-16.333 74.333 -49 93s-72.5 28 -119.5 28s-84.667 -0.666992 -113 -2s-55.5 -4.33301 -81.5 -9s-50 -12 -72 -22s-41 -23.667 -57 -41c-35.333 -38 -53 -92.333 -53 -163c0 -42.667 1 -82.667 3 -120l6 -97l6 -85v-709l-18 -186
c-1.33301 -8 -3.5 -13.167 -6.5 -15.5s-8.83301 -3.83301 -17.5 -4.5l-283 6c-9.33301 0 -14 8 -14 24l-10 151c0 12.667 5.33301 19 16 19l129 2v686l-156 -10c-11.333 1.33301 -18 7 -20 17l9 175c2 14.667 9.33301 22 22 22h139c-6 60 -9 106 -9 138v79z" />
    <glyph glyph-name="agrave" unicode="&#xe0;" horiz-adv-x="1196" 
d="M722 1151c197.333 0 295.999 -122.668 295.999 -368.001c0 -58 -1.33301 -133 -4 -225l-7 -196c-1.33301 -39.333 -3 -76.666 -5 -111.999l-4 -95l60 5c22 1.33301 47 3.33301 75 6c14 0 21 -6.33301 21 -19l-18 -158c-2 -12 -9.33301 -18.667 -22 -20l-289 -18
c-9.33301 0 -14 7.33301 -14 22l14 117c-111.333 -86 -232.333 -129 -363 -129c-102 0 -186 29.667 -252 89c-70 62.667 -105 147 -105 253c0 138 47.667 235 143 291c84 49.333 222.333 74 415 74c40 0 82.667 -1 128 -3c0.666992 17.333 1 33.333 1 48v38
c0 130 -57 195 -171 195c-59.333 0 -132.666 -18 -219.999 -54l4 -38c1.33301 -12.667 2 -22.667 2 -30c0 -14.667 -7.33301 -22 -22 -22l-169 -3c-12 2 -18.667 9.33301 -20 22l-17 286c0 16 7.33301 25 22 27l167 22c14 0 21 -7.33301 21 -22v-83
c119.333 66.667 230.333 100 333 100zM531.999 149.999c76.667 0 161.002 22 253.002 66c1.33301 44 2.16602 92.5 2.49902 145.5s1.16602 105.5 2.49902 157.5c-175.333 0 -297 -15 -365 -45c-62.667 -28 -94 -74.667 -94 -140c0 -122.667 67 -184 201 -184zM433.001 1799
c6 7.33301 13.168 11 21.501 11s15.5 -3.66699 21.5 -11l383 -420c3.33301 -4.66699 5 -9.83398 5 -15.501s-2.66699 -11.834 -8 -18.501l-67 -68c-4 -4 -8.33301 -6 -13 -6s-8.33398 1.33301 -11.001 4l-462 340c-5.33301 4.66699 -8 10.334 -8 17.001
s1.66699 12.334 5 17.001z" />
    <glyph glyph-name="aacute" unicode="&#xe1;" horiz-adv-x="1196" 
d="M722 1151c197.333 0 295.999 -122.668 295.999 -368.001c0 -58 -1.33301 -133 -4 -225l-7 -196c-1.33301 -39.333 -3 -76.666 -5 -111.999l-4 -95l60 5c22 1.33301 47 3.33301 75 6c14 0 21 -6.33301 21 -19l-18 -158c-2 -12 -9.33301 -18.667 -22 -20l-289 -18
c-9.33301 0 -14 7.33301 -14 22l14 117c-111.333 -86 -232.333 -129 -363 -129c-102 0 -186 29.667 -252 89c-70 62.667 -105 147 -105 253c0 138 47.667 235 143 291c84 49.333 222.333 74 415 74c40 0 82.667 -1 128 -3c0.666992 17.333 1 33.333 1 48v38
c0 130 -57 195 -171 195c-59.333 0 -132.666 -18 -219.999 -54l4 -38c1.33301 -12.667 2 -22.667 2 -30c0 -14.667 -7.33301 -22 -22 -22l-169 -3c-12 2 -18.667 9.33301 -20 22l-17 286c0 16 7.33301 25 22 27l167 22c14 0 21 -7.33301 21 -22v-83
c119.333 66.667 230.333 100 333 100zM531.999 149.999c76.667 0 161.002 22 253.002 66c1.33301 44 2.16602 92.5 2.49902 145.5s1.16602 105.5 2.49902 157.5c-175.333 0 -297 -15 -365 -45c-62.667 -28 -94 -74.667 -94 -140c0 -122.667 67 -184 201 -184zM949.001 1649
c3.33301 -4.66699 5 -10.334 5 -17.001s-2.66699 -12.334 -8 -17.001l-462 -340c-4 -2.66699 -8 -4 -12 -4s-8 2 -12 6l-67 68c-5.33301 6.66699 -8 12.834 -8 18.501s1.66699 10.834 5 15.501l383 420c6 7.33301 13.167 11 21.5 11s15.5 -3.66699 21.5 -11z" />
    <glyph glyph-name="acircumflex" unicode="&#xe2;" horiz-adv-x="1196" 
d="M722 1151c197.333 0 295.999 -122.668 295.999 -368.001c0 -58 -1.33301 -133 -4 -225l-7 -196c-1.33301 -39.333 -3 -76.666 -5 -111.999l-4 -95l60 5c22 1.33301 47 3.33301 75 6c14 0 21 -6.33301 21 -19l-18 -158c-2 -12 -9.33301 -18.667 -22 -20l-289 -18
c-9.33301 0 -14 7.33301 -14 22l14 117c-111.333 -86 -232.333 -129 -363 -129c-102 0 -186 29.667 -252 89c-70 62.667 -105 147 -105 253c0 138 47.667 235 143 291c84 49.333 222.333 74 415 74c40 0 82.667 -1 128 -3c0.666992 17.333 1 33.333 1 48v38
c0 130 -57 195 -171 195c-59.333 0 -132.666 -18 -219.999 -54l4 -38c1.33301 -12.667 2 -22.667 2 -30c0 -14.667 -7.33301 -22 -22 -22l-169 -3c-12 2 -18.667 9.33301 -20 22l-17 286c0 16 7.33301 25 22 27l167 22c14 0 21 -7.33301 21 -22v-83
c119.333 66.667 230.333 100 333 100zM531.999 149.999c76.667 0 161.002 22 253.002 66c1.33301 44 2.16602 92.5 2.49902 145.5s1.16602 105.5 2.49902 157.5c-175.333 0 -297 -15 -365 -45c-62.667 -28 -94 -74.667 -94 -140c0 -122.667 67 -184 201 -184zM544.001 1745
c14.667 14.667 28.668 23.001 42.001 25.001l101 10c15.333 0 31 -10 47 -30l298 -381c3.33301 -4.66699 5 -10.167 5 -16.5s-2.66699 -12.166 -8 -17.499l-67 -68c-4 -4 -8.33301 -6 -13 -6s-8.33398 1.33301 -11.001 4l-310 280l-299 -277c-5.33301 -4 -10.333 -6 -15 -6
s-9.66699 2.66699 -15 8l-70 72c-5.33301 5.33301 -8 10.166 -8 14.499s1.66699 8.16602 5 11.499z" />
    <glyph glyph-name="atilde" unicode="&#xe3;" horiz-adv-x="1196" 
d="M722 1151c197.333 0 295.999 -122.668 295.999 -368.001c0 -58 -1.33301 -133 -4 -225l-7 -196c-1.33301 -39.333 -3 -76.666 -5 -111.999l-4 -95l60 5c22 1.33301 47 3.33301 75 6c14 0 21 -6.33301 21 -19l-18 -158c-2 -12 -9.33301 -18.667 -22 -20l-289 -18
c-9.33301 0 -14 7.33301 -14 22l14 117c-111.333 -86 -232.333 -129 -363 -129c-102 0 -186 29.667 -252 89c-70 62.667 -105 147 -105 253c0 138 47.667 235 143 291c84 49.333 222.333 74 415 74c40 0 82.667 -1 128 -3c0.666992 17.333 1 33.333 1 48v38
c0 130 -57 195 -171 195c-59.333 0 -132.666 -18 -219.999 -54l4 -38c1.33301 -12.667 2 -22.667 2 -30c0 -14.667 -7.33301 -22 -22 -22l-169 -3c-12 2 -18.667 9.33301 -20 22l-17 286c0 16 7.33301 25 22 27l167 22c14 0 21 -7.33301 21 -22v-83
c119.333 66.667 230.333 100 333 100zM531.999 149.999c76.667 0 161.002 22 253.002 66c1.33301 44 2.16602 92.5 2.49902 145.5s1.16602 105.5 2.49902 157.5c-175.333 0 -297 -15 -365 -45c-62.667 -28 -94 -74.667 -94 -140c0 -122.667 67 -184 201 -184zM237.001 1462
c0 10 16.335 29.5 49.002 58.5s59.667 50.5 81 64.5c48 31.333 85.5 47 112.5 47s52.167 -6 75.5 -18s47 -25 71 -39c61.333 -36.667 102.666 -55 123.999 -55s40.666 2.33301 57.999 7s34 10.5 50 17.5s30.667 14.5 44 22.5l36 21c14 8.66699 24.333 13 31 13
s12.334 -6.33301 17.001 -19l33 -78c1.33301 -3.33301 2 -7.33301 2 -12c0 -6 -5.66699 -15 -17 -27l-46 -47c-73.333 -72 -139.666 -108 -198.999 -108c-30.667 0 -78.334 18 -143.001 54s-108 54 -130 54c-32.667 0 -65.667 -8.66699 -99 -26
c-53.333 -27.333 -84 -41 -92 -41c-12.667 0 -21.334 6.66699 -26.001 20z" />
    <glyph glyph-name="adieresis" unicode="&#xe4;" horiz-adv-x="1196" 
d="M722 1151c197.333 0 295.999 -122.668 295.999 -368.001c0 -58 -1.33301 -133 -4 -225l-7 -196c-1.33301 -39.333 -3 -76.666 -5 -111.999l-4 -95l60 5c22 1.33301 47 3.33301 75 6c14 0 21 -6.33301 21 -19l-18 -158c-2 -12 -9.33301 -18.667 -22 -20l-289 -18
c-9.33301 0 -14 7.33301 -14 22l14 117c-111.333 -86 -232.333 -129 -363 -129c-102 0 -186 29.667 -252 89c-70 62.667 -105 147 -105 253c0 138 47.667 235 143 291c84 49.333 222.333 74 415 74c40 0 82.667 -1 128 -3c0.666992 17.333 1 33.333 1 48v38
c0 130 -57 195 -171 195c-59.333 0 -132.666 -18 -219.999 -54l4 -38c1.33301 -12.667 2 -22.667 2 -30c0 -14.667 -7.33301 -22 -22 -22l-169 -3c-12 2 -18.667 9.33301 -20 22l-17 286c0 16 7.33301 25 22 27l167 22c14 0 21 -7.33301 21 -22v-83
c119.333 66.667 230.333 100 333 100zM531.999 149.999c76.667 0 161.002 22 253.002 66c1.33301 44 2.16602 92.5 2.49902 145.5s1.16602 105.5 2.49902 157.5c-175.333 0 -297 -15 -365 -45c-62.667 -28 -94 -74.667 -94 -140c0 -122.667 67 -184 201 -184zM454.001 1342
c-21.333 -3.33301 -46.166 -5.00098 -74.499 -5.00098s-50.333 2 -66 6s-28.167 11 -37.5 21c-18 18 -27 46.167 -27 84.5s2.16699 66.333 6.5 84s12.5 31.5 24.5 41.5c20.667 17.333 54 26 100 26s76.833 -1.66699 92.5 -5s28.167 -9.66602 37.5 -18.999
c18.667 -16.667 28 -44.667 28 -84s-2.33301 -68.333 -7 -87s-13.334 -33 -26.001 -43s-29.667 -16.667 -51 -20zM925.001 1342c-21.333 -3.33301 -46.166 -5.00098 -74.499 -5.00098s-50.333 2 -66 6s-28.167 11 -37.5 21c-18 18 -27 46.167 -27 84.5
s2.16699 66.333 6.5 84s12.5 31.5 24.5 41.5c20.667 17.333 54 26 100 26s76.833 -1.66699 92.5 -5s28.5 -9.66602 38.5 -18.999c18 -16.667 27 -44.667 27 -84s-2.33301 -68.333 -7 -87s-13.334 -33 -26.001 -43s-29.667 -16.667 -51 -20z" />
    <glyph glyph-name="aring" unicode="&#xe5;" horiz-adv-x="1196" 
d="M722 1151c197.333 0 295.999 -122.668 295.999 -368.001c0 -58 -1.33301 -133 -4 -225l-7 -196c-1.33301 -39.333 -3 -76.666 -5 -111.999l-4 -95l60 5c22 1.33301 47 3.33301 75 6c14 0 21 -6.33301 21 -19l-18 -158c-2 -12 -9.33301 -18.667 -22 -20l-289 -18
c-9.33301 0 -14 7.33301 -14 22l14 117c-111.333 -86 -232.333 -129 -363 -129c-102 0 -186 29.667 -252 89c-70 62.667 -105 147 -105 253c0 138 47.667 235 143 291c84 49.333 222.333 74 415 74c40 0 82.667 -1 128 -3c0.666992 17.333 1 33.333 1 48v38
c0 130 -57 195 -171 195c-59.333 0 -132.666 -18 -219.999 -54l4 -38c1.33301 -12.667 2 -22.667 2 -30c0 -14.667 -7.33301 -22 -22 -22l-169 -3c-12 2 -18.667 9.33301 -20 22l-17 286c0 16 7.33301 25 22 27l167 22c14 0 21 -7.33301 21 -22v-83
c119.333 66.667 230.333 100 333 100zM531.999 149.999c76.667 0 161.002 22 253.002 66c1.33301 44 2.16602 92.5 2.49902 145.5s1.16602 105.5 2.49902 157.5c-175.333 0 -297 -15 -365 -45c-62.667 -28 -94 -74.667 -94 -140c0 -122.667 67 -184 201 -184zM904.001 1528
c0 -174 -93.333 -261 -280 -261s-280 80.333 -280 241c0 176 94.667 264 284 264c142 0 228.667 -46 260 -138c10.667 -30.667 16 -66 16 -106zM507.001 1519c0 -74 38.999 -111.001 116.999 -111.001c62.667 0 101.334 25 116.001 75c4.66699 14.667 7 33.834 7 57.501
s-8.66699 45.5 -26 65.5s-43.333 30 -78 30s-60.167 -3.5 -76.5 -10.5s-28.833 -16.167 -37.5 -27.5c-14.667 -18 -22 -44.333 -22 -79z" />
    <glyph glyph-name="ae" unicode="&#xe6;" horiz-adv-x="1771" 
d="M906 1012c90 94 214.999 140.999 374.999 140.999c122.667 0 212.167 -28.167 268.5 -84.5s84.5 -145.5 84.5 -267.5c0 -142.667 -51.333 -235 -154 -277c-60 -24.667 -128.667 -38 -206 -40s-134.666 -3 -171.999 -3h-84c-18 0 -36.333 0.666992 -55 2
c8.66699 -128.667 35 -215.667 79 -261c36 -37.333 98.333 -56 187 -56c70 0 138.333 6.66699 205 20l3 63c0.666992 8 2.5 13.333 5.5 16s8.5 5 16.5 7l144 32c16 0 24.333 -6.33301 25 -19l22 -310c0 -26 -14.667 -40.667 -44 -44l-166 -20c-14.667 0 -22 7.33301 -22 22
c0 22 1.33301 46.333 4 73c-81.333 -21.333 -176.333 -32 -285 -32c-138.667 0 -238.667 44.667 -300 134c-54.667 -51.333 -101.334 -85.333 -140.001 -102c-72.667 -30 -144 -45 -214 -45s-125.833 7.33301 -167.5 22s-78.167 35.667 -109.5 63
c-67.333 60.667 -101 140.667 -101 240c0 124 42.333 213.667 127 269s215 83 391 83c42 0 86 -1 132 -3c0 54 -1 92.667 -3 116c-4.66699 66.667 -20.167 115.834 -46.5 147.501s-67.833 47.5 -124.5 47.5c-59.333 0 -132.666 -18 -219.999 -54c4 -28 6 -50 6 -66
s-7.33301 -24 -22 -24l-169 -3c-12 2 -18.667 9.33301 -20 22l-17 286c0 16 7.33301 25 22 27l167 22c14 0 21 -7.33301 21 -22v-84c119.333 62.667 231.5 94 336.5 94s178.5 -44 220.5 -132zM784.999 218.999c-22 70 -33.667 160.002 -35 270.002
c-229.333 0 -362.666 -36.333 -399.999 -109c-12.667 -23.333 -19 -49.333 -19 -78s5.16699 -52.334 15.5 -71.001s24.166 -34.334 41.499 -47.001c34 -23.333 78.333 -35 133 -35c94 0 182 23.333 264 70zM1382 700.501c16 23.667 24 52.5 24 86.5s-2.5 61.167 -7.5 81.5
s-13.833 37.5 -26.5 51.5c-24.667 28.667 -66.667 43 -126 43c-113.333 0 -189 -28.667 -227 -86c-36 -54 -55.667 -137 -59 -249c34 -2 72.5 -3 115.5 -3s85.833 1.16699 128.5 3.5s79 9 109 20s53 28.333 69 52z" />
    <glyph glyph-name="ccedilla" unicode="&#xe7;" horiz-adv-x="1024" 
d="M560 -374c55.333 0 82.999 23.001 82.999 69.001c0 19.333 -6.16699 36 -18.5 50s-27.833 21 -46.5 21s-32 -0.5 -40 -1.5s-16 -1.83301 -24 -2.5c-18.667 -2.66699 -29.667 -4 -33 -4s-8.83301 4.16699 -16.5 12.5s-15.834 17.833 -24.501 28.5
c-21.333 26 -32 44 -32 54l36 142c-121.333 9.33301 -210 55.666 -266 138.999c-56 82.667 -84 210.334 -84 383.001c0 123.333 5.33301 215.333 16 276s24.334 111.667 41.001 153s39.334 77.333 68.001 108c62 66 150.333 99 265 99c64.667 0 135.667 -9.66699 213 -29
l188 35c12 -2 18.667 -9.33301 20 -22l17 -356c-1.33301 -16 -8.66602 -25 -21.999 -27l-167 -22c-14 0 -21 7.33301 -21 22v169c-42.667 10 -88.334 15 -137.001 15s-91.5 -8 -128.5 -24s-65.833 -40 -86.5 -72c-36 -56 -54 -152.333 -54 -289
c0 -205.333 42 -322.333 126 -351c26.667 -9.33301 57.334 -14 92.001 -14c50 0 107.333 6.33301 172 19l4 69c1.33301 16 8.33301 24.667 21 26l158 -6c9.33301 -1.33301 14.666 -9 15.999 -23l18 -313c0 -14 -6.66699 -21 -20 -21h-192c-10 0 -15.667 6.33301 -17 19l3 57
c-54.667 -10 -94.667 -16 -120 -18l-16 -109c27.333 6 56.666 9 87.999 9s58 -5.33301 80 -16s40.333 -25 55 -43c30 -36.667 45 -89.334 45 -158.001c0 -134.667 -82.333 -202 -247 -202c-76 0 -139.667 11 -191 33c-14 6 -21 12 -21 18l21 107c2 11.333 8.33301 17 19 17
c4.66699 0 16.334 -2.33301 35.001 -7c53.333 -13.333 95 -20 125 -20z" />
    <glyph glyph-name="egrave" unicode="&#xe8;" horiz-adv-x="1196" 
d="M847 6c-85.333 -21.333 -193.667 -31.9971 -325 -31.9971c-134 0 -231.333 41.333 -292 124c-63.333 86 -95 222.333 -95 409c0 196 27 342.333 81 439c61.333 106.667 159.333 171.667 294 195c46.667 8 98.667 12 156 12c123.333 0 213 -30.333 269 -91
s84 -153.334 84 -278.001c0 -81.333 -14.333 -144 -43 -188c-9.33301 -14 -22 -29.833 -38 -47.5s-45.5 -33.334 -88.5 -47.001s-92.167 -24.167 -147.5 -31.5c-86 -10.667 -204.333 -16 -355 -16c8.66699 -112.667 36.334 -189.334 83.001 -230.001
c35.333 -32 96.666 -48 183.999 -48c82 0 163.667 7 245 21l3 52c0.666992 8 2.5 13.333 5.5 16s8.5 5 16.5 7l144 32c14.667 0 23 -6.33301 25 -19c2 -11.333 4 -33.5 6 -66.5s4 -61.5 6 -85.5s3.66699 -47 5 -69l4 -56c0.666992 -16.667 1 -30.667 1 -42
c0 -20 -14.667 -31.667 -44 -35l-166 -20c-14.667 0 -22 7.33301 -22 22zM785.499 714.503c3.66699 20.333 5.49902 44.335 5.49902 72.002s-2.5 52.167 -7.5 73.5s-13.5 39.666 -25.5 54.999c-26 32 -68.333 48 -127 48c-113.333 0 -189 -28.667 -227 -86
c-36 -53.333 -56 -145.333 -60 -276c232.667 3.33301 369.334 23.333 410.001 60c17.333 15.333 27.833 33.166 31.5 53.499zM408.998 1799c6 7.33301 13.168 11 21.501 11s15.5 -3.66699 21.5 -11l383 -420c3.33301 -4.66699 5 -9.83398 5 -15.501
s-2.66699 -11.834 -8 -18.501l-67 -68c-4 -4 -8.33301 -6 -13 -6s-8.33398 1.33301 -11.001 4l-462 340c-5.33301 4.66699 -8 10.334 -8 17.001s1.66699 12.334 5 17.001z" />
    <glyph glyph-name="eacute" unicode="&#xe9;" horiz-adv-x="1196" 
d="M847 6c-85.333 -21.333 -193.667 -31.9971 -325 -31.9971c-134 0 -231.333 41.333 -292 124c-63.333 86 -95 222.333 -95 409c0 196 27 342.333 81 439c61.333 106.667 159.333 171.667 294 195c46.667 8 98.667 12 156 12c123.333 0 213 -30.333 269 -91
s84 -153.334 84 -278.001c0 -81.333 -14.333 -144 -43 -188c-9.33301 -14 -22 -29.833 -38 -47.5s-45.5 -33.334 -88.5 -47.001s-92.167 -24.167 -147.5 -31.5c-86 -10.667 -204.333 -16 -355 -16c8.66699 -112.667 36.334 -189.334 83.001 -230.001
c35.333 -32 96.666 -48 183.999 -48c82 0 163.667 7 245 21l3 52c0.666992 8 2.5 13.333 5.5 16s8.5 5 16.5 7l144 32c14.667 0 23 -6.33301 25 -19c2 -11.333 4 -33.5 6 -66.5s4 -61.5 6 -85.5s3.66699 -47 5 -69l4 -56c0.666992 -16.667 1 -30.667 1 -42
c0 -20 -14.667 -31.667 -44 -35l-166 -20c-14.667 0 -22 7.33301 -22 22zM785.499 714.503c3.66699 20.333 5.49902 44.335 5.49902 72.002s-2.5 52.167 -7.5 73.5s-13.5 39.666 -25.5 54.999c-26 32 -68.333 48 -127 48c-113.333 0 -189 -28.667 -227 -86
c-36 -53.333 -56 -145.333 -60 -276c232.667 3.33301 369.334 23.333 410.001 60c17.333 15.333 27.833 33.166 31.5 53.499zM924.998 1649c3.33301 -4.66699 5 -10.334 5 -17.001s-2.66699 -12.334 -8 -17.001l-462 -340c-4 -2.66699 -8 -4 -12 -4s-8 2 -12 6l-67 68
c-5.33301 6.66699 -8 12.834 -8 18.501s1.66699 10.834 5 15.501l383 420c6 7.33301 13.167 11 21.5 11s15.5 -3.66699 21.5 -11z" />
    <glyph glyph-name="ecircumflex" unicode="&#xea;" horiz-adv-x="1196" 
d="M847 6c-85.333 -21.333 -193.667 -31.9971 -325 -31.9971c-134 0 -231.333 41.333 -292 124c-63.333 86 -95 222.333 -95 409c0 196 27 342.333 81 439c61.333 106.667 159.333 171.667 294 195c46.667 8 98.667 12 156 12c123.333 0 213 -30.333 269 -91
s84 -153.334 84 -278.001c0 -81.333 -14.333 -144 -43 -188c-9.33301 -14 -22 -29.833 -38 -47.5s-45.5 -33.334 -88.5 -47.001s-92.167 -24.167 -147.5 -31.5c-86 -10.667 -204.333 -16 -355 -16c8.66699 -112.667 36.334 -189.334 83.001 -230.001
c35.333 -32 96.666 -48 183.999 -48c82 0 163.667 7 245 21l3 52c0.666992 8 2.5 13.333 5.5 16s8.5 5 16.5 7l144 32c14.667 0 23 -6.33301 25 -19c2 -11.333 4 -33.5 6 -66.5s4 -61.5 6 -85.5s3.66699 -47 5 -69l4 -56c0.666992 -16.667 1 -30.667 1 -42
c0 -20 -14.667 -31.667 -44 -35l-166 -20c-14.667 0 -22 7.33301 -22 22zM785.499 714.503c3.66699 20.333 5.49902 44.335 5.49902 72.002s-2.5 52.167 -7.5 73.5s-13.5 39.666 -25.5 54.999c-26 32 -68.333 48 -127 48c-113.333 0 -189 -28.667 -227 -86
c-36 -53.333 -56 -145.333 -60 -276c232.667 3.33301 369.334 23.333 410.001 60c17.333 15.333 27.833 33.166 31.5 53.499zM519.998 1745c14.667 14.667 28.668 23.001 42.001 25.001l101 10c15.333 0 31 -10 47 -30l298 -381c3.33301 -4.66699 5 -10.167 5 -16.5
s-2.66699 -12.166 -8 -17.499l-67 -68c-4 -4 -8.33301 -6 -13 -6s-8.33398 1.33301 -11.001 4l-310 280l-299 -277c-5.33301 -4 -10.333 -6 -15 -6s-9.66699 2.66699 -15 8l-70 72c-5.33301 5.33301 -8 10.166 -8 14.499s1.66699 8.16602 5 11.499z" />
    <glyph glyph-name="edieresis" unicode="&#xeb;" horiz-adv-x="1196" 
d="M847 6c-85.333 -21.333 -193.667 -31.9971 -325 -31.9971c-134 0 -231.333 41.333 -292 124c-63.333 86 -95 222.333 -95 409c0 196 27 342.333 81 439c61.333 106.667 159.333 171.667 294 195c46.667 8 98.667 12 156 12c123.333 0 213 -30.333 269 -91
s84 -153.334 84 -278.001c0 -81.333 -14.333 -144 -43 -188c-9.33301 -14 -22 -29.833 -38 -47.5s-45.5 -33.334 -88.5 -47.001s-92.167 -24.167 -147.5 -31.5c-86 -10.667 -204.333 -16 -355 -16c8.66699 -112.667 36.334 -189.334 83.001 -230.001
c35.333 -32 96.666 -48 183.999 -48c82 0 163.667 7 245 21l3 52c0.666992 8 2.5 13.333 5.5 16s8.5 5 16.5 7l144 32c14.667 0 23 -6.33301 25 -19c2 -11.333 4 -33.5 6 -66.5s4 -61.5 6 -85.5s3.66699 -47 5 -69l4 -56c0.666992 -16.667 1 -30.667 1 -42
c0 -20 -14.667 -31.667 -44 -35l-166 -20c-14.667 0 -22 7.33301 -22 22zM785.499 714.503c3.66699 20.333 5.49902 44.335 5.49902 72.002s-2.5 52.167 -7.5 73.5s-13.5 39.666 -25.5 54.999c-26 32 -68.333 48 -127 48c-113.333 0 -189 -28.667 -227 -86
c-36 -53.333 -56 -145.333 -60 -276c232.667 3.33301 369.334 23.333 410.001 60c17.333 15.333 27.833 33.166 31.5 53.499zM429.998 1342c-21.333 -3.33301 -46.166 -5.00098 -74.499 -5.00098s-50.333 2 -66 6s-28.167 11 -37.5 21c-18 18 -27 46.167 -27 84.5
s2.16699 66.333 6.5 84s12.5 31.5 24.5 41.5c20.667 17.333 54 26 100 26s76.833 -1.66699 92.5 -5s28.167 -9.66602 37.5 -18.999c18.667 -16.667 28 -44.667 28 -84s-2.33301 -68.333 -7 -87s-13.334 -33 -26.001 -43s-29.667 -16.667 -51 -20zM900.998 1342
c-21.333 -3.33301 -46.166 -5.00098 -74.499 -5.00098s-50.333 2 -66 6s-28.167 11 -37.5 21c-18 18 -27 46.167 -27 84.5s2.16699 66.333 6.5 84s12.5 31.5 24.5 41.5c20.667 17.333 54 26 100 26s76.833 -1.66699 92.5 -5s28.5 -9.66602 38.5 -18.999
c18 -16.667 27 -44.667 27 -84s-2.33301 -68.333 -7 -87s-13.334 -33 -26.001 -43s-29.667 -16.667 -51 -20z" />
    <glyph glyph-name="igrave" unicode="&#xec;" horiz-adv-x="683" 
d="M150 -14c-9.33301 0 -14 8.00098 -14 24.001v151c0 12.667 5.33301 19 16 19h120l8 699l-162 17c-12 1.33301 -18 8.66602 -18 21.999l22 165c2 12 10 19 24 21l321 33c7.33301 0 12 -1.83301 14 -5.5s3.33301 -9.5 4 -17.5l13 -182l-3 -752h114
c10.667 0 16 -6.33301 16 -19l-18 -131c-1.33301 -8 -3.5 -13.167 -6.5 -15.5s-8.83301 -3.83301 -17.5 -4.5zM166 1799c6 7.33301 13.168 11 21.501 11s15.5 -3.66699 21.5 -11l383 -420c3.33301 -4.66699 5 -9.83398 5 -15.501s-2.66699 -11.834 -8 -18.501l-67 -68
c-4 -4 -8.33301 -6 -13 -6s-8.33398 1.33301 -11.001 4l-462 340c-5.33301 4.66699 -8 10.334 -8 17.001s1.66699 12.334 5 17.001z" />
    <glyph glyph-name="iacute" unicode="&#xed;" horiz-adv-x="683" 
d="M150 -14c-9.33301 0 -14 8.00098 -14 24.001v151c0 12.667 5.33301 19 16 19h120l8 699l-162 17c-12 1.33301 -18 8.66602 -18 21.999l22 165c2 12 10 19 24 21l321 33c7.33301 0 12 -1.83301 14 -5.5s3.33301 -9.5 4 -17.5l13 -182l-3 -752h114
c10.667 0 16 -6.33301 16 -19l-18 -131c-1.33301 -8 -3.5 -13.167 -6.5 -15.5s-8.83301 -3.83301 -17.5 -4.5zM682 1649c3.33301 -4.66699 5 -10.334 5 -17.001s-2.66699 -12.334 -8 -17.001l-462 -340c-4 -2.66699 -8 -4 -12 -4s-8 2 -12 6l-67 68
c-5.33301 6.66699 -8 12.834 -8 18.501s1.66699 10.834 5 15.501l383 420c6 7.33301 13.167 11 21.5 11s15.5 -3.66699 21.5 -11z" />
    <glyph glyph-name="icircumflex" unicode="&#xee;" horiz-adv-x="683" 
d="M150 -14c-9.33301 0 -14 8.00098 -14 24.001v151c0 12.667 5.33301 19 16 19h120l8 699l-162 17c-12 1.33301 -18 8.66602 -18 21.999l22 165c2 12 10 19 24 21l321 33c7.33301 0 12 -1.83301 14 -5.5s3.33301 -9.5 4 -17.5l13 -182l-3 -752h114
c10.667 0 16 -6.33301 16 -19l-18 -131c-1.33301 -8 -3.5 -13.167 -6.5 -15.5s-8.83301 -3.83301 -17.5 -4.5zM277 1745c14.667 14.667 28.668 23.001 42.001 25.001l101 10c15.333 0 31 -10 47 -30l298 -381c3.33301 -4.66699 5 -10.167 5 -16.5
s-2.66699 -12.166 -8 -17.499l-67 -68c-4 -4 -8.33301 -6 -13 -6s-8.33398 1.33301 -11.001 4l-310 280l-299 -277c-5.33301 -4 -10.333 -6 -15 -6s-9.66699 2.66699 -15 8l-70 72c-5.33301 5.33301 -8 10.166 -8 14.499s1.66699 8.16602 5 11.499z" />
    <glyph glyph-name="idieresis" unicode="&#xef;" horiz-adv-x="683" 
d="M150 -14c-9.33301 0 -14 8.00098 -14 24.001v151c0 12.667 5.33301 19 16 19h120l8 699l-162 17c-12 1.33301 -18 8.66602 -18 21.999l22 165c2 12 10 19 24 21l321 33c7.33301 0 12 -1.83301 14 -5.5s3.33301 -9.5 4 -17.5l13 -182l-3 -752h114
c10.667 0 16 -6.33301 16 -19l-18 -131c-1.33301 -8 -3.5 -13.167 -6.5 -15.5s-8.83301 -3.83301 -17.5 -4.5zM187 1342c-21.333 -3.33301 -46.166 -5.00098 -74.499 -5.00098s-50.333 2 -66 6s-28.167 11 -37.5 21c-18 18 -27 46.167 -27 84.5s2.16699 66.333 6.5 84
s12.5 31.5 24.5 41.5c20.667 17.333 54 26 100 26s76.833 -1.66699 92.5 -5s28.5 -9.66602 38.5 -18.999c18 -16.667 27 -44.667 27 -84s-2.33301 -68.333 -7 -87s-13.334 -33 -26.001 -43s-29.667 -16.667 -51 -20zM658 1342
c-21.333 -3.33301 -46.166 -5.00098 -74.499 -5.00098s-50.333 2 -66 6s-28.167 11 -37.5 21c-18 18 -27 46.167 -27 84.5s2.16699 66.333 6.5 84s12.5 31.5 24.5 41.5c20.667 17.333 54 26 100 26s76.833 -1.66699 92.5 -5s28.167 -9.66602 37.5 -18.999
c18.667 -16.667 28 -44.667 28 -84s-2.33301 -68.333 -7 -87s-13.334 -33 -26.001 -43s-29.667 -16.667 -51 -20z" />
    <glyph glyph-name="eth" unicode="&#xf0;" horiz-adv-x="1194" 
d="M849 1417c146.667 -138.667 219.999 -384.998 219.999 -738.998c0 -362 -92.333 -582 -277 -660c-60.667 -26 -127 -39 -199 -39s-136 9.83301 -192 29.5s-105 50.834 -147 93.501c-88.667 90 -133 223 -133 399c0 161.333 43 283 129 365c74.667 70 170 105 286 105
c114 0 215.667 -18 305 -54c-22.667 153.333 -67.667 264.666 -135 333.999l-131 -164c-4.66699 -5.33301 -10 -8 -16 -8s-11 1.66699 -15 5l-101 74c-5.33301 3.33301 -8 7.83301 -8 13.5s1.66699 10.5 5 14.5l123 150c-40 11.333 -76.667 17 -110 17
c-46 0 -83.833 -2.16699 -113.5 -6.5s-48.834 -6.5 -57.501 -6.5s-13 4.66699 -13 14l12 144c1.33301 11.333 8.83301 18.166 22.5 20.499s28.5 4.66602 44.5 6.99902s33 4.5 51 6.5c39.333 3.33301 85.5 5 138.5 5s104.5 -8.66699 154.5 -26l108 159
c4.66699 6.66699 11.334 10 20.001 10s16.334 -3.33301 23.001 -10l112 -103c4 -4 6 -9.16699 6 -15.5s-3 -12.833 -9 -19.5zM858.999 577.002c0 72.667 -0.666016 126.333 -1.99902 161c-92 28 -189.667 42 -293 42c-110 0 -182.667 -54 -218 -162
c-12.667 -40.667 -19 -86.5 -19 -137.5s5.5 -94 16.5 -129s27.167 -64.833 48.5 -89.5c43.333 -52.667 104.666 -79 183.999 -79c101.333 0 173 30.333 215 91c45.333 65.333 68 166.333 68 303z" />
    <glyph glyph-name="ntilde" unicode="&#xf1;" horiz-adv-x="1370" 
d="M792 903c-84.667 0 -181.333 -34.667 -290 -104l12 -599l109 12c11.333 0 17 -5.66699 17 -17l-19 -155c-2.66699 -14.667 -10 -22 -22 -22h-417c-10.667 0 -16 8 -16 24l20 153c2.66699 14 10 21 22 21h85v661l-153 4c-13.333 0 -20 8 -20 24l18 173
c1.33301 11.333 9.33301 18.333 24 21l277 41c12 0 18 -7.66699 18 -23v-173c137.333 137.333 272.333 206 405 206c152 0 242.667 -72.333 272 -217c9.33301 -48 14 -92.833 14 -134.5s-0.333008 -76.667 -1 -105s-1.66699 -59.5 -3 -93.5l-2 -104l-4 -110l-4 -106
c-1.33301 -34 -2.66602 -65.333 -3.99902 -94l115 5c14 0 21 -8 21 -24v-147c0 -8 -1.83301 -13.167 -5.5 -15.5s-9.5 -3.83301 -17.5 -4.5l-290 -22c-14.667 0 -22 7.33301 -22 22c2 72.667 3 141 3 205l2 167v133v183c0 82.667 -7 135.5 -21 158.5
s-30.333 38.167 -49 45.5s-43.334 11 -74.001 11zM296.001 1462c0 10 16.335 29.5 49.002 58.5s59.667 50.5 81 64.5c48 31.333 85.5 47 112.5 47s52.167 -6 75.5 -18s46.666 -25 69.999 -39c62 -36.667 103.667 -55 125 -55s40.666 2.33301 57.999 7s34 10.5 50 17.5
s31 14.5 45 22.5l35 21c14 8.66699 24.333 13 31 13s12.334 -6.33301 17.001 -19l33 -78c1.33301 -3.33301 2 -7.33301 2 -12c0 -6 -5.66699 -15 -17 -27l-46 -47c-73.333 -72 -139.666 -108 -198.999 -108c-30.667 0 -78.334 18 -143.001 54s-108 54 -130 54
c-32.667 0 -65.667 -8.66699 -99 -26c-53.333 -27.333 -84 -41 -92 -41c-12.667 0 -21.334 6.66699 -26.001 20z" />
    <glyph glyph-name="ograve" unicode="&#xf2;" horiz-adv-x="1194" 
d="M123 562c0 114 9.5 208.833 28.5 284.5s47.167 136.167 84.5 181.5c69.333 82 182.333 123 339 123c109.333 0 189.166 -11 239.499 -33s90 -47 119 -75s53.833 -64 74.5 -108c41.333 -90 62 -203.167 62 -339.5s-9.5 -241.5 -28.5 -315.5s-47.5 -133.333 -85.5 -178
c-70.667 -81.333 -185 -122 -343 -122c-165.333 0 -285.666 40 -360.999 120c-86 90.667 -129 244.667 -129 462zM849 363c10 48 15 106.668 15 176.001s-3.66699 125.333 -11 168s-17.5 78.167 -30.5 106.5s-28.5 50.666 -46.5 66.999s-37.667 28.5 -59 36.5
c-32 12 -74.333 18 -127 18s-94.667 -4 -126 -12s-57.333 -25 -78 -51c-39.333 -50.667 -59 -152.667 -59 -306c0 -218 58.667 -341 176 -369c36 -8.66699 75 -13 117 -13s78.167 4.5 108.5 13.5s55.5 26.833 75.5 53.5s35 64 45 112zM400 1799
c6 7.33301 13.168 11 21.501 11s15.5 -3.66699 21.5 -11l383 -420c3.33301 -4.66699 5 -9.83398 5 -15.501s-2.66699 -11.834 -8 -18.501l-67 -68c-4 -4 -8.33301 -6 -13 -6s-8.33398 1.33301 -11.001 4l-462 340c-5.33301 4.66699 -8 10.334 -8 17.001
s1.66699 12.334 5 17.001z" />
    <glyph glyph-name="oacute" unicode="&#xf3;" horiz-adv-x="1194" 
d="M123 562c0 114 9.5 208.833 28.5 284.5s47.167 136.167 84.5 181.5c69.333 82 182.333 123 339 123c109.333 0 189.166 -11 239.499 -33s90 -47 119 -75s53.833 -64 74.5 -108c41.333 -90 62 -203.167 62 -339.5s-9.5 -241.5 -28.5 -315.5s-47.5 -133.333 -85.5 -178
c-70.667 -81.333 -185 -122 -343 -122c-165.333 0 -285.666 40 -360.999 120c-86 90.667 -129 244.667 -129 462zM849 363c10 48 15 106.668 15 176.001s-3.66699 125.333 -11 168s-17.5 78.167 -30.5 106.5s-28.5 50.666 -46.5 66.999s-37.667 28.5 -59 36.5
c-32 12 -74.333 18 -127 18s-94.667 -4 -126 -12s-57.333 -25 -78 -51c-39.333 -50.667 -59 -152.667 -59 -306c0 -218 58.667 -341 176 -369c36 -8.66699 75 -13 117 -13s78.167 4.5 108.5 13.5s55.5 26.833 75.5 53.5s35 64 45 112zM916 1649
c3.33301 -4.66699 5 -10.334 5 -17.001s-2.66699 -12.334 -8 -17.001l-462 -340c-4 -2.66699 -8 -4 -12 -4s-8 2 -12 6l-67 68c-5.33301 6.66699 -8 12.834 -8 18.501s1.66699 10.834 5 15.501l383 420c6 7.33301 13.167 11 21.5 11s15.5 -3.66699 21.5 -11z" />
    <glyph glyph-name="ocircumflex" unicode="&#xf4;" horiz-adv-x="1194" 
d="M123 562c0 114 9.5 208.833 28.5 284.5s47.167 136.167 84.5 181.5c69.333 82 182.333 123 339 123c109.333 0 189.166 -11 239.499 -33s90 -47 119 -75s53.833 -64 74.5 -108c41.333 -90 62 -203.167 62 -339.5s-9.5 -241.5 -28.5 -315.5s-47.5 -133.333 -85.5 -178
c-70.667 -81.333 -185 -122 -343 -122c-165.333 0 -285.666 40 -360.999 120c-86 90.667 -129 244.667 -129 462zM849 363c10 48 15 106.668 15 176.001s-3.66699 125.333 -11 168s-17.5 78.167 -30.5 106.5s-28.5 50.666 -46.5 66.999s-37.667 28.5 -59 36.5
c-32 12 -74.333 18 -127 18s-94.667 -4 -126 -12s-57.333 -25 -78 -51c-39.333 -50.667 -59 -152.667 -59 -306c0 -218 58.667 -341 176 -369c36 -8.66699 75 -13 117 -13s78.167 4.5 108.5 13.5s55.5 26.833 75.5 53.5s35 64 45 112zM511 1745
c14.667 14.667 28.668 23.001 42.001 25.001l101 10c15.333 0 31 -10 47 -30l298 -381c3.33301 -4.66699 5 -10.167 5 -16.5s-2.66699 -12.166 -8 -17.499l-67 -68c-4 -4 -8.33301 -6 -13 -6s-8.33398 1.33301 -11.001 4l-310 280l-299 -277c-5.33301 -4 -10.333 -6 -15 -6
s-9.66699 2.66699 -15 8l-70 72c-5.33301 5.33301 -8 10.166 -8 14.499s1.66699 8.16602 5 11.499z" />
    <glyph glyph-name="otilde" unicode="&#xf5;" horiz-adv-x="1194" 
d="M123 562c0 114 9.5 208.833 28.5 284.5s47.167 136.167 84.5 181.5c69.333 82 182.333 123 339 123c109.333 0 189.166 -11 239.499 -33s90 -47 119 -75s53.833 -64 74.5 -108c41.333 -90 62 -203.167 62 -339.5s-9.5 -241.5 -28.5 -315.5s-47.5 -133.333 -85.5 -178
c-70.667 -81.333 -185 -122 -343 -122c-165.333 0 -285.666 40 -360.999 120c-86 90.667 -129 244.667 -129 462zM849 363c10 48 15 106.668 15 176.001s-3.66699 125.333 -11 168s-17.5 78.167 -30.5 106.5s-28.5 50.666 -46.5 66.999s-37.667 28.5 -59 36.5
c-32 12 -74.333 18 -127 18s-94.667 -4 -126 -12s-57.333 -25 -78 -51c-39.333 -50.667 -59 -152.667 -59 -306c0 -218 58.667 -341 176 -369c36 -8.66699 75 -13 117 -13s78.167 4.5 108.5 13.5s55.5 26.833 75.5 53.5s35 64 45 112zM204 1462
c0 10 16.335 29.5 49.002 58.5s59.667 50.5 81 64.5c48 31.333 85.5 47 112.5 47s52.167 -6 75.5 -18s46.666 -25 69.999 -39c62 -36.667 103.667 -55 125 -55s40.666 2.33301 57.999 7s34 10.5 50 17.5s31 14.5 45 22.5l35 21c14 8.66699 24.333 13 31 13
s12.334 -6.33301 17.001 -19l33 -78c1.33301 -3.33301 2 -7.33301 2 -12c0 -6 -5.66699 -15 -17 -27l-46 -47c-73.333 -72 -139.666 -108 -198.999 -108c-30.667 0 -78.334 18 -143.001 54s-108 54 -130 54c-32.667 0 -65.667 -8.66699 -99 -26
c-53.333 -27.333 -84 -41 -92 -41c-12.667 0 -21.334 6.66699 -26.001 20z" />
    <glyph glyph-name="odieresis" unicode="&#xf6;" horiz-adv-x="1194" 
d="M123 562c0 114 9.5 208.833 28.5 284.5s47.167 136.167 84.5 181.5c69.333 82 182.333 123 339 123c109.333 0 189.166 -11 239.499 -33s90 -47 119 -75s53.833 -64 74.5 -108c41.333 -90 62 -203.167 62 -339.5s-9.5 -241.5 -28.5 -315.5s-47.5 -133.333 -85.5 -178
c-70.667 -81.333 -185 -122 -343 -122c-165.333 0 -285.666 40 -360.999 120c-86 90.667 -129 244.667 -129 462zM849 363c10 48 15 106.668 15 176.001s-3.66699 125.333 -11 168s-17.5 78.167 -30.5 106.5s-28.5 50.666 -46.5 66.999s-37.667 28.5 -59 36.5
c-32 12 -74.333 18 -127 18s-94.667 -4 -126 -12s-57.333 -25 -78 -51c-39.333 -50.667 -59 -152.667 -59 -306c0 -218 58.667 -341 176 -369c36 -8.66699 75 -13 117 -13s78.167 4.5 108.5 13.5s55.5 26.833 75.5 53.5s35 64 45 112zM421 1342
c-21.333 -3.33301 -46.166 -5.00098 -74.499 -5.00098s-50.333 2 -66 6s-28.167 11 -37.5 21c-18 18 -27 46.167 -27 84.5s2.16699 66.333 6.5 84s12.5 31.5 24.5 41.5c20.667 17.333 54 26 100 26s76.833 -1.66699 92.5 -5s28.5 -9.66602 38.5 -18.999
c18 -16.667 27 -44.667 27 -84s-2.33301 -68.333 -7 -87s-13.334 -33 -26.001 -43s-29.667 -16.667 -51 -20zM892 1342c-21.333 -3.33301 -46.166 -5.00098 -74.499 -5.00098s-50.333 2 -66 6s-28.167 11 -37.5 21c-18 18 -27 46.167 -27 84.5s2.16699 66.333 6.5 84
s12.5 31.5 24.5 41.5c20.667 17.333 54 26 100 26s76.833 -1.66699 92.5 -5s28.167 -9.66602 37.5 -18.999c18.667 -16.667 28 -44.667 28 -84s-2.33301 -68.333 -7 -87s-13.334 -33 -26.001 -43s-29.667 -16.667 -51 -20z" />
    <glyph glyph-name="divide" unicode="&#xf7;" horiz-adv-x="1194" 
d="M1011 512c0 -16 -4.66602 -23.999 -13.999 -23.999l-413 12l-370 -8c-8.66699 0.666992 -14.667 2.16699 -18 4.5s-5.33301 7.5 -6 15.5l-8 151c0 11.333 5.33301 17.666 16 18.999l404 -15l393 5c9.33301 0 14.666 -6.33301 15.999 -19v-141zM747.501 948.001
c3 -18 4.50098 -34.832 4.50098 -50.499s-5.16699 -29.834 -15.5 -42.501s-23.833 -23.334 -40.5 -32.001c-34.667 -17.333 -68.834 -26 -102.501 -26s-56.667 5.16699 -69 15.5s-22.5 23.5 -30.5 39.5c-14.667 28.667 -22 57.834 -22 87.501s6.5 51 19.5 64
s29.167 23.167 48.5 30.5c32.667 12.667 65 19 97 19s54 -5.16699 66 -15.5s21.667 -23.333 29 -39s12.5 -32.5 15.5 -50.5zM747.502 268.002c3 -18 4.50098 -34.832 4.50098 -50.499s-5.16699 -29.834 -15.5 -42.501s-23.833 -23.334 -40.5 -32.001
c-34.667 -17.333 -68.834 -26 -102.501 -26s-56.667 5.16699 -69 15.5s-22.5 23.5 -30.5 39.5c-14.667 28.667 -22 57.834 -22 87.501s6.5 51 19.5 64s29.167 23.167 48.5 30.5c32.667 12.667 65 19 97 19s54 -5.16699 66 -15.5s21.667 -23.333 29 -39
s12.5 -32.5 15.5 -50.5z" />
    <glyph glyph-name="oslash" unicode="&#xf8;" horiz-adv-x="1194" 
d="M299 59c-117.333 82 -176.002 249.333 -176.002 502c0 220.667 37.667 376.334 113 467.001c69.333 82 182.333 123 339 123c66 0 121 -4.66699 165 -14l73 189c4 11.333 8.83301 17 14.5 17s9.83398 -0.333008 12.501 -1l99 -43c10 -4 15 -8.83301 15 -14.5
s-0.666992 -10.167 -2 -13.5l-79 -182c131.333 -80 197 -257.333 197 -532c0 -214.667 -38 -366.334 -114 -455.001c-70.667 -81.333 -185 -122 -343 -122c-66.667 0 -125.667 6.33301 -177 19l-82 -222c-3.33301 -9.33301 -8.16602 -14 -14.499 -14
s-10.833 0.333008 -13.5 1l-107 47c-10.667 4 -16 9.33301 -16 16s0.333008 10.667 1 12zM508.998 195c32 -7.33301 69 -11 111 -11s78.167 4.5 108.5 13.5s55.5 26.833 75.5 53.5c40 53.333 60 153.333 60 300c0 160.667 -27.667 268.667 -83 324l-140 -324zM659.998 931
c-26.667 2.66699 -58.168 4 -94.501 4s-70.166 -4 -101.499 -12s-57.333 -25 -78 -51c-39.333 -50.667 -59 -152.667 -59 -306c0 -137.333 21.333 -235 64 -293l143 330z" />
    <glyph glyph-name="ugrave" unicode="&#xf9;" horiz-adv-x="1195" 
d="M996 1100c10.667 0 16.001 -7.99707 16.001 -23.9971l10 -844l134 5c13.333 -0.666992 20 -8.66699 20 -24l-18 -183c-0.666992 -14 -8.66699 -21 -24 -21h-247c-20.667 0 -34.334 12.667 -41.001 38l-24 101c-110 -94.667 -235.333 -142 -376 -142
c-196.667 0 -295 125.667 -295 377c0 87.333 5 184.666 15 291.999l20 226l-128 -4c-14 0 -21 8 -21 24l20 177c1.33301 8 3.5 13.167 6.5 15.5s8.5 3.83301 16.5 4.5l318 -8c9.33301 0 14 -7.33301 14 -22c-3.33301 -32 -6.66602 -68 -9.99902 -108
c-28 -300.667 -42 -486.334 -42 -557.001s13.333 -121.834 40 -153.501s74.667 -47.5 144 -47.5s157.666 34 264.999 102v575l-125 7c-9.33301 1.33301 -15 7 -17 17l19 165c2.66699 14.667 10 22 22 22zM390.001 1799c6 7.33301 13.168 11 21.501 11
s15.5 -3.66699 21.5 -11l383 -420c3.33301 -4.66699 5 -9.83398 5 -15.501s-2.66699 -11.834 -8 -18.501l-67 -68c-4 -4 -8.33301 -6 -13 -6s-8.33398 1.33301 -11.001 4l-462 340c-5.33301 4.66699 -8 10.334 -8 17.001s1.66699 12.334 5 17.001z" />
    <glyph glyph-name="uacute" unicode="&#xfa;" horiz-adv-x="1195" 
d="M996 1100c10.667 0 16.001 -7.99707 16.001 -23.9971l10 -844l134 5c13.333 -0.666992 20 -8.66699 20 -24l-18 -183c-0.666992 -14 -8.66699 -21 -24 -21h-247c-20.667 0 -34.334 12.667 -41.001 38l-24 101c-110 -94.667 -235.333 -142 -376 -142
c-196.667 0 -295 125.667 -295 377c0 87.333 5 184.666 15 291.999l20 226l-128 -4c-14 0 -21 8 -21 24l20 177c1.33301 8 3.5 13.167 6.5 15.5s8.5 3.83301 16.5 4.5l318 -8c9.33301 0 14 -7.33301 14 -22c-3.33301 -32 -6.66602 -68 -9.99902 -108
c-28 -300.667 -42 -486.334 -42 -557.001s13.333 -121.834 40 -153.501s74.667 -47.5 144 -47.5s157.666 34 264.999 102v575l-125 7c-9.33301 1.33301 -15 7 -17 17l19 165c2.66699 14.667 10 22 22 22zM906.001 1649c3.33301 -4.66699 5 -10.334 5 -17.001
s-2.66699 -12.334 -8 -17.001l-462 -340c-4 -2.66699 -8 -4 -12 -4s-8 2 -12 6l-67 68c-5.33301 6.66699 -8 12.834 -8 18.501s1.66699 10.834 5 15.501l383 420c6 7.33301 13.167 11 21.5 11s15.5 -3.66699 21.5 -11z" />
    <glyph glyph-name="ucircumflex" unicode="&#xfb;" horiz-adv-x="1195" 
d="M996 1100c10.667 0 16.001 -7.99707 16.001 -23.9971l10 -844l134 5c13.333 -0.666992 20 -8.66699 20 -24l-18 -183c-0.666992 -14 -8.66699 -21 -24 -21h-247c-20.667 0 -34.334 12.667 -41.001 38l-24 101c-110 -94.667 -235.333 -142 -376 -142
c-196.667 0 -295 125.667 -295 377c0 87.333 5 184.666 15 291.999l20 226l-128 -4c-14 0 -21 8 -21 24l20 177c1.33301 8 3.5 13.167 6.5 15.5s8.5 3.83301 16.5 4.5l318 -8c9.33301 0 14 -7.33301 14 -22c-3.33301 -32 -6.66602 -68 -9.99902 -108
c-28 -300.667 -42 -486.334 -42 -557.001s13.333 -121.834 40 -153.501s74.667 -47.5 144 -47.5s157.666 34 264.999 102v575l-125 7c-9.33301 1.33301 -15 7 -17 17l19 165c2.66699 14.667 10 22 22 22zM501.001 1745c14.667 14.667 28.668 23.001 42.001 25.001l101 10
c15.333 0 31 -10 47 -30l298 -381c3.33301 -4.66699 5 -10.167 5 -16.5s-2.66699 -12.166 -8 -17.499l-67 -68c-4 -4 -8.33301 -6 -13 -6s-8.33398 1.33301 -11.001 4l-310 280l-299 -277c-5.33301 -4 -10.333 -6 -15 -6s-9.66699 2.66699 -15 8l-70 72
c-5.33301 5.33301 -8 10.166 -8 14.499s1.66699 8.16602 5 11.499z" />
    <glyph glyph-name="udieresis" unicode="&#xfc;" horiz-adv-x="1195" 
d="M996 1100c10.667 0 16.001 -7.99707 16.001 -23.9971l10 -844l134 5c13.333 -0.666992 20 -8.66699 20 -24l-18 -183c-0.666992 -14 -8.66699 -21 -24 -21h-247c-20.667 0 -34.334 12.667 -41.001 38l-24 101c-110 -94.667 -235.333 -142 -376 -142
c-196.667 0 -295 125.667 -295 377c0 87.333 5 184.666 15 291.999l20 226l-128 -4c-14 0 -21 8 -21 24l20 177c1.33301 8 3.5 13.167 6.5 15.5s8.5 3.83301 16.5 4.5l318 -8c9.33301 0 14 -7.33301 14 -22c-3.33301 -32 -6.66602 -68 -9.99902 -108
c-28 -300.667 -42 -486.334 -42 -557.001s13.333 -121.834 40 -153.501s74.667 -47.5 144 -47.5s157.666 34 264.999 102v575l-125 7c-9.33301 1.33301 -15 7 -17 17l19 165c2.66699 14.667 10 22 22 22zM411.001 1342c-21.333 -3.33301 -46.166 -5.00098 -74.499 -5.00098
s-50.333 2 -66 6s-28.167 11 -37.5 21c-18 18 -27 46.167 -27 84.5s2.16699 66.333 6.5 84s12.5 31.5 24.5 41.5c20.667 17.333 54 26 100 26s76.833 -1.66699 92.5 -5s28.5 -9.66602 38.5 -18.999c18 -16.667 27 -44.667 27 -84s-2.33301 -68.333 -7 -87
s-13.334 -33 -26.001 -43s-29.667 -16.667 -51 -20zM882.001 1342c-21.333 -3.33301 -46.166 -5.00098 -74.499 -5.00098s-50.333 2 -66 6s-28.167 11 -37.5 21c-18 18 -27 46.167 -27 84.5s2.16699 66.333 6.5 84s12.5 31.5 24.5 41.5c20.667 17.333 54 26 100 26
s76.833 -1.66699 92.5 -5s28.167 -9.66602 37.5 -18.999c18.667 -16.667 28 -44.667 28 -84s-2.33301 -68.333 -7 -87s-13.334 -33 -26.001 -43s-29.667 -16.667 -51 -20z" />
    <glyph glyph-name="yacute" unicode="&#xfd;" horiz-adv-x="1197" 
d="M16 1100c0 13.333 7.66699 20 23 20l454 10c12 0 18 -7.33301 18 -22l5 -170c-1.33301 -8.66699 -3.33301 -14.334 -6 -17.001s-8 -4 -16 -4l-131 -3l260 -735l236 740l-137 -13c-10.667 0 -16.334 5.66699 -17.001 17l9 185c0.666992 14.667 8 22 22 22l437 10
c10.667 -0.666992 16 -8.66699 16 -24l-10 -173c-1.33301 -14 -8.66602 -21 -21.999 -21l-88 8l-482 -1360c-5.33301 -16 -13.333 -24 -24 -24l-198 54c-14.667 2 -22 8.66699 -22 20c0 4.66699 1.33301 9.33398 4 14.001l219 419l-86 -3c-8.66699 0 -16 6 -22 18l-336 841
l-95 -2c-14 0 -21 8 -21 24zM946 1649c3.33301 -4.66699 5 -10.334 5 -17.001s-2.66699 -12.334 -8 -17.001l-462 -340c-4 -2.66699 -8 -4 -12 -4s-8 2 -12 6l-67 68c-5.33301 6.66699 -8 12.834 -8 18.501s1.66699 10.834 5 15.501l383 420c6 7.33301 13.167 11 21.5 11
s15.5 -3.66699 21.5 -11z" />
    <glyph glyph-name="thorn" unicode="&#xfe;" horiz-adv-x="1195" 
d="M379 1595c12 0 18.001 -7.66699 18.001 -23l-16 -483l59 21c81.333 27.333 157.833 41 229.5 41s134.667 -12 189 -36s98.166 -60.333 131.499 -109c60 -88 90 -232 90 -432s-33.667 -347.167 -101 -441.5s-170.333 -141.5 -309 -141.5c-105.333 0 -204 17.667 -296 53
l14 -311l188 7c14 -1.33301 21 -8.33301 21 -21l-10 -147c-1.33301 -13.333 -9 -20 -23 -20l-466 -10c-12 0 -18.667 8 -20 24l-8 165c1.33301 8.66699 3.5 14.167 6.5 16.5s8.16699 3.83301 15.5 4.5l89 -10v1643l-146 -8c-12.667 0.666992 -19.334 7 -20.001 19l-12 155
c2.66699 12 10.334 18.667 23.001 20zM850.001 385.5c9.33301 48.333 13.999 107.832 13.999 178.499s-3.33301 129.5 -10 176.5s-18.667 84.833 -36 113.5c-33.333 54 -97 81 -191 81c-78 0 -162 -13.667 -252 -41l-13 -267l5 -403c84 -21.333 157.333 -32 220 -32
s109.834 5.83301 141.501 17.5s57.5 31.834 77.5 60.501s34.667 67.167 44 115.5z" />
    <glyph glyph-name="ydieresis" unicode="&#xff;" horiz-adv-x="1197" 
d="M16 1100c0 13.333 7.66699 20 23 20l454 10c12 0 18 -7.33301 18 -22l5 -170c-1.33301 -8.66699 -3.33301 -14.334 -6 -17.001s-8 -4 -16 -4l-131 -3l260 -735l236 740l-137 -13c-10.667 0 -16.334 5.66699 -17.001 17l9 185c0.666992 14.667 8 22 22 22l437 10
c10.667 -0.666992 16 -8.66699 16 -24l-10 -173c-1.33301 -14 -8.66602 -21 -21.999 -21l-88 8l-482 -1360c-5.33301 -16 -13.333 -24 -24 -24l-198 54c-14.667 2 -22 8.66699 -22 20c0 4.66699 1.33301 9.33398 4 14.001l219 419l-86 -3c-8.66699 0 -16 6 -22 18l-336 841
l-95 -2c-14 0 -21 8 -21 24zM451 1342c-21.333 -3.33301 -46.166 -5.00098 -74.499 -5.00098s-50.333 2 -66 6s-28.167 11 -37.5 21c-18 18 -27 46.167 -27 84.5s2.16699 66.333 6.5 84s12.5 31.5 24.5 41.5c20.667 17.333 54 26 100 26s76.833 -1.66699 92.5 -5
s28.5 -9.66602 38.5 -18.999c18 -16.667 27 -44.667 27 -84s-2.33301 -68.333 -7 -87s-13.334 -33 -26.001 -43s-29.667 -16.667 -51 -20zM922 1342c-21.333 -3.33301 -46.166 -5.00098 -74.499 -5.00098s-50.333 2 -66 6s-28.167 11 -37.5 21c-18 18 -27 46.167 -27 84.5
s2.16699 66.333 6.5 84s12.5 31.5 24.5 41.5c20.667 17.333 54 26 100 26s76.833 -1.66699 92.5 -5s28.167 -9.66602 37.5 -18.999c18.667 -16.667 28 -44.667 28 -84s-2.33301 -68.333 -7 -87s-13.334 -33 -26.001 -43s-29.667 -16.667 -51 -20z" />
    <glyph glyph-name="Amacron" unicode="&#x100;" 
d="M56 2c-14.667 1.33301 -22 12.001 -22 32.001v167c0 10.667 2.16699 18 6.5 22s12.166 6.33301 23.499 7l92 -4l396 1284c4 12.667 12 19.667 24 21l227 8c12 -0.666992 20.333 -8.33398 25 -23.001l432 -1283l91 3c18.667 -1.33301 28 -12 28 -32v-158
c0 -11.333 -2.33301 -18.666 -7 -21.999s-12.667 -5 -24 -5h-463c-12 0 -19 2.66699 -21 8s-3 12.666 -3 21.999l20 146c1.33301 11.333 4 18.833 8 22.5s11.333 5.5 22 5.5l114 3l-86 266l-495 10l-81 -290l121 12c8 0 13.5 -1.66699 16.5 -5s5.16699 -9.33301 6.5 -18
l15 -152c-1.33301 -11.333 -4.16602 -19 -8.49902 -23s-11.5 -6.33301 -21.5 -7zM491 672.001h389l-210 643zM1001 1971c10.667 -1.33301 15.999 -7.66699 15.999 -19l-18 -171c-1.33301 -8 -3.5 -13.333 -6.5 -16s-8.83301 -4 -17.5 -4l-624 6c-12.667 0 -19 8 -19 24
l10 151c0.666992 12.667 7.33398 19 20.001 19z" />
    <glyph glyph-name="amacron" unicode="&#x101;" horiz-adv-x="1196" 
d="M722 1151c197.333 0 295.999 -122.668 295.999 -368.001c0 -58 -1.33301 -133 -4 -225l-7 -196c-1.33301 -39.333 -3 -76.666 -5 -111.999l-4 -95l60 5c22 1.33301 47 3.33301 75 6c14 0 21 -6.33301 21 -19l-18 -158c-2 -12 -9.33301 -18.667 -22 -20l-289 -18
c-9.33301 0 -14 7.33301 -14 22l14 117c-111.333 -86 -232.333 -129 -363 -129c-102 0 -186 29.667 -252 89c-70 62.667 -105 147 -105 253c0 138 47.667 235 143 291c84 49.333 222.333 74 415 74c40 0 82.667 -1 128 -3c0.666992 17.333 1 33.333 1 48v38
c0 130 -57 195 -171 195c-59.333 0 -132.666 -18 -219.999 -54l4 -38c1.33301 -12.667 2 -22.667 2 -30c0 -14.667 -7.33301 -22 -22 -22l-169 -3c-12 2 -18.667 9.33301 -20 22l-17 286c0 16 7.33301 25 22 27l167 22c14 0 21 -7.33301 21 -22v-83
c119.333 66.667 230.333 100 333 100zM531.999 149.999c76.667 0 161.002 22 253.002 66c1.33301 44 2.16602 92.5 2.49902 145.5s1.16602 105.5 2.49902 157.5c-175.333 0 -297 -15 -365 -45c-62.667 -28 -94 -74.667 -94 -140c0 -122.667 67 -184 201 -184zM953.001 1611
c10.667 -1.33301 16.001 -7.66699 16.001 -19l-18 -171c-1.33301 -8 -3.5 -13.333 -6.5 -16s-8.83301 -4 -17.5 -4l-629 6c-9.33301 0 -14 8 -14 24l10 151c1.33301 12.667 6.66602 19 15.999 19z" />
    <glyph glyph-name="Abreve" unicode="&#x102;" 
d="M56 2c-14.667 1.33301 -22 12.001 -22 32.001v167c0 10.667 2.16699 18 6.5 22s12.166 6.33301 23.499 7l92 -4l396 1284c4 12.667 12 19.667 24 21l227 8c12 -0.666992 20.333 -8.33398 25 -23.001l432 -1283l91 3c18.667 -1.33301 28 -12 28 -32v-158
c0 -11.333 -2.33301 -18.666 -7 -21.999s-12.667 -5 -24 -5h-463c-12 0 -19 2.66699 -21 8s-3 12.666 -3 21.999l20 146c1.33301 11.333 4 18.833 8 22.5s11.333 5.5 22 5.5l114 3l-86 266l-495 10l-81 -290l121 12c8 0 13.5 -1.66699 16.5 -5s5.16699 -9.33301 6.5 -18
l15 -152c-1.33301 -11.333 -4.16602 -19 -8.49902 -23s-11.5 -6.33301 -21.5 -7zM491 672.001h389l-210 643zM1033 2006c16 0 23.998 -7.66895 23.998 -23.002c0 -94.667 -31.667 -174.667 -95 -240c-67.333 -70 -156.666 -105 -267.999 -105
c-114 0 -207.667 30.333 -281 91c-75.333 62.667 -113 147.667 -113 255c0 15.333 8 23 24 23l143 13c12.667 0 19.834 -10.667 21.501 -32s8 -42.666 19 -63.999s25.167 -39.666 42.5 -54.999c37.333 -32 83 -48 137 -48c101.333 0 162 55 182 165
c2.66699 16 9.66699 24 21 24z" />
    <glyph glyph-name="abreve" unicode="&#x103;" horiz-adv-x="1196" 
d="M722 1151c197.333 0 295.999 -122.668 295.999 -368.001c0 -58 -1.33301 -133 -4 -225l-7 -196c-1.33301 -39.333 -3 -76.666 -5 -111.999l-4 -95l60 5c22 1.33301 47 3.33301 75 6c14 0 21 -6.33301 21 -19l-18 -158c-2 -12 -9.33301 -18.667 -22 -20l-289 -18
c-9.33301 0 -14 7.33301 -14 22l14 117c-111.333 -86 -232.333 -129 -363 -129c-102 0 -186 29.667 -252 89c-70 62.667 -105 147 -105 253c0 138 47.667 235 143 291c84 49.333 222.333 74 415 74c40 0 82.667 -1 128 -3c0.666992 17.333 1 33.333 1 48v38
c0 130 -57 195 -171 195c-59.333 0 -132.666 -18 -219.999 -54l4 -38c1.33301 -12.667 2 -22.667 2 -30c0 -14.667 -7.33301 -22 -22 -22l-169 -3c-12 2 -18.667 9.33301 -20 22l-17 286c0 16 7.33301 25 22 27l167 22c14 0 21 -7.33301 21 -22v-83
c119.333 66.667 230.333 100 333 100zM531.999 149.999c76.667 0 161.002 22 253.002 66c1.33301 44 2.16602 92.5 2.49902 145.5s1.16602 105.5 2.49902 157.5c-175.333 0 -297 -15 -365 -45c-62.667 -28 -94 -74.667 -94 -140c0 -122.667 67 -184 201 -184zM994.001 1698
c16 0 23.999 -7.66895 23.999 -23.002c0 -94.667 -31.333 -174.667 -94 -240c-68 -70 -157.667 -105 -269 -105c-114 0 -207.667 30.333 -281 91c-75.333 62.667 -113 147.667 -113 255c0 14 8 21.667 24 23l143 13c12.667 0 19.834 -10.667 21.501 -32
s8 -42.666 19 -63.999s25.5 -39.666 43.5 -54.999c36.667 -32 82 -48 136 -48c101.333 0 162 55 182 165c2.66699 16 9.66699 24 21 24z" />
    <glyph glyph-name="Aogonek" unicode="&#x104;" 
d="M56 2c-14.667 1.33301 -21.998 12 -21.998 32v167c0 10.667 2.16699 18 6.5 22s12.166 6.33301 23.499 7l92 -4l396 1284c4 12.667 12 19.667 24 21l227 8c12 -0.666992 20.333 -8.33398 25 -23.001l432 -1283l91 3c18.667 -1.33301 28 -12 28 -32v-158
c0 -11.333 -2.33301 -18.666 -7 -21.999s-12.667 -5 -24 -5h-154c-68 -84 -102 -150.667 -102 -200c0 -42.667 32 -64 96 -64c38.667 0 76.5 6.66699 113.5 20s58.167 20 63.5 20c9.33301 0 14.666 -5.66699 15.999 -17l21 -166c0 -9.33301 -7.33301 -16.666 -22 -21.999
c-84.667 -26.667 -168.334 -40 -251.001 -40c-143.333 0 -215 59.667 -215 179c0 85.333 36 182 108 290h-137c-12 0 -19 2.66699 -21 8s-3 12.666 -3 21.999l20 146c1.33301 11.333 4 18.833 8 22.5s11.333 5.5 22 5.5l114 3l-86 266l-495 10l-81 -290l121 12
c8 0 13.5 -1.66699 16.5 -5s5.16699 -9.33301 6.5 -18l15 -152c-1.33301 -11.333 -4.16602 -19 -8.49902 -23s-11.5 -6.33301 -21.5 -7zM491.002 672h389l-210 643z" />
    <glyph glyph-name="aogonek" unicode="&#x105;" horiz-adv-x="1196" 
d="M722 1151c197.333 0 296.001 -122.668 296.001 -368.001c0 -58 -1.33301 -133 -4 -225l-7 -196c-1.33301 -39.333 -3 -76.666 -5 -111.999l-4 -95l60 5c22 1.33301 47 3.33301 75 6c14 0 21 -6.33301 21 -19l-18 -158c-2 -12 -9.33301 -18.667 -22 -20l-214 -13
c-37.333 -56.667 -56 -102.334 -56 -137.001c0 -42.667 32 -64 96 -64c38.667 0 76.5 6.66699 113.5 20s58.167 20 63.5 20c9.33301 0 14.666 -5.66699 15.999 -17l21 -166c0 -9.33301 -7.33301 -16.666 -22 -21.999c-84.667 -26.667 -168.334 -40 -251.001 -40
c-143.333 0 -215 59.667 -215 179c0 106 53 226.333 159 361c-111.333 -86 -232.333 -129 -363 -129c-102 0 -186 29.667 -252 89c-70 62.667 -105 147 -105 253c0 138 47.667 235 143 291c84 49.333 222.333 74 415 74c40 0 82.667 -1 128 -3
c0.666992 17.333 1 33.333 1 48v38c0 130 -57 195 -171 195c-59.333 0 -132.666 -18 -219.999 -54l4 -38c1.33301 -12.667 2 -22.667 2 -30c0 -14.667 -7.33301 -22 -22 -22l-169 -3c-12 2 -18.667 9.33301 -20 22l-17 286c0 16 7.33301 25 22 27l167 22
c14 0 21 -7.33301 21 -22v-83c119.333 66.667 230.333 100 333 100zM532.001 149.999c76.667 0 161.002 22 253.002 66c1.33301 44 2.16602 92.5 2.49902 145.5s1.16602 105.5 2.49902 157.5c-175.333 0 -297 -15 -365 -45c-62.667 -28 -94 -74.667 -94 -140
c0 -122.667 67 -184 201 -184z" />
    <glyph glyph-name="Cacute" unicode="&#x106;" 
d="M1173 1530c26.667 0 40.666 -13.002 41.999 -39.002l-12 -436c0 -17.333 -7.33301 -26 -22 -26l-168 -4c-12.667 0 -19.667 7.66699 -21 23l-21 257c-81.333 20 -156.333 30 -225 30s-126.667 -10.167 -174 -30.5s-86.333 -53.166 -117 -98.499
c-59.333 -88 -89 -235 -89 -441c0 -311.333 75.333 -497.666 226 -558.999c49.333 -20 109.333 -30 180 -30s145.334 12.667 224.001 38l-5 134c1.33301 12 9.33301 19.333 24 22l166 28c11.333 0 18.333 -7.66699 21 -23l40 -390c0 -10.667 -7.66699 -16.667 -23 -18
l-172 -15c-26.667 0 -40.667 13 -42 39l-2 42c-92.667 -49.333 -190.5 -74 -293.5 -74s-189.667 17.667 -260 53s-129.166 87.333 -176.499 156c-95.333 139.333 -143 342 -143 608c0 264 53.333 460 160 588c97.333 117.333 236.333 176 417 176
c113.333 0 208.666 -12.667 285.999 -38zM1092 1842c2.66699 -5.33301 4.00098 -11.833 4.00098 -19.5s-5 -13.5 -15 -17.5l-494 -207c-5.33301 -2 -10.333 -3 -15 -3s-8.33398 3.33301 -11.001 10l-39 92c-2.66699 6.66699 -4 12 -4 16s3 7.66699 9 11l453 290
c8 4 16 6 24 6s14 -4.66699 18 -14z" />
    <glyph glyph-name="cacute" unicode="&#x107;" horiz-adv-x="1024" 
d="M327 1126.5c43.333 17.667 96.498 26.4971 159.498 26.4971s133.167 -9.66699 210.5 -29l188 35c12 -2 18.667 -9.33301 20 -22l17 -356c-1.33301 -16 -8.66602 -25 -21.999 -27l-167 -22c-14 0 -21 7.33301 -21 22v169c-42.667 10 -88.334 15 -137.001 15
s-91.5 -8 -128.5 -24s-65.833 -40 -86.5 -72c-36 -56 -54 -152.333 -54 -289c0 -205.333 42 -322.333 126 -351c26.667 -9.33301 57.334 -14 92.001 -14c50 0 107.333 6.33301 172 19l4 69c1.33301 16 8.33301 24.667 21 26l158 -6c9.33301 -1.33301 14.666 -9 15.999 -23
l18 -313c0 -14 -6.66699 -21 -20 -21h-192c-10 0 -15.667 6.33301 -17 19l3 57c-241.333 -47.333 -407 -13.666 -497 101.001c-64 82.667 -96 216.334 -96 401.001c0 123.333 5.33301 215.333 16 276s24.334 111.667 41.001 153s39.334 77.333 68.001 108
s64.667 54.834 108 72.501zM855.998 1649c3.33301 -4.66699 5 -10.334 5 -17.001s-2.66699 -12.334 -8 -17.001l-462 -340c-4 -2.66699 -8 -4 -12 -4s-8 2 -12 6l-67 68c-5.33301 6.66699 -8 12.834 -8 18.501s1.66699 10.834 5 15.501l383 420c6 7.33301 13.167 11 21.5 11
s15.5 -3.66699 21.5 -11z" />
    <glyph glyph-name="Ccircumflex" unicode="&#x108;" 
d="M1173 1530c26.667 0 40.666 -13.002 41.999 -39.002l-12 -436c0 -17.333 -7.33301 -26 -22 -26l-168 -4c-12.667 0 -19.667 7.66699 -21 23l-21 257c-81.333 20 -156.333 30 -225 30s-126.667 -10.167 -174 -30.5s-86.333 -53.166 -117 -98.499
c-59.333 -88 -89 -235 -89 -441c0 -311.333 75.333 -497.666 226 -558.999c49.333 -20 109.333 -30 180 -30s145.334 12.667 224.001 38l-5 134c1.33301 12 9.33301 19.333 24 22l166 28c11.333 0 18.333 -7.66699 21 -23l40 -390c0 -10.667 -7.66699 -16.667 -23 -18
l-172 -15c-26.667 0 -40.667 13 -42 39l-2 42c-92.667 -49.333 -190.5 -74 -293.5 -74s-189.667 17.667 -260 53s-129.166 87.333 -176.499 156c-95.333 139.333 -143 342 -143 608c0 264 53.333 460 160 588c97.333 117.333 236.333 176 417 176
c113.333 0 208.666 -12.667 285.999 -38zM652.999 1985c19.333 15.333 34.333 23.668 45 25.001l95 10c10.667 0 26 -8.66699 46 -26l302 -251c4.66699 -4.66699 7 -9.5 7 -14.5s-2 -9.83301 -6 -14.5l-61 -73c-3.33301 -4 -6.83301 -6 -10.5 -6s-8.16699 1.33301 -13.5 4
l-320 159l-297 -154c-2.66699 -1.33301 -6 -2 -10 -2s-8 2.66699 -12 8l-62 76c-4 5.33301 -6 9.66602 -6 12.999s1.66699 6.33301 5 9z" />
    <glyph glyph-name="ccircumflex" unicode="&#x109;" horiz-adv-x="1024" 
d="M327 1126.5c43.333 17.667 96.498 26.4971 159.498 26.4971s133.167 -9.66699 210.5 -29l188 35c12 -2 18.667 -9.33301 20 -22l17 -356c-1.33301 -16 -8.66602 -25 -21.999 -27l-167 -22c-14 0 -21 7.33301 -21 22v169c-42.667 10 -88.334 15 -137.001 15
s-91.5 -8 -128.5 -24s-65.833 -40 -86.5 -72c-36 -56 -54 -152.333 -54 -289c0 -205.333 42 -322.333 126 -351c26.667 -9.33301 57.334 -14 92.001 -14c50 0 107.333 6.33301 172 19l4 69c1.33301 16 8.33301 24.667 21 26l158 -6c9.33301 -1.33301 14.666 -9 15.999 -23
l18 -313c0 -14 -6.66699 -21 -20 -21h-192c-10 0 -15.667 6.33301 -17 19l3 57c-241.333 -47.333 -407 -13.666 -497 101.001c-64 82.667 -96 216.334 -96 401.001c0 123.333 5.33301 215.333 16 276s24.334 111.667 41.001 153s39.334 77.333 68.001 108
s64.667 54.834 108 72.501zM450.998 1745c14.667 14.667 28.668 23.001 42.001 25.001l101 10c15.333 0 31 -10 47 -30l298 -381c3.33301 -4.66699 5 -10.167 5 -16.5s-2.66699 -12.166 -8 -17.499l-67 -68c-4 -4 -8.33301 -6 -13 -6s-8.33398 1.33301 -11.001 4l-310 280
l-299 -277c-5.33301 -4 -10.333 -6 -15 -6s-9.66699 2.66699 -15 8l-70 72c-5.33301 5.33301 -8 10.166 -8 14.499s1.66699 8.16602 5 11.499z" />
    <glyph glyph-name="Cdotaccent" unicode="&#x10a;" 
d="M1173 1530c26.667 0 40.666 -13.002 41.999 -39.002l-12 -436c0 -17.333 -7.33301 -26 -22 -26l-168 -4c-12.667 0 -19.667 7.66699 -21 23l-21 257c-81.333 20 -156.333 30 -225 30s-126.667 -10.167 -174 -30.5s-86.333 -53.166 -117 -98.499
c-59.333 -88 -89 -235 -89 -441c0 -311.333 75.333 -497.666 226 -558.999c49.333 -20 109.333 -30 180 -30s145.334 12.667 224.001 38l-5 134c1.33301 12 9.33301 19.333 24 22l166 28c11.333 0 18.333 -7.66699 21 -23l40 -390c0 -10.667 -7.66699 -16.667 -23 -18
l-172 -15c-26.667 0 -40.667 13 -42 39l-2 42c-92.667 -49.333 -190.5 -74 -293.5 -74s-189.667 17.667 -260 53s-129.166 87.333 -176.499 156c-95.333 139.333 -143 342 -143 608c0 264 53.333 460 160 588c97.333 117.333 236.333 176 417 176
c113.333 0 208.666 -12.667 285.999 -38zM797.499 1730c-22.333 -3.33301 -52.668 -4.99902 -91.001 -4.99902s-66.166 9.5 -83.499 28.5s-26 47.167 -26 84.5s2.16699 64.833 6.5 82.5s12.5 31.5 24.5 41.5c20.667 17.333 65.667 26 135 26c45.333 0 75 -6.33301 89 -19
c22.667 -21.333 34 -51.333 34 -90s-2.66699 -67.334 -8 -86.001s-14.5 -33 -27.5 -43s-30.667 -16.667 -53 -20z" />
    <glyph glyph-name="cdotaccent" unicode="&#x10b;" horiz-adv-x="1024" 
d="M327 1126.5c43.333 17.667 96.498 26.4971 159.498 26.4971s133.167 -9.66699 210.5 -29l188 35c12 -2 18.667 -9.33301 20 -22l17 -356c-1.33301 -16 -8.66602 -25 -21.999 -27l-167 -22c-14 0 -21 7.33301 -21 22v169c-42.667 10 -88.334 15 -137.001 15
s-91.5 -8 -128.5 -24s-65.833 -40 -86.5 -72c-36 -56 -54 -152.333 -54 -289c0 -205.333 42 -322.333 126 -351c26.667 -9.33301 57.334 -14 92.001 -14c50 0 107.333 6.33301 172 19l4 69c1.33301 16 8.33301 24.667 21 26l158 -6c9.33301 -1.33301 14.666 -9 15.999 -23
l18 -313c0 -14 -6.66699 -21 -20 -21h-192c-10 0 -15.667 6.33301 -17 19l3 57c-241.333 -47.333 -407 -13.666 -497 101.001c-64 82.667 -96 216.334 -96 401.001c0 123.333 5.33301 215.333 16 276s24.334 111.667 41.001 153s39.334 77.333 68.001 108
s64.667 54.834 108 72.501zM596.998 1342c-21.333 -3.33301 -46.8301 -5.00098 -76.4971 -5.00098s-52.334 1.66699 -68.001 5s-27.834 9.33301 -36.501 18c-16 16 -24 44.333 -24 85s2.16699 69.834 6.5 87.501s12.5 31.5 24.5 41.5c20.667 17.333 54.5 26 101.5 26
s78.5 -1.16699 94.5 -3.5s28.667 -7.83301 38 -16.5c16 -14 24 -42 24 -84s-2.33301 -72.333 -7 -91s-13.334 -33 -26.001 -43s-29.667 -16.667 -51 -20z" />
    <glyph glyph-name="Ccaron" unicode="&#x10c;" 
d="M1173 1530c26.667 0 40.666 -13.002 41.999 -39.002l-12 -436c0 -17.333 -7.33301 -26 -22 -26l-168 -4c-12.667 0 -19.667 7.66699 -21 23l-21 257c-81.333 20 -156.333 30 -225 30s-126.667 -10.167 -174 -30.5s-86.333 -53.166 -117 -98.499
c-59.333 -88 -89 -235 -89 -441c0 -311.333 75.333 -497.666 226 -558.999c49.333 -20 109.333 -30 180 -30s145.334 12.667 224.001 38l-5 134c1.33301 12 9.33301 19.333 24 22l166 28c11.333 0 18.333 -7.66699 21 -23l40 -390c0 -10.667 -7.66699 -16.667 -23 -18
l-172 -15c-26.667 0 -40.667 13 -42 39l-2 42c-92.667 -49.333 -190.5 -74 -293.5 -74s-189.667 17.667 -260 53s-129.166 87.333 -176.499 156c-95.333 139.333 -143 342 -143 608c0 264 53.333 460 160 588c97.333 117.333 236.333 176 417 176
c113.333 0 208.666 -12.667 285.999 -38zM825.999 1643c-18.667 -16 -32.668 -24.334 -42.001 -25.001l-98 -9c-11.333 0 -26.666 8.33301 -45.999 25l-314 278c-4.66699 4.66699 -7 9.33398 -7 14.001s2 9.66699 6 15l61 73c2.66699 4 6 6 10 6s8.66699 -1.33301 14 -4
l331 -184l298 181c8 4 14 6 18 6s8 -2.66699 12 -8l60 -72c5.33301 -7.33301 8 -13 8 -17c0 -3.33301 -1.66699 -6.33301 -5 -9z" />
    <glyph glyph-name="ccaron" unicode="&#x10d;" horiz-adv-x="1024" 
d="M327 1126.5c43.333 17.667 96.498 26.4971 159.498 26.4971s133.167 -9.66699 210.5 -29l188 35c12 -2 18.667 -9.33301 20 -22l17 -356c-1.33301 -16 -8.66602 -25 -21.999 -27l-167 -22c-14 0 -21 7.33301 -21 22v169c-42.667 10 -88.334 15 -137.001 15
s-91.5 -8 -128.5 -24s-65.833 -40 -86.5 -72c-36 -56 -54 -152.333 -54 -289c0 -205.333 42 -322.333 126 -351c26.667 -9.33301 57.334 -14 92.001 -14c50 0 107.333 6.33301 172 19l4 69c1.33301 16 8.33301 24.667 21 26l158 -6c9.33301 -1.33301 14.666 -9 15.999 -23
l18 -313c0 -14 -6.66699 -21 -20 -21h-192c-10 0 -15.667 6.33301 -17 19l3 57c-241.333 -47.333 -407 -13.666 -497 101.001c-64 82.667 -96 216.334 -96 401.001c0 123.333 5.33301 215.333 16 276s24.334 111.667 41.001 153s39.334 77.333 68.001 108
s64.667 54.834 108 72.501zM620.998 1296c-14.667 -14.667 -28.667 -22.998 -42 -24.998l-101 -10c-15.333 0 -31 10 -47 30l-298 381c-3.33301 4.66699 -5 10.167 -5 16.5s2.66699 12.166 8 17.499l67 68c4 4 8.33301 6 13 6s8.33398 -1.33301 11.001 -4l310 -280l299 277
c4 4 8.66699 6 14 6s10.666 -2.66699 15.999 -8l70 -72c4.66699 -4.66699 7 -9.33398 7 -14.001s-1.33301 -8.66699 -4 -12z" />
    <glyph glyph-name="Dcaron" unicode="&#x10e;" 
d="M246 1313c-40.667 -2.66699 -87.668 -6.66406 -141.001 -11.9971c-7.33301 0 -12 1.66699 -14 5s-3.33301 9 -4 17l-14 186c0.666992 8 2.83398 13.167 6.50098 15.5s9.5 4.16602 17.5 5.49902c66 1.33301 123.5 2.66602 172.5 3.99902s91.667 2.33301 128 3
s67.333 1.16699 93 1.5s48 0.666016 67 0.999023s35.833 0.5 50.5 0.5h42c198.667 0 346 -52 442 -156c111.333 -120 167 -319.333 167 -598c0 -263.333 -56.333 -465.333 -169 -606c-107.333 -132.667 -255.666 -199 -444.999 -199c-198.667 0 -380 8.33301 -544 25
c-11.333 0.666992 -17.333 8.66699 -18 24l12 177c1.33301 10.667 6.66602 17 15.999 19l109 -8zM452.999 205.003c56 -4 96.668 -6 122.001 -6h64c135.333 0 234.833 47 298.5 141s95.5 234.333 95.5 421c0 309.333 -74.333 492 -223 548c-48 18 -91.333 27 -130 27
c-66.667 0 -138.334 -2.33301 -215.001 -7zM764 1643c-18.667 -16 -32.668 -24.334 -42.001 -25.001l-98 -9c-11.333 0 -26.666 8.33301 -45.999 25l-314 278c-4.66699 4.66699 -7 9.33398 -7 14.001s2 9.66699 6 15l61 73c2.66699 4 6 6 10 6s8.66699 -1.33301 14 -4
l331 -184l298 181c8 4 14 6 18 6s8 -2.66699 12 -8l60 -72c5.33301 -7.33301 8 -13 8 -17c0 -3.33301 -1.66699 -6.33301 -5 -9z" />
    <glyph glyph-name="dcaron" unicode="&#x10f;" horiz-adv-x="1360" 
d="M1161 1209c10 68.667 15 125.999 15 171.999s-3.5 83.333 -10.5 112s-14.833 54 -23.5 76s-16.5 41 -23.5 57s-10.5 29.833 -10.5 41.5s4.66699 22.834 14 33.501s21.333 19.667 36 27c30.667 15.333 64.667 23 102 23c71.333 0 107 -53 107 -159
c0 -146.667 -29.667 -281.667 -89 -405zM658 1415c-13.333 0 -20 7.99902 -20 23.999l10 160c1.33301 13.333 9 20 23 20l343 -19c12 -1.33301 18 -9 18 -23v-1404l105 11c13.333 0 20 -6.33301 20 -19l-18 -155c-2 -11.333 -9.66699 -18 -23 -20l-248 -40
c-12.667 0 -19 7.33301 -19 22l8 99c-112 -46 -212.167 -69 -300.5 -69s-159.5 12 -213.5 36s-97.667 60 -131 108c-60 88.667 -90 235.334 -90 440.001c0 296 76.333 474.667 229 536c51.333 20.667 121 31 209 31s181 -18.667 279 -56l-13 315zM845 893.998
c-95.333 23.333 -173.167 35 -233.5 35s-106.333 -4.66699 -138 -14s-57.5 -27 -77.5 -53c-38.667 -50 -58 -145.667 -58 -287c0 -140.667 15.333 -236 46 -286c33.333 -54 97 -81 191 -81c77.333 0 160.333 13 249 39z" />
    <glyph glyph-name="Dcroat" unicode="&#x110;" 
d="M246 1313c-40.667 -2.66699 -87.668 -6.66309 -141.001 -11.9961c-7.33301 0 -12 1.66699 -14 5s-3.33301 9 -4 17l-14 186c0.666992 8 2.83398 13.167 6.50098 15.5s9.5 4.16602 17.5 5.49902c66 1.33301 123.5 2.66602 172.5 3.99902s91.667 2.33301 128 3
s67.333 1.16699 93 1.5s48 0.666016 67 0.999023s35.833 0.5 50.5 0.5h42c198.667 0 346 -52 442 -156c111.333 -120 167 -319.333 167 -598c0 -263.333 -56.333 -465.333 -169 -606c-107.333 -132.667 -255.666 -199 -444.999 -199c-198.667 0 -380 8.33301 -544 25
c-11.333 0.666992 -17.333 8.66699 -18 24l12 177c1.33301 10.667 6.66602 17 15.999 19l109 -8l9 384l-114 -6c-16 1.33301 -24 7.66602 -24 18.999l-2 131c0 13.333 5.33301 20 16 20l128 2zM452.999 205.004c56 -4 96.668 -6 122.001 -6h64
c135.333 0 234.833 47 298.5 141s95.5 234.333 95.5 421c0 309.333 -74.333 492 -223 548c-48 18 -91.333 27 -130 27c-66.667 0 -138.334 -2.33301 -215.001 -7l-6 -558l333 23c10.667 0 16 -6 16 -18l3 -137c0 -12.667 -4.33301 -19 -13 -19l-331 -6l-10 -1z" />
    <glyph glyph-name="dcroat" unicode="&#x111;" horiz-adv-x="1194" 
d="M658 1415c-13.333 0 -20 7.99902 -20 23.999l10 160c1.33301 13.333 9 20 23 20l343 -19c12 -1.33301 18 -9 18 -23v-228l136 -1c10.667 0 16 -7 16 -21l-19 -120c-2 -12 -10.333 -18 -25 -18l-108 12v-1028l105 11c13.333 0 20 -6.33301 20 -19l-18 -155
c-2 -11.333 -9.66699 -18 -23 -20l-248 -40c-12.667 0 -19 7.33301 -19 22l8 99c-112 -46 -212.167 -69 -300.5 -69s-159.5 12 -213.5 36s-97.667 60 -131 108c-60 88.667 -90 235.334 -90 440.001c0 296 76.333 474.667 229 536c51.333 20.667 121 31 209 31
s181 -18.667 279 -56l-5 118l-234 -6c-8 0.666992 -12 6.33398 -12 17.001l10 108c1.33301 7.33301 3 12.166 5 14.499s6 3.5 12 3.5l213 -2l-2 62zM845 893.999c-95.333 23.333 -173.167 35 -233.5 35s-106.333 -4.66699 -138 -14s-57.5 -27 -77.5 -53
c-38.667 -50 -58 -145.667 -58 -287c0 -140.667 15.333 -236 46 -286c33.333 -54 97 -81 191 -81c77.333 0 160.333 13 249 39z" />
    <glyph glyph-name="Emacron" unicode="&#x112;" 
d="M1272 -41c-2.66699 -15.333 -9.66699 -23 -21 -23l-188 4c-14.667 0 -22 8.66699 -22 26l-2 61l-893 -25c-15.333 0 -23.333 8 -24 24l6 184c0 10 5.33301 16.333 16 19l125 -17l-8 1089l-126 -11c-12 0 -18 7.33301 -18 22l11 182c1.33301 12.667 9.33301 19.667 24 21
l999 38c20 -1.33301 30 -10.333 30 -27l-20 -365c0 -15.333 -5.33301 -23 -16 -23l-168 6c-9.33301 0.666992 -15 3 -17 7s-3.33301 10.333 -4 19l-6 172l-473 -25l7 -466l491 31c16.667 0 25.667 -7.66699 27 -23l7 -168c-1.33301 -15.333 -8.33301 -23 -21 -23l-502 -7
l7 -457l540 18l-4 131c1.33301 24.667 15.333 37.667 42 39l162 -5c15.333 -1.33301 23 -7.33301 23 -18zM1007 1971c10.667 -1.33301 15.999 -7.66699 15.999 -19l-18 -171c-1.33301 -8 -3.5 -13.333 -6.5 -16s-8.83301 -4 -17.5 -4l-624 6c-12.667 0 -19 8 -19 24l10 151
c0.666992 12.667 7.33398 19 20.001 19z" />
    <glyph glyph-name="emacron" unicode="&#x113;" horiz-adv-x="1196" 
d="M847 6c-85.333 -21.333 -193.667 -31.9971 -325 -31.9971c-134 0 -231.333 41.333 -292 124c-63.333 86 -95 222.333 -95 409c0 196 27 342.333 81 439c61.333 106.667 159.333 171.667 294 195c46.667 8 98.667 12 156 12c123.333 0 213 -30.333 269 -91
s84 -153.334 84 -278.001c0 -81.333 -14.333 -144 -43 -188c-9.33301 -14 -22 -29.833 -38 -47.5s-45.5 -33.334 -88.5 -47.001s-92.167 -24.167 -147.5 -31.5c-86 -10.667 -204.333 -16 -355 -16c8.66699 -112.667 36.334 -189.334 83.001 -230.001
c35.333 -32 96.666 -48 183.999 -48c82 0 163.667 7 245 21l3 52c0.666992 8 2.5 13.333 5.5 16s8.5 5 16.5 7l144 32c14.667 0 23 -6.33301 25 -19c2 -11.333 4 -33.5 6 -66.5s4 -61.5 6 -85.5s3.66699 -47 5 -69l4 -56c0.666992 -16.667 1 -30.667 1 -42
c0 -20 -14.667 -31.667 -44 -35l-166 -20c-14.667 0 -22 7.33301 -22 22zM785.499 714.503c3.66699 20.333 5.49902 44.335 5.49902 72.002s-2.5 52.167 -7.5 73.5s-13.5 39.666 -25.5 54.999c-26 32 -68.333 48 -127 48c-113.333 0 -189 -28.667 -227 -86
c-36 -53.333 -56 -145.333 -60 -276c232.667 3.33301 369.334 23.333 410.001 60c17.333 15.333 27.833 33.166 31.5 53.499zM928.998 1611c10.667 -1.33301 16.001 -7.66699 16.001 -19l-18 -171c-1.33301 -8 -3.5 -13.333 -6.5 -16s-8.83301 -4 -17.5 -4l-629 6
c-9.33301 0 -14 8 -14 24l10 151c1.33301 12.667 6.66602 19 15.999 19z" />
    </font>
</defs>
</svg>
